<?xml version="1.0" encoding="UTF-8" standalone="no"?>
<!-- Created with Inkscape (http://www.inkscape.org/) -->

<svg
   xmlns:dc="http://purl.org/dc/elements/1.1/"
   xmlns:cc="http://creativecommons.org/ns#"
   xmlns:rdf="http://www.w3.org/1999/02/22-rdf-syntax-ns#"
   xmlns:svg="http://www.w3.org/2000/svg"
   xmlns="http://www.w3.org/2000/svg"
   xmlns:sodipodi="http://sodipodi.sourceforge.net/DTD/sodipodi-0.dtd"
   xmlns:inkscape="http://www.inkscape.org/namespaces/inkscape"
   version="1.0"
   width="502"
   height="602.09375"
   id="svg3194"
   inkscape:version="0.48.0 r9654"
   sodipodi:docname="Altafulla.svg">
  <metadata
     id="metadata35">
    <rdf:RDF>
      <cc:Work
         rdf:about="">
        <dc:format>image/svg+xml</dc:format>
        <dc:type
           rdf:resource="http://purl.org/dc/dcmitype/StillImage" />
      </cc:Work>
    </rdf:RDF>
  </metadata>
  <sodipodi:namedview
     pagecolor="#ffffff"
     bordercolor="#666666"
     borderopacity="1"
     objecttolerance="10"
     gridtolerance="10"
     guidetolerance="10"
     inkscape:pageopacity="0"
     inkscape:pageshadow="2"
     inkscape:window-width="1280"
     inkscape:window-height="954"
     id="namedview33"
     showgrid="false"
     fit-margin-top="0"
     fit-margin-left="0"
     fit-margin-right="0"
     fit-margin-bottom="0"
     inkscape:zoom="1.1955754"
     inkscape:cx="251"
     inkscape:cy="368.02245"
     inkscape:window-x="-4"
     inkscape:window-y="-4"
     inkscape:window-maximized="1"
     inkscape:current-layer="svg3194" />
  <defs
     id="defs3196" />
  <g
     transform="translate(-78.866207,-204.97395)"
     id="layer3"
     style="display:inline" />
  <g
     transform="translate(-78.866207,-204.97395)"
     id="layer1"
     style="display:inline" />
  <g
     transform="translate(-22.437486,-281.61429)"
     id="layer4"
     style="display:inline" />
  <g
     transform="translate(-22.437486,-281.61429)"
     id="layer5"
     style="display:inline" />
  <g
     transform="translate(-22.437486,-281.61429)"
     id="layer2" />
  <path
     inkscape:connector-curvature="0"
     style="fill:#eac102;fill-opacity:1;fill-rule:evenodd;stroke:#000000;stroke-width:1;stroke-linecap:butt;stroke-linejoin:miter;stroke-miterlimit:4;stroke-opacity:1;stroke-dasharray:none;stroke-dashoffset:0;marker:none;visibility:visible;display:inline;overflow:visible;enable-background:accumulate"
     d="M 1.5625,1.48201 C 1.663505,61.718966 1.53781,121.96153 1.5,182.20076 c -0.0095,15.09366 -0.0028,30.18779 0,45.28125 0.0033,17.33301 0.03103,34.66745 0.0625,52 16.760277,236.44197 221.27487,309.70966 248.34375,320.59375 0.70874,-3.8e-4 1.41634,-0.0246 2.125,-0.0312 26.28681,-10.42776 233.37452,-84.5372 248.09375,-314.28125 l 0,-284.28125 -249.125,0 -249.4375,0 z"
     id="path8734" />
  <path
     inkscape:connector-curvature="0"
     style="fill:#ed1c24;fill-opacity:1;fill-rule:nonzero;stroke:#000000;stroke-width:1.50000000000000000;stroke-linecap:butt;stroke-linejoin:miter;stroke-miterlimit:4;stroke-opacity:1;stroke-dasharray:none;stroke-dashoffset:0;marker:none;visibility:visible;display:inline;overflow:visible;enable-background:accumulate"
     d="m 251,279.91951 c -91.86893,0 -168.925502,75.6899 -189.25,177.34375 67.76719,98.61803 169.598,135.35044 188.15625,142.8125 0.69696,-3.6e-4 1.39686,0.006 2.09375,0 C 269.93154,592.9583 372.76493,555.94415 440.625,459.29451 420.92682,356.621 343.47888,279.91951 251,279.91951 z"
     id="path2785" />
  <g
     transform="translate(0,-0.39299)"
     id="g2843"
     style="fill:#008f4c;stroke-width:1.50000000000000000;stroke-miterlimit:4;stroke-dasharray:none">
    <g
       style="fill:#008f4c;stroke:#000000;stroke-width:2.91165185000000020;stroke-miterlimit:4;stroke-opacity:1;stroke-dasharray:none"
       id="g3444"
       transform="matrix(0.5151715,0,0,0.5151715,95.381113,-1.9877197)">
      <path
         inkscape:connector-curvature="0"
         style="fill:#008f4c;stroke:#000000;stroke-width:2.91165185000000020;stroke-miterlimit:4;stroke-opacity:1;stroke-dasharray:none"
         id="path2243"
         d="m 300.05438,543.3667 c -8.00054,-20.20575 -20.51024,-39.31592 -20.96605,-61.74362 -2.54016,-27.3057 9.84271,-52.60717 14.33839,-78.93804 3.57993,-18.48569 -15.91427,1.30195 -23.58447,3.42217 -20.55118,9.29852 -43.72245,15.51211 -66.35895,12.24525 -7.15035,-1.32992 -29.49713,-5.59628 -11.70852,-11.33183 7.93121,-4.93645 -10.76716,-4.46587 -15.19287,-6.97906 -18.15216,-5.46988 -37.77781,-10.86349 -51.1458,-25.18796 -3.05308,-6.31773 20.75074,-1.95138 7.30497,-9.07304 -14.95507,-10.80799 -30.80241,-22.58581 -39.18271,-39.48119 -5.960978,-12.54465 16.37416,5.03598 13.71531,-2.23878 -10.695366,-13.49307 -15.924424,-30.56846 -20.293984,-47.00738 -2.110065,-7.39647 -3.754152,-29.21325 6.922032,-15.26808 8.829582,3.72154 0.531035,-19.56768 3.671254,-26.5726 1.231853,-13.71279 4.898038,-27.77821 13.361818,-38.86797 2.26049,3.73459 5.84651,14.00783 6.92906,2.78442 3.58302,-15.93028 10.25997,-31.57141 20.72167,-44.21075 5.09828,-5.65659 2.76331,19.93786 7.63481,7.04563 6.20759,-17.72554 16.68851,-33.69832 30.05162,-46.83488 0.56832,5.05395 1.06422,17.99139 5.90442,7.54095 6.87628,-12.60743 17.95733,-21.96466 27.76718,-32.20328 0.19757,4.406682 0.39514,8.813364 0.59269,13.22005 10.76123,-10.393473 20.39451,-22.577406 33.45744,-30.057717 2.30002,2.232394 -2.3829,18.397111 2.9087,11.84003 8.32537,-9.434463 19.35247,-15.837692 27.99093,-24.877419 2.69706,3.174404 0.0472,16.758518 6.04692,6.910952 7.66518,-10.011574 15.77287,-20.298747 18.58513,-32.884301 3.19164,-4.844321 3.67965,11.002384 7.48031,13.39039 5.12652,9.137222 10.21373,18.615216 17.93789,25.859733 0.19477,-4.691845 0.38953,-9.38369 0.58429,-14.075535 12.76343,6.300259 21.45918,17.965166 31.17563,27.83615 1.62504,-5.218511 -2.08477,-17.882728 6.38088,-9.655339 10.39136,7.676296 17.34384,19.033969 26.76784,27.580016 1.5752,-5.993671 0.42296,-21.191921 8.37245,-9.924862 10.05668,9.459052 19.24234,19.862922 26.70619,31.500182 1.27624,-6.36708 1.58719,-17.22614 7.96199,-6.84194 11.34532,12.54451 18.03932,28.54519 24.58252,43.79194 4.01927,3.25231 4.31505,-22.66003 11.0348,-8.45 8.80462,14.49311 13.71124,31.09264 18.84215,47 5.03465,-3.93374 6.65775,-22.79763 11.13116,-8.1509 8.59745,20.10878 6.28667,42.32849 7.46004,63.65091 3.55346,-2.27634 10.89307,-13.87864 12.38503,-7.79911 1.00276,12.71544 0.45165,25.55868 -4.21653,37.55595 -4.20946,11.99593 -12.70749,22.15839 -17.3107,33.74315 6.8706,-1.45533 23.73187,-10.29361 14.80979,3.6615 -8.84011,17.61303 -25.1822,29.4995 -40.16754,41.40193 5.05262,1.69214 20.96396,-0.96991 10.13247,7.56352 -15.72563,16.4075 -37.83005,24.46723 -59.65191,28.84144 -3.06617,2.89118 16.05956,4.86665 4.02831,9.8915 -16.90981,9.91001 -37.7849,9.52483 -56.66401,7.25174 -19.67643,-3.39448 -39.58827,-9.97696 -54.59781,-23.647 -4.86662,9.90522 -3.5143,23.43497 -7.69057,34.37588 -3.56848,14.28266 -4.76133,29.15964 -1.03777,43.55718 2.5238,15.51248 22.0981,62.42885 32.08531,74.45468 -6.90674,9.54227 -20.88976,-2.91707 -29.58481,4.9975 -6.19802,4.56415 -6.00761,-5.8736 -8.40839,-10.61216 z" />
    </g>
    <path
       inkscape:connector-curvature="0"
       style="fill:#008f4c;fill-rule:evenodd;stroke:#000000;stroke-width:1.50000000000000000;stroke-linecap:butt;stroke-linejoin:miter;stroke-miterlimit:4;stroke-opacity:1;stroke-dasharray:none"
       id="path3449"
       d="m 246.7388,202.44198 c 6.72927,-61.92928 3.15532,-123.958934 3.17689,-186.024815 3.71223,61.772945 7.69971,123.545885 7.76574,185.318835" />
    <path
       inkscape:connector-curvature="0"
       style="fill:#008f4c;fill-rule:evenodd;stroke:#000000;stroke-width:1.50000000000000000;stroke-linecap:butt;stroke-linejoin:miter;stroke-miterlimit:4;stroke-opacity:1;stroke-dasharray:none"
       id="path3451"
       d="m 248.85673,170.79767 c -15.29163,-0.1086 -29.60026,10.09587 -46.59445,6.58214 -18.67781,-2.36548 -29.30899,-7.94962 -43.77055,-12.0016" />
    <path
       inkscape:connector-curvature="0"
       style="fill:#008f4c;fill-rule:evenodd;stroke:#000000;stroke-width:1.50000000000000000;stroke-linecap:butt;stroke-linejoin:miter;stroke-miterlimit:4;stroke-opacity:1;stroke-dasharray:none"
       id="path3453"
       d="m 257.67779,170.23263 c 15.29163,-0.1086 29.95689,10.30792 46.95108,6.79419 18.67781,-2.36548 24.72014,-8.6556 39.1817,-12.70758" />
    <path
       inkscape:connector-curvature="0"
       style="fill:#008f4c;fill-rule:evenodd;stroke:#000000;stroke-width:1.50000000000000000;stroke-linecap:butt;stroke-linejoin:miter;stroke-miterlimit:4;stroke-opacity:1;stroke-dasharray:none"
       id="path3455"
       d="m 250.62167,145.61087 c -15.29163,-0.1086 -29.60026,0.33683 -46.59445,-3.1769 -18.67781,-2.36548 -30.36795,-21.13188 -43.77055,-26.59581" />
    <path
       inkscape:connector-curvature="0"
       style="fill:#008f4c;fill-rule:evenodd;stroke:#000000;stroke-width:1.50000000000000000;stroke-linecap:butt;stroke-linejoin:miter;stroke-miterlimit:4;stroke-opacity:1;stroke-dasharray:none"
       id="path3457"
       d="m 256.97545,145.25788 c 15.29163,-0.1086 29.60026,0.33683 46.59445,-3.1769 18.67781,-2.36548 24.79038,-20.33508 38.19298,-25.79901" />
    <path
       inkscape:connector-curvature="0"
       style="fill:#008f4c;fill-rule:evenodd;stroke:#000000;stroke-width:1.50000000000000000;stroke-linecap:butt;stroke-linejoin:miter;stroke-miterlimit:4;stroke-opacity:1;stroke-dasharray:none"
       id="path3459"
       d="m 248.92839,177.98688 c -14.31455,4.43894 -29.78654,14.2338 -39.94267,23.89427" />
    <path
       inkscape:connector-curvature="0"
       style="fill:#008f4c;fill-rule:evenodd;stroke:#000000;stroke-width:1.50000000000000000;stroke-linecap:butt;stroke-linejoin:miter;stroke-miterlimit:4;stroke-opacity:1;stroke-dasharray:none"
       id="path3461"
       d="m 257.48753,177.63025 c 10.24725,3.13875 23.75204,13.03191 31.74016,23.18101" />
    <path
       inkscape:connector-curvature="0"
       style="fill:#008f4c;fill-rule:evenodd;stroke:#000000;stroke-width:1.50000000000000000;stroke-linecap:butt;stroke-linejoin:miter;stroke-miterlimit:4;stroke-opacity:1;stroke-dasharray:none"
       id="path3463"
       d="m 249.28502,174.77721 c -19.6147,5.32205 -39.22941,8.24088 -58.84411,20.68459" />
    <path
       inkscape:connector-curvature="0"
       style="fill:#008f4c;fill-rule:evenodd;stroke:#000000;stroke-width:1.50000000000000000;stroke-linecap:butt;stroke-linejoin:miter;stroke-miterlimit:4;stroke-opacity:1;stroke-dasharray:none"
       id="path3465"
       d="m 257.1309,174.42057 c 15.61511,1.4578 34.78947,6.98331 57.06095,16.0484" />
    <path
       inkscape:connector-curvature="0"
       style="fill:#008f4c;fill-rule:evenodd;stroke:#000000;stroke-width:1.50000000000000000;stroke-linecap:butt;stroke-linejoin:miter;stroke-miterlimit:4;stroke-opacity:1;stroke-dasharray:none"
       id="path3467"
       d="m 249.28502,160.15534 c -13.13181,2.41384 -29.78328,2.81645 -49.5717,1.42652 -29.00414,-4.60999 -27.88886,-12.56658 -41.36919,-18.90144" />
    <path
       inkscape:connector-curvature="0"
       style="fill:#008f4c;fill-rule:evenodd;stroke:#000000;stroke-width:1.50000000000000000;stroke-linecap:butt;stroke-linejoin:miter;stroke-miterlimit:4;stroke-opacity:1;stroke-dasharray:none"
       id="path3469"
       d="m 257.48753,160.15534 c 13.13181,2.41384 29.78328,2.81645 49.5717,1.42652 29.00414,-4.60999 27.88886,-12.56658 41.36919,-18.90144" />
    <path
       inkscape:connector-curvature="0"
       style="fill:#008f4c;fill-rule:evenodd;stroke:#000000;stroke-width:1.50000000000000000;stroke-linecap:butt;stroke-linejoin:miter;stroke-miterlimit:4;stroke-opacity:1;stroke-dasharray:none"
       id="path3471"
       d="m 249.99828,132.33813 c -12.24433,-0.0333 -24.48866,-1.64346 -36.73299,-6.41936 -15.69089,-5.82497 -22.35838,-22.70551 -29.60036,-28.530482" />
    <path
       inkscape:connector-curvature="0"
       style="fill:#008f4c;fill-rule:evenodd;stroke:#000000;stroke-width:1.50000000000000000;stroke-linecap:butt;stroke-linejoin:miter;stroke-miterlimit:4;stroke-opacity:1;stroke-dasharray:none"
       id="path3473"
       d="m 256.77426,132.33813 c 12.24433,-0.0333 24.48866,-1.64346 36.73299,-6.41936 15.69089,-5.82497 21.28849,-21.99225 28.53047,-27.817217" />
    <path
       inkscape:connector-curvature="0"
       style="fill:#008f4c;fill-rule:evenodd;stroke:#000000;stroke-width:1.50000000000000000;stroke-linecap:butt;stroke-linejoin:miter;stroke-miterlimit:4;stroke-opacity:1;stroke-dasharray:none"
       id="path3475"
       d="M 249.99828,120.56931 C 195.87213,108.44386 215.49566,91.682202 202.923,79.556749" />
    <path
       inkscape:connector-curvature="0"
       style="fill:#008f4c;fill-rule:evenodd;stroke:#000000;stroke-width:1.50000000000000000;stroke-linecap:butt;stroke-linejoin:miter;stroke-miterlimit:4;stroke-opacity:1;stroke-dasharray:none"
       id="path3477"
       d="M 256.061,119.85605 C 310.18715,107.7306 289.49373,93.108725 302.06639,80.983272" />
    <path
       inkscape:connector-curvature="0"
       style="fill:#008f4c;fill-rule:evenodd;stroke:#000000;stroke-width:1.50000000000000000;stroke-linecap:butt;stroke-linejoin:miter;stroke-miterlimit:4;stroke-opacity:1;stroke-dasharray:none"
       id="path3479"
       d="M 249.99828,87.759262 C 233.9381,83.85356 232.6833,71.872192 226.10401,62.795095" />
    <path
       inkscape:connector-curvature="0"
       style="fill:#008f4c;fill-rule:evenodd;stroke:#000000;stroke-width:1.50000000000000000;stroke-linecap:butt;stroke-linejoin:miter;stroke-miterlimit:4;stroke-opacity:1;stroke-dasharray:none"
       id="path3481"
       d="m 254.63448,87.402632 c 16.06018,-3.905703 17.31498,-15.887071 23.89427,-24.964168" />
    <path
       inkscape:connector-curvature="0"
       style="fill:#008f4c;fill-rule:evenodd;stroke:#000000;stroke-width:1.50000000000000000;stroke-linecap:butt;stroke-linejoin:miter;stroke-miterlimit:4;stroke-opacity:1;stroke-dasharray:none"
       id="path3483"
       d="M 250.35491,104.87754 C 227.97558,101.79246 222.49209,87.774783 215.76171,74.563916" />
    <path
       inkscape:connector-curvature="0"
       style="fill:#008f4c;fill-rule:evenodd;stroke:#000000;stroke-width:1.50000000000000000;stroke-linecap:butt;stroke-linejoin:miter;stroke-miterlimit:4;stroke-opacity:1;stroke-dasharray:none"
       id="path3485"
       d="m 255.70437,104.87754 c 24.72236,-4.41871 23.29779,-18.4705 31.74016,-28.887101" />
  </g>
  <g
     transform="translate(-24,-419.375)"
     id="layer2-1"
     style="fill:none;stroke:#000000;stroke-width:3;stroke-miterlimit:4;stroke-opacity:1;stroke-dasharray:none;display:inline">
    <path
       inkscape:connector-curvature="0"
       d="m 524.5,420.85968 0,277.36622 C 513.4332,935.94225 297.6835,1010.6244 274.928,1019.8597 251.1825,1010.1062 42.104,937.52718 25.5,698.2259 l 0,-277.36622 249.5,0 249.5,0"
       id="path979"
       style="fill:none;stroke:#000000;stroke-width:3;stroke-linecap:butt;stroke-linejoin:miter;stroke-miterlimit:4;stroke-opacity:1;stroke-dasharray:none;stroke-dashoffset:0;marker:none;visibility:visible;display:inline;overflow:visible;enable-background:accumulate" />
  </g>
</svg>
