<?xml version="1.0" encoding="UTF-8" standalone="no"?>
<!-- Created with Inkscape (http://www.inkscape.org/) -->
<svg
   xmlns:svg="http://www.w3.org/2000/svg"
   xmlns="http://www.w3.org/2000/svg"
   version="1.0"
   width="712"
   height="915"
   id="svg3194">
  <defs
     id="defs3196" />
  <g
     transform="translate(-108.50178,-177.37461)"
     id="g2888">
    <g
       transform="matrix(1,0,0,0.948723,1.98706,-70.025894)"
       id="g9124">
      <g
         transform="matrix(0.3926312,0,0,0.3926312,-779.60271,412.54467)"
         id="g9126">
        <g
           transform="matrix(-0.748008,0.507597,0.4813713,0.8831979,3520.4688,-1419.3176)"
           id="g9134" />
      </g>
      <g
         transform="matrix(-0.3926312,0,0,0.3926312,1544.9142,412.54467)"
         id="g9142">
        <g
           transform="matrix(-0.748008,0.507597,0.4813713,0.8831979,3520.4688,-1419.3176)"
           id="g9150" />
      </g>
    </g>
    <g
       transform="matrix(1.2925189,-7.10784e-2,7.10784e-2,1.2925189,89.76383,1276.342)"
       id="g9909"
       style="fill:#e3e4e5;fill-opacity:1" />
    <g
       transform="matrix(1.2903964,0,0,1.2903964,-31.839878,-150.28592)"
       id="g2981">
      <path
         d="M 596.59448,411.78516 C 588.47651,426.86818 578.76674,446.19247 571.26273,443.82892 C 569.64427,443.18225 569.11779,439.42758 571.53958,427.28173 L 586.2126,399.83441 C 588.24282,396.71456 594.01053,399.07728 594.37968,402.32963 L 596.59448,411.78516 z"
         id="path8972"
         style="fill:#eac102;fill-rule:evenodd;stroke:#000000;stroke-width:0.77495563px;stroke-linecap:butt;stroke-linejoin:miter;stroke-opacity:1" />
      <g
         id="g2970">
        <path
           d="M 172.6871,411.78516 C 180.80506,426.86818 190.51483,446.19247 198.01884,443.82892 C 199.6373,443.18225 200.16378,439.42758 197.74199,427.28173 L 183.06897,399.83441 C 181.03876,396.71456 175.27104,399.07728 174.90189,402.32963 L 172.6871,411.78516 z"
           id="path8966"
           style="fill:#eac102;fill-rule:evenodd;stroke:#000000;stroke-width:0.77495563px;stroke-linecap:butt;stroke-linejoin:miter;stroke-opacity:1" />
        <path
           d="M 185.11254,428.45914 L 187.78734,421.02082 C 182.36318,414.39971 173.98105,402.3284 165.00244,387.32137 C 163.1462,384.2158 156.78605,386.04834 158.30321,389.49816 C 170.42334,411.27491 179.03598,422.73117 185.11254,428.45914 z"
           id="path8968"
           style="fill:#eac102;fill-rule:evenodd;stroke:#000000;stroke-width:0.77495563px;stroke-linecap:butt;stroke-linejoin:miter;stroke-opacity:1" />
        <g
           transform="matrix(0.3926312,0,0,0.3487948,-776.35414,331.25864)"
           id="g8978">
          <path
             d="M 2259.2204,-21.283662 L 2272.7331,-31.983432 C 2311.4576,-42.015166 2345.9865,-5.1561647 2345.7584,10.682852 C 2355.4378,1.8771125 2365.1172,4.8946739 2374.7966,5.4031796 C 2369.0715,24.323836 2374.6588,38.417724 2367.933,58.727869 C 2376.9018,61.51248 2383.922,65.466286 2385.8839,72.455017 L 2394.8593,66.647377 L 2405.9466,66.11941 C 2408.0682,118.87278 2390.8664,107.27819 2394.3314,126.83564 L 2412.8102,104.13305 L 2432.873,106.24492 C 2442.6926,108.10919 2445.4997,119.70711 2456.1035,121.028 C 2448.6204,131.14379 2444.0648,148.93881 2437.0967,161.15351 C 2428.5411,167.36573 2421.0214,166.32701 2413.8661,162.73741 C 2437.1998,171.32522 2443.3152,191.47487 2452.4078,202.33495 C 2442.8483,202.86292 2434.266,203.91886 2430.2332,204.44683 C 2444.9709,225.47479 2453.3864,242.30591 2467.7188,254.07574 L 2459.2713,255.65964 L 2415.45,234.01299 L 2378.4923,195.99935 L 2333.0872,125.77971 L 2331.5033,14.90659 C 2308.3522,3.1126595 2311.8969,-24.252425 2259.2204,-21.283662 z"
             id="path8980"
             style="fill:#eac102;fill-rule:evenodd;stroke:#000000;stroke-width:2.09410977;stroke-linecap:round;stroke-linejoin:round;stroke-miterlimit:4;stroke-dasharray:none;stroke-opacity:1" />
          <path
             d="M 2257.8362,-20.616681 C 2320.8919,-14.029177 2320.8477,75.112868 2333.4215,127.79032 L 2373.7398,196.05653 C 2399.2369,220.69513 2415.7195,251.3466 2431.4908,254.96012 C 2446.7667,258.46014 2445.7086,251.94142 2461.2488,255.61765 C 2430.8241,242.09199 2444.7548,210.8707 2381.5285,191.93307 C 2401.9742,180.60654 2401.973,211.81094 2442.9223,202.92897 C 2431.6909,174.84125 2407.5516,173.48559 2396.6479,163.06883 C 2413.3552,157.67181 2415.1875,168.41133 2427.3448,163.52699 C 2440.8438,158.10362 2437.7298,137.19185 2448.4202,123.2087 C 2434.4273,117.03541 2423.0526,98.644076 2405.8111,107.63117 C 2399.8195,112.59968 2390.997,129.36741 2381.0704,133.28827 C 2376.8935,110.90798 2390.9375,108.9002 2393.8989,97.551597 C 2396.8332,86.306746 2392.1444,82.889922 2394.8152,66.854712 C 2349.3929,83.616844 2366.535,113.93871 2345.784,127.22348 C 2345.5707,95.009209 2354.6819,108.70922 2371.4489,73.268986 C 2365.119,63.848012 2360.6556,65.626272 2355.4133,62.73125 C 2363.7426,44.729945 2356.2087,33.76933 2365.0347,8.6680782 C 2348.3559,3.0956661 2342.6789,12.13391 2338.0031,17.831328 C 2336.3081,2.2387072 2299.8417,-48.125251 2257.8362,-20.616681 z"
             id="path8982"
             style="fill:#eac102;fill-rule:evenodd;stroke:#000000;stroke-width:2.09411001px;stroke-linecap:butt;stroke-linejoin:round;stroke-opacity:1" />
          <path
             d="M 2348.0296,39.81348 C 2334.5871,69.907521 2335.9366,100.00156 2336.9179,130.0956 M 2369.5584,114.12261 C 2366.8543,129.24347 2357.3088,137.52288 2347.3351,145.37411 M 2416.7829,136.3459 C 2392.8246,138.12342 2391.0707,153.39837 2355.6689,158.56919 M 2362.6136,168.29188 C 2379.7719,171.73644 2396.7323,175.37895 2408.4492,184.26487 M 2371.6419,189.8207 C 2395.0107,218.01822 2414.6198,220.55458 2421.6443,234.96176"
             id="path8984"
             style="fill:none;fill-rule:evenodd;stroke:#000000;stroke-width:1.04705501;stroke-linecap:butt;stroke-linejoin:miter;stroke-miterlimit:4;stroke-dasharray:none;stroke-opacity:1" />
          <g
             transform="matrix(-0.9278259,0.6104274,0.6104274,0.9278259,3844.2704,-1752.9019)"
             id="g8986">
            <path
               d="M 2069.0625,730.6875 C 2069.2863,730.69541 2069.4934,730.78125 2069.7188,730.78125 C 2082.4774,730.78125 2092.8126,718.0152 2092.8125,702.28125 C 2092.8125,686.5473 2082.4773,673.78126 2069.7188,673.78125 C 2069.4934,673.78125 2069.2863,673.86709 2069.0625,673.875 L 2069.0625,730.6875 z"
               id="path8988"
               style="opacity:1;fill:#e3e4e5;fill-opacity:1;fill-rule:nonzero;stroke:#000000;stroke-width:1.88552809;stroke-linecap:butt;stroke-linejoin:miter;marker:none;marker-start:none;marker-mid:none;marker-end:none;stroke-miterlimit:4;stroke-dasharray:none;stroke-dashoffset:0;stroke-opacity:1;visibility:visible;display:inline;overflow:visible;enable-background:accumulate" />
            <path
               d="M 2066.2861,668.73151 L 2073.2364,668.73151 L 2073.2364,735.26088 L 2066.2861,735.26088 C 2063.8276,709.57117 2063.4237,685.13585 2066.2861,668.73151 z"
               id="path8990"
               style="fill:#eac102;fill-opacity:1;fill-rule:nonzero;stroke:#000000;stroke-width:1.88552809;stroke-linecap:butt;stroke-linejoin:miter;marker:none;marker-start:none;marker-mid:none;marker-end:none;stroke-miterlimit:4;stroke-dashoffset:0;stroke-opacity:1;visibility:visible;display:inline;overflow:visible;enable-background:accumulate" />
          </g>
        </g>
      </g>
      <g
         id="g2960">
        <path
           d="M 581.41241,421.11394 L 584.08717,428.55227 C 590.16828,422.85274 598.80361,411.38029 610.98241,389.49816 C 612.49957,386.04834 606.13938,384.2158 604.28318,387.32137 C 595.26255,402.39861 586.83347,414.51402 581.41241,421.11394 z"
           id="path8974"
           style="fill:#eac102;fill-rule:evenodd;stroke:#000000;stroke-width:0.77495563px;stroke-linecap:butt;stroke-linejoin:miter;stroke-opacity:1" />
        <g
           transform="matrix(-0.3926312,0,0,0.3487948,1545.6397,331.25864)"
           id="g8992">
          <path
             d="M 2259.2204,-21.283662 L 2272.7331,-31.983432 C 2311.4576,-42.015166 2345.9865,-5.1561647 2345.7584,10.682852 C 2355.4378,1.8771125 2365.1172,4.8946739 2374.7966,5.4031796 C 2369.0715,24.323836 2374.6588,38.417724 2367.933,58.727869 C 2376.9018,61.51248 2383.922,65.466286 2385.8839,72.455017 L 2394.8593,66.647377 L 2405.9466,66.11941 C 2408.0682,118.87278 2390.8664,107.27819 2394.3314,126.83564 L 2412.8102,104.13305 L 2432.873,106.24492 C 2442.6926,108.10919 2445.4997,119.70711 2456.1035,121.028 C 2448.6204,131.14379 2444.0648,148.93881 2437.0967,161.15351 C 2428.5411,167.36573 2421.0214,166.32701 2413.8661,162.73741 C 2437.1998,171.32522 2443.3152,191.47487 2452.4078,202.33495 C 2442.8483,202.86292 2434.266,203.91886 2430.2332,204.44683 C 2444.9709,225.47479 2453.3864,242.30591 2467.7188,254.07574 L 2459.2713,255.65964 L 2415.45,234.01299 L 2378.4923,195.99935 L 2333.0872,125.77971 L 2331.5033,14.90659 C 2308.3522,3.1126595 2311.8969,-24.252425 2259.2204,-21.283662 z"
             id="path8994"
             style="fill:#eac102;fill-rule:evenodd;stroke:#000000;stroke-width:2.09410977;stroke-linecap:round;stroke-linejoin:round;stroke-miterlimit:4;stroke-dasharray:none;stroke-opacity:1" />
          <path
             d="M 2257.8362,-20.616681 C 2320.8919,-14.029177 2320.8477,75.112868 2333.4215,127.79032 L 2373.7398,196.05653 C 2399.2369,220.69513 2415.7195,251.3466 2431.4908,254.96012 C 2446.7667,258.46014 2445.7086,251.94142 2461.2488,255.61765 C 2430.8241,242.09199 2444.7548,210.8707 2381.5285,191.93307 C 2401.9742,180.60654 2401.973,211.81094 2442.9223,202.92897 C 2431.6909,174.84125 2407.5516,173.48559 2396.6479,163.06883 C 2413.3552,157.67181 2415.1875,168.41133 2427.3448,163.52699 C 2440.8438,158.10362 2437.7298,137.19185 2448.4202,123.2087 C 2434.4273,117.03541 2423.0526,98.644076 2405.8111,107.63117 C 2399.8195,112.59968 2390.997,129.36741 2381.0704,133.28827 C 2376.8935,110.90798 2390.9375,108.9002 2393.8989,97.551597 C 2396.8332,86.306746 2392.1444,82.889922 2394.8152,66.854712 C 2349.3929,83.616844 2366.535,113.93871 2345.784,127.22348 C 2345.5707,95.009209 2354.6819,108.70922 2371.4489,73.268986 C 2365.119,63.848012 2360.6556,65.626272 2355.4133,62.73125 C 2363.7426,44.729945 2356.2087,33.76933 2365.0347,8.6680782 C 2348.3559,3.0956661 2342.6789,12.13391 2338.0031,17.831328 C 2336.3081,2.2387072 2299.8417,-48.125251 2257.8362,-20.616681 z"
             id="path8996"
             style="fill:#eac102;fill-rule:evenodd;stroke:#000000;stroke-width:2.09411001px;stroke-linecap:butt;stroke-linejoin:round;stroke-opacity:1" />
          <path
             d="M 2348.0296,39.81348 C 2334.5871,69.907521 2335.9366,100.00156 2336.9179,130.0956 M 2369.5584,114.12261 C 2366.8543,129.24347 2357.3088,137.52288 2347.3351,145.37411 M 2416.7829,136.3459 C 2392.8246,138.12342 2391.0707,153.39837 2355.6689,158.56919 M 2362.6136,168.29188 C 2379.7719,171.73644 2396.7323,175.37895 2408.4492,184.26487 M 2371.6419,189.8207 C 2395.0107,218.01822 2414.6198,220.55458 2421.6443,234.96176"
             id="path8998"
             style="fill:none;fill-rule:evenodd;stroke:#000000;stroke-width:1.04705501;stroke-linecap:butt;stroke-linejoin:miter;stroke-miterlimit:4;stroke-dasharray:none;stroke-opacity:1" />
          <g
             transform="matrix(-0.9278259,0.6104274,0.6104274,0.9278259,3844.2704,-1752.9019)"
             id="g9000">
            <path
               d="M 2069.0625,730.6875 C 2069.2863,730.69541 2069.4934,730.78125 2069.7188,730.78125 C 2082.4774,730.78125 2092.8126,718.0152 2092.8125,702.28125 C 2092.8125,686.5473 2082.4773,673.78126 2069.7188,673.78125 C 2069.4934,673.78125 2069.2863,673.86709 2069.0625,673.875 L 2069.0625,730.6875 z"
               id="path9002"
               style="opacity:1;fill:#e3e4e5;fill-opacity:1;fill-rule:nonzero;stroke:#000000;stroke-width:1.88552809;stroke-linecap:butt;stroke-linejoin:miter;marker:none;marker-start:none;marker-mid:none;marker-end:none;stroke-miterlimit:4;stroke-dasharray:none;stroke-dashoffset:0;stroke-opacity:1;visibility:visible;display:inline;overflow:visible;enable-background:accumulate" />
            <path
               d="M 2066.2861,668.73151 L 2073.2364,668.73151 L 2073.2364,735.26088 L 2066.2861,735.26088 C 2063.8276,709.57117 2063.4237,685.13585 2066.2861,668.73151 z"
               id="path9004"
               style="fill:#eac102;fill-opacity:1;fill-rule:nonzero;stroke:#000000;stroke-width:1.88552809;stroke-linecap:butt;stroke-linejoin:miter;marker:none;marker-start:none;marker-mid:none;marker-end:none;stroke-miterlimit:4;stroke-dashoffset:0;stroke-opacity:1;visibility:visible;display:inline;overflow:visible;enable-background:accumulate" />
          </g>
        </g>
      </g>
      <path
         d="M 384.69173,355.7638 C 383.32303,355.7806 381.94003,356.64275 381.89423,358.28981 C 380.63393,374.59315 373.96163,400.00532 349.19532,404.60763 C 324.63092,409.17245 302.97252,374.47336 302.05512,360.67612 C 302.06872,358.6164 300.40212,357.81687 298.71772,357.90567 C 296.80882,358.00631 294.87132,359.24537 295.34352,361.0719 C 299.00732,379.90993 295.16109,403.86231 278.16592,408.19293 C 257.32442,413.50365 228.37874,369.0514 223.54102,343.43929 C 222.31952,338.71577 215.28752,340.56651 216.63312,344.03296 C 231.94655,370.00719 231.17945,412.28867 222.00742,416.14344 C 212.60532,419.00817 192.99392,396.14178 181.98352,375.98347 C 180.11102,373.25544 173.21622,374.67218 174.85482,378.1719 C 182.86812,393.65791 190.82592,409.14058 191.19812,424.88551 C 190.27862,423.97233 189.08892,422.60982 187.78712,421.02084 L 185.11232,428.45916 C 191.57282,434.54909 195.16402,434.15638 196.96492,432.545 C 200.56782,429.32131 200.63942,422.6543 195.81152,407.79715 C 204.69852,416.76649 218.66922,427.76945 227.66372,421.70763 C 236.65832,415.64582 237.48722,404.71805 236.66972,391.48871 C 247.67292,405.1519 264.40342,419.24744 279.41742,415.74766 C 294.62892,412.20184 301.26852,398.79633 303.30662,381.74555 C 311.68852,397.20028 328.96222,414.86916 350.25062,412.16237 C 370.70223,409.56197 382.45043,386.7482 384.64263,379.24283 C 386.83483,386.7482 398.59523,409.56197 419.04693,412.16237 C 440.33533,414.86916 457.59673,397.20028 465.97863,381.74555 C 468.01673,398.79633 474.65623,412.20184 489.86783,415.74766 C 504.88173,419.24744 521.61223,405.1519 532.61553,391.48871 C 531.79793,404.71805 532.62683,415.64582 541.62153,421.70763 C 550.61603,427.76945 564.58673,416.76649 573.47373,407.79715 C 568.64573,422.6543 568.71733,429.32131 572.32033,432.545 C 574.11303,434.14904 577.68203,434.55534 584.08703,428.55229 L 581.41223,421.11396 C 580.14253,422.65975 578.98873,423.99013 578.08713,424.88551 C 578.45933,409.14058 586.41703,393.65791 594.43033,378.1719 C 596.06903,374.67218 589.18643,373.25544 587.31393,375.98347 C 576.30353,396.14178 556.69223,419.00817 547.29013,416.14344 C 537.28503,412.85457 537.91478,371.00485 552.65203,344.03296 C 553.99773,340.56651 546.96573,338.71577 545.74423,343.43929 C 542.54387,369.45651 513.69125,412.9803 491.13153,408.19293 C 473.97532,404.55223 470.27783,379.90993 473.94163,361.0719 C 474.83053,357.63372 467.21333,356.28205 467.24243,360.67612 C 466.32503,374.47336 444.65433,409.17245 420.08983,404.60763 C 395.32363,400.00532 388.66383,374.59315 387.40333,358.28981 C 387.41453,356.57555 386.06033,355.747 384.69173,355.7638 z"
         id="path9006"
         style="fill:#eac102;fill-rule:evenodd;stroke:#000000;stroke-width:0.77495575px;stroke-linecap:butt;stroke-linejoin:miter;stroke-opacity:1" />
      <g
         id="g2938">
        <path
           d="M 338.43547,313.89342 C 338.43547,313.89342 349.79118,311.81732 355.93059,321.21911 C 361.96308,330.45708 376.67817,329.49005 376.67817,329.49005 L 370.45391,350.28557 L 330.34196,334.68893 C 330.06289,334.68893 332.8032,330.7653 337.94938,331.14424 C 343.09555,331.52318 346.01041,338.3325 353.85584,335.16156 L 338.43547,313.89342 z"
           id="path9038"
           style="fill:#eac102;fill-rule:evenodd;stroke:#000000;stroke-width:0.77495581px;stroke-linecap:butt;stroke-linejoin:miter;stroke-opacity:1" />
        <path
           d="M 430.84983,313.89342 C 430.84983,313.89342 419.49413,311.81732 413.35472,321.21911 C 407.32223,330.45708 392.60713,329.49005 392.60713,329.49005 L 398.8314,350.28557 L 438.94335,334.68893 C 439.22242,334.68893 436.48211,330.7653 431.33593,331.14424 C 426.18975,331.52318 423.2749,338.3325 415.42946,335.16156 L 430.84983,313.89342 z"
           id="path9040"
           style="fill:#eac102;fill-rule:evenodd;stroke:#000000;stroke-width:0.77495581px;stroke-linecap:butt;stroke-linejoin:miter;stroke-opacity:1" />
        <path
           d="M 384.54449,259.20374 C 377.64368,266.84489 370.60903,275.43357 370.22887,286.72065 C 364.69615,280.80895 359.16029,284.94325 353.62762,286.00265 C 356.40721,289.83798 353.54874,300.3492 357.31405,307.51735 C 353.28674,307.84191 351.46845,311.48489 349.01956,313.65181 C 350.66837,319.93922 369.48501,320.82908 372.76018,332.31971 C 352.27302,330.22539 358.76145,315.03267 338.18149,313.89114 C 334.89206,331.2648 347.99817,327.82548 349.01956,337.2827 C 342.76218,338.48561 341.19961,332.00635 335.74841,332.26932 C 328.10828,332.6379 324.80197,341.20329 319.97049,344.13515 C 327.41833,346.21502 330.21609,353.48522 337.68997,355.2452 C 341.72912,356.19637 343.63112,348.87419 349.94119,352.17167 C 343.75255,360.96892 337.57932,358.38424 340.7128,370.83958 C 364.13684,372.95895 354.56368,356.5971 370.22887,359.02413 C 346.56776,373.94772 359.56767,379.61913 353.62762,391.17021 C 365.81683,386.07591 370.2013,389.56158 384.64279,378.95167 C 399.08428,389.56158 403.46879,386.07591 415.65796,391.17021 C 409.71791,379.61913 422.71782,373.94772 399.05672,359.02413 C 414.72191,356.5971 405.14878,372.95895 428.57278,370.83958 C 431.70627,358.38424 425.53304,360.96892 419.34439,352.17167 C 425.65446,348.87419 427.55647,356.19637 431.59561,355.2452 C 439.06949,353.48522 441.86717,346.21502 449.3151,344.13515 C 444.48361,341.20329 441.17731,332.6379 433.53717,332.26932 C 428.08597,332.00635 426.5234,338.48561 420.26602,337.2827 C 421.28745,327.82548 434.39353,331.2648 431.10409,313.89114 C 410.52409,315.03267 417.01245,330.22539 396.52541,332.31971 C 399.80057,320.82908 418.61721,319.93922 420.26602,313.65181 C 417.81713,311.48489 415.99885,307.84191 411.97153,307.51735 C 415.73684,300.3492 412.87841,289.83798 415.65796,286.00265 C 410.12529,284.94325 404.58943,280.80895 399.05672,286.72065 C 398.67655,275.43357 391.64194,266.84489 384.7411,259.20374 L 384.64279,259.10297 L 384.54449,259.20374 z"
           id="path9042"
           style="fill:#eac102;fill-rule:evenodd;stroke:#000000;stroke-width:0.77495581px;stroke-linecap:butt;stroke-linejoin:miter;stroke-opacity:1" />
        <path
           d="M 384.8013,333.73678 C 384.08804,332.42063 384.8013,270.14161 384.8013,270.14161 M 381.06147,356.0246 C 379.21275,363.49278 372.63836,375.44826 364.92587,379.68837 M 373.02469,349.31938 C 366.90565,349.6375 355.58157,355.94695 351.0527,358.90719 M 371.95475,346.47368 C 350.32336,348.48842 341.4957,339.53266 334.80374,342.3237 M 372.85054,340.01955 C 372.85054,340.01955 367.53948,338.43155 361.31128,336.68579 C 357.30902,335.56395 354.88576,330.54207 352.33078,327.78257 M 381.8356,332.38491 C 381.8356,332.38491 381.51516,328.23236 376.66878,316.5956 C 371.97161,305.31749 365.86547,299.30249 365.86547,299.30249 M 388.22411,356.0246 C 390.07287,363.49278 396.64719,375.44826 404.35971,379.68837 M 396.26093,349.31938 C 402.37997,349.6375 413.70406,355.94695 418.23288,358.90719 M 397.33088,346.47368 C 418.96226,348.48842 427.78992,339.53266 434.48188,342.3237 M 396.43508,340.01955 C 396.43508,340.01955 401.74614,338.43155 407.97434,336.68579 C 411.97657,335.56395 414.39986,330.54207 416.95484,327.78257 M 387.44994,332.38491 C 387.44994,332.38491 387.77042,328.23236 392.61685,316.5956 C 397.31401,305.31749 403.42015,299.30249 403.42015,299.30249"
           id="path9044"
           style="fill:none;fill-rule:evenodd;stroke:#000000;stroke-width:0.3874779;stroke-linecap:round;stroke-linejoin:miter;stroke-miterlimit:4;stroke-dasharray:none;stroke-opacity:1" />
        <path
           d="M 2989.9221,81.516876 C 2989.9221,96.73464 2977.5857,109.07108 2962.3679,109.07108 C 2947.1501,109.07108 2934.8137,96.73464 2934.8137,81.516876 C 2934.8137,66.299112 2947.1501,53.962676 2962.3679,53.962676 C 2977.5857,53.962676 2989.9221,66.299112 2989.9221,81.516876 z"
           transform="matrix(0.5156884,0,0,0.4931367,-1142.6815,304.53326)"
           id="path9048"
           style="fill:#eac102;fill-opacity:1;fill-rule:evenodd;stroke:#000000;stroke-width:1.53673708;stroke-linecap:round;stroke-linejoin:round;marker:none;marker-start:none;marker-mid:none;marker-end:none;stroke-miterlimit:4;stroke-dasharray:none;stroke-dashoffset:0;stroke-opacity:1;visibility:visible;display:inline;overflow:visible;enable-background:accumulate" />
        <path
           d="M 2989.9221,81.516876 C 2989.9221,96.73464 2977.5857,109.07108 2962.3679,109.07108 C 2947.1501,109.07108 2934.8137,96.73464 2934.8137,81.516876 C 2934.8137,66.299112 2947.1501,53.962676 2962.3679,53.962676 C 2977.5857,53.962676 2989.9221,66.299112 2989.9221,81.516876 z"
           transform="matrix(0.409952,0,0,0.391925,-829.45159,312.78372)"
           id="path9050"
           style="fill:#e3e4e5;fill-opacity:1;fill-rule:evenodd;stroke:#000000;stroke-width:1.93334293;stroke-linecap:round;stroke-linejoin:round;marker:none;marker-start:none;marker-mid:none;marker-end:none;stroke-miterlimit:4;stroke-dasharray:none;stroke-dashoffset:0;stroke-opacity:1;visibility:visible;display:inline;overflow:visible;enable-background:accumulate" />
      </g>
      <path
         d="M 384.46833,410.76611 C 327.85572,411.33058 270.59252,411.3832 214.99332,422.70669 C 202.58582,426.44552 184.84722,428.53331 180.18972,441.77659 C 178.66182,452.838 192.69032,457.52597 201.45312,460.56594 C 243.19752,472.52938 287.30612,473.5422 330.55842,475.41244 C 397.84893,476.70113 465.57313,477.22427 532.36473,468.29064 C 550.61183,464.92542 570.70413,462.84845 585.70923,451.51081 C 594.66883,443.13191 584.75133,431.41591 574.84683,429.00607 C 540.86963,416.55925 503.81093,415.22362 467.87493,412.68946 C 440.10163,411.24245 412.28003,410.78449 384.46833,410.76611 z"
         id="path9052"
         style="fill:#eac102;fill-rule:evenodd;stroke:#000000;stroke-width:0.77495575px;stroke-linecap:butt;stroke-linejoin:miter;stroke-opacity:1" />
      <path
         d="M 384.64293,424.36335 C 353.78581,424.36335 327.76301,424.93715 305.83044,425.93467 C 301.44377,426.13418 297.20907,426.35638 293.14294,426.58692 C 244.37166,429.3537 218.22029,434.24488 204.20544,438.71278 C 203.03739,439.08519 201.92977,439.44472 200.92419,439.80974 C 195.91267,441.63094 192.83058,443.37454 190.95544,444.79054 C 190.58667,445.0691 190.26908,445.33665 189.98669,445.59102 C 189.6938,445.85485 189.44927,446.09747 189.23669,446.33221 C 187.98352,447.71544 188.01793,448.55578 188.01794,448.55578 L 198.67419,485.28915 L 233.51794,485.28915 L 535.76793,485.28915 L 570.61173,485.28915 L 581.26793,448.55578 C 581.26793,448.55578 581.30233,447.71544 580.04913,446.33221 C 579.83663,446.09747 579.59203,445.85485 579.29913,445.59102 C 577.58453,444.04179 574.37743,441.99588 568.36173,439.80974 C 568.35313,439.80665 568.33893,439.81284 568.33043,439.80974 C 555.25903,435.06547 528.97943,429.58431 476.14293,426.58692 C 476.13293,426.58635 476.12163,426.58749 476.11173,426.58692 C 472.04563,426.35638 467.84193,426.13418 463.45543,425.93467 C 441.52213,424.93714 415.50183,424.36335 384.64293,424.36335 z"
         id="path9054"
         style="fill:#eac102;fill-opacity:1;fill-rule:evenodd;stroke:#000000;stroke-width:0.77495563px;stroke-linecap:butt;stroke-linejoin:miter;stroke-opacity:1" />
      <path
         d="M 1796.3478,707.07074 C 1796.3478,719.80957 1786.0209,730.13644 1773.2821,730.13644 C 1760.5433,730.13644 1750.2164,719.80957 1750.2164,707.07074 C 1750.2164,694.33191 1760.5433,684.00504 1773.2821,684.00504 C 1786.0209,684.00504 1796.3478,694.33191 1796.3478,707.07074 z"
         transform="matrix(0.5526395,0,0,0.5685945,-519.95504,40.358676)"
         id="path9058"
         style="fill:#eac102;fill-opacity:1;fill-rule:evenodd;stroke:#000000;stroke-width:1.38246679px;stroke-linecap:round;stroke-linejoin:round;marker:none;marker-start:none;marker-mid:none;marker-end:none;stroke-miterlimit:4;stroke-dasharray:none;stroke-dashoffset:0;stroke-opacity:1;visibility:visible;display:inline;overflow:visible;enable-background:accumulate" />
      <path
         d="M 1796.3478,707.07074 C 1796.3478,719.80957 1786.0209,730.13644 1773.2821,730.13644 C 1760.5433,730.13644 1750.2164,719.80957 1750.2164,707.07074 C 1750.2164,694.33191 1760.5433,684.00504 1773.2821,684.00504 C 1786.0209,684.00504 1796.3478,694.33191 1796.3478,707.07074 z"
         transform="matrix(0.5401856,0,0,0.5685945,-496.50639,40.358676)"
         id="path9060"
         style="fill:#eac102;fill-opacity:1;fill-rule:evenodd;stroke:#000000;stroke-width:1.39831209px;stroke-linecap:round;stroke-linejoin:round;marker:none;marker-start:none;marker-mid:none;marker-end:none;stroke-miterlimit:4;stroke-dasharray:none;stroke-dashoffset:0;stroke-opacity:1;visibility:visible;display:inline;overflow:visible;enable-background:accumulate" />
      <path
         d="M 1796.3478,707.07074 C 1796.3478,719.80957 1786.0209,730.13644 1773.2821,730.13644 C 1760.5433,730.13644 1750.2164,719.80957 1750.2164,707.07074 C 1750.2164,694.33191 1760.5433,684.00504 1773.2821,684.00504 C 1786.0209,684.00504 1796.3478,694.33191 1796.3478,707.07074 z"
         transform="matrix(0.4779164,0,0,0.4918098,-385.79822,94.65086)"
         id="path9062"
         style="fill:#e3e4e5;fill-opacity:1;fill-rule:evenodd;stroke:#000000;stroke-width:1.59846222px;stroke-linecap:round;stroke-linejoin:round;marker:none;marker-start:none;marker-mid:none;marker-end:none;stroke-miterlimit:4;stroke-dasharray:none;stroke-dashoffset:0;stroke-opacity:1;visibility:visible;display:inline;overflow:visible;enable-background:accumulate" />
      <path
         d="M 1796.3478,707.07074 C 1796.3478,719.80957 1786.0209,730.13644 1773.2821,730.13644 C 1760.5433,730.13644 1750.2164,719.80957 1750.2164,707.07074 C 1750.2164,694.33191 1760.5433,684.00504 1773.2821,684.00504 C 1786.0209,684.00504 1796.3478,694.33191 1796.3478,707.07074 z"
         transform="matrix(-0.5526395,0,0,0.5685945,1289.2407,40.358676)"
         id="path9066"
         style="fill:#eac102;fill-opacity:1;fill-rule:evenodd;stroke:#000000;stroke-width:1.38246679px;stroke-linecap:round;stroke-linejoin:round;marker:none;marker-start:none;marker-mid:none;marker-end:none;stroke-miterlimit:4;stroke-dasharray:none;stroke-dashoffset:0;stroke-opacity:1;visibility:visible;display:inline;overflow:visible;enable-background:accumulate" />
      <path
         d="M 1796.3478,707.07074 C 1796.3478,719.80957 1786.0209,730.13644 1773.2821,730.13644 C 1760.5433,730.13644 1750.2164,719.80957 1750.2164,707.07074 C 1750.2164,694.33191 1760.5433,684.00504 1773.2821,684.00504 C 1786.0209,684.00504 1796.3478,694.33191 1796.3478,707.07074 z"
         transform="matrix(-0.5401856,0,0,0.5685945,1265.7921,40.358676)"
         id="path9068"
         style="fill:#eac102;fill-opacity:1;fill-rule:evenodd;stroke:#000000;stroke-width:1.39831209px;stroke-linecap:round;stroke-linejoin:round;marker:none;marker-start:none;marker-mid:none;marker-end:none;stroke-miterlimit:4;stroke-dasharray:none;stroke-dashoffset:0;stroke-opacity:1;visibility:visible;display:inline;overflow:visible;enable-background:accumulate" />
      <path
         d="M 1796.3478,707.07074 C 1796.3478,719.80957 1786.0209,730.13644 1773.2821,730.13644 C 1760.5433,730.13644 1750.2164,719.80957 1750.2164,707.07074 C 1750.2164,694.33191 1760.5433,684.00504 1773.2821,684.00504 C 1786.0209,684.00504 1796.3478,694.33191 1796.3478,707.07074 z"
         transform="matrix(-0.4779164,0,0,0.4918098,1155.0839,94.65086)"
         id="path9070"
         style="fill:#e3e4e5;fill-opacity:1;fill-rule:evenodd;stroke:#000000;stroke-width:1.59846222px;stroke-linecap:round;stroke-linejoin:round;marker:none;marker-start:none;marker-mid:none;marker-end:none;stroke-miterlimit:4;stroke-dasharray:none;stroke-dashoffset:0;stroke-opacity:1;visibility:visible;display:inline;overflow:visible;enable-background:accumulate" />
      <path
         d="M 269.11349,443.84929 L 248.69787,434.0072 L 247.39008,434.24485 L 266.86126,444.25856 L 269.11349,443.84929 z"
         id="path9074"
         style="fill:none;fill-rule:evenodd;stroke:#000000;stroke-width:0.77495551px;stroke-linecap:round;stroke-linejoin:round;stroke-opacity:1" />
      <path
         d="M 269.11349,443.84929 L 248.69787,461.1111 L 247.39008,461.34874 L 266.86126,444.25856 L 269.11349,443.84929 z"
         id="path9076"
         style="fill:none;fill-rule:evenodd;stroke:#000000;stroke-width:0.77495551px;stroke-linecap:round;stroke-linejoin:round;stroke-opacity:1" />
      <path
         d="M 247.36027,461.30749 L 229.02523,451.48147 L 247.31862,434.32732"
         id="path9078"
         style="fill:none;fill-opacity:1;fill-rule:evenodd;stroke:#000000;stroke-width:0.77495551px;stroke-linecap:round;stroke-linejoin:round;marker:none;marker-start:none;marker-mid:none;marker-end:none;stroke-miterlimit:4;stroke-dasharray:none;stroke-dashoffset:0;stroke-opacity:1;visibility:visible;display:inline;overflow:visible;enable-background:accumulate" />
      <path
         d="M 261.80059,445.31715 L 247.15156,458.47319 L 232.71695,450.53263 L 247.22302,437.61106 L 261.80059,445.31715 z"
         id="path9082"
         style="fill:#008f4c;fill-rule:evenodd;stroke:#000000;stroke-width:0.77495551px;stroke-linecap:round;stroke-linejoin:round;stroke-opacity:1" />
      <path
         d="M 251.94977,447.14009 L 244.20081,454.07508 L 236.56528,449.89911 L 244.23861,443.08767 L 251.94977,447.14009 z"
         id="path9084"
         style="fill:none;fill-rule:evenodd;stroke:#000000;stroke-width:0.4649733;stroke-linecap:round;stroke-linejoin:round;stroke-miterlimit:4;stroke-dasharray:none;stroke-opacity:1" />
      <path
         d="M 247.22302,458.39071 L 244.18594,454.07765"
         id="path9086"
         style="fill:none;fill-rule:evenodd;stroke:#000000;stroke-width:0.4649733;stroke-linecap:round;stroke-linejoin:round;stroke-miterlimit:4;stroke-dasharray:none;stroke-opacity:1" />
      <path
         d="M 232.93129,450.49369 L 236.59376,449.88039"
         id="path9088"
         style="fill:none;fill-rule:evenodd;stroke:#000000;stroke-width:0.4649733;stroke-linecap:round;stroke-linejoin:round;stroke-miterlimit:4;stroke-dasharray:none;stroke-opacity:1" />
      <path
         d="M 251.93928,447.10912 L 261.51475,445.36909"
         id="path9090"
         style="fill:none;fill-rule:evenodd;stroke:#000000;stroke-width:0.4649733;stroke-linecap:round;stroke-linejoin:round;stroke-miterlimit:4;stroke-dasharray:none;stroke-opacity:1" />
      <path
         d="M 244.20401,443.14635 L 247.22302,437.61106"
         id="path9092"
         style="fill:none;fill-rule:evenodd;stroke:#000000;stroke-width:0.4649733;stroke-linecap:round;stroke-linejoin:round;stroke-miterlimit:4;stroke-dasharray:none;stroke-opacity:1" />
      <path
         d="M 500.17189,443.84929 L 520.58751,434.0072 L 521.8953,434.24485 L 502.42412,444.25856 L 500.17189,443.84929 z"
         id="path9096"
         style="fill:none;fill-rule:evenodd;stroke:#000000;stroke-width:0.77495551px;stroke-linecap:round;stroke-linejoin:round;stroke-opacity:1" />
      <path
         d="M 500.17189,443.84929 L 520.58751,461.1111 L 521.8953,461.34874 L 502.42412,444.25856 L 500.17189,443.84929 z"
         id="path9098"
         style="fill:none;fill-rule:evenodd;stroke:#000000;stroke-width:0.77495551px;stroke-linecap:round;stroke-linejoin:round;stroke-opacity:1" />
      <path
         d="M 521.92511,461.30749 L 540.26015,451.48147 L 521.96676,434.32732"
         id="path9100"
         style="fill:none;fill-opacity:1;fill-rule:evenodd;stroke:#000000;stroke-width:0.77495551px;stroke-linecap:round;stroke-linejoin:round;marker:none;marker-start:none;marker-mid:none;marker-end:none;stroke-miterlimit:4;stroke-dasharray:none;stroke-dashoffset:0;stroke-opacity:1;visibility:visible;display:inline;overflow:visible;enable-background:accumulate" />
      <path
         d="M 507.48479,445.31715 L 522.13382,458.47319 L 536.56843,450.53263 L 522.06236,437.61106 L 507.48479,445.31715 z"
         id="path9104"
         style="fill:#008f4c;fill-rule:evenodd;stroke:#000000;stroke-width:0.77495551px;stroke-linecap:round;stroke-linejoin:round;stroke-opacity:1" />
      <path
         d="M 517.33561,447.14009 L 525.08457,454.07508 L 532.7201,449.89911 L 525.04677,443.08767 L 517.33561,447.14009 z"
         id="path9106"
         style="fill:none;fill-rule:evenodd;stroke:#000000;stroke-width:0.3874777;stroke-linecap:round;stroke-linejoin:round;stroke-miterlimit:4;stroke-dasharray:none;stroke-opacity:1" />
      <path
         d="M 522.06236,458.39071 L 525.09944,454.07765"
         id="path9108"
         style="fill:none;fill-rule:evenodd;stroke:#000000;stroke-width:0.3874777;stroke-linecap:round;stroke-linejoin:round;stroke-miterlimit:4;stroke-dasharray:none;stroke-opacity:1" />
      <path
         d="M 536.35409,450.49369 L 532.69162,449.88039"
         id="path9110"
         style="fill:none;fill-rule:evenodd;stroke:#000000;stroke-width:0.3874777;stroke-linecap:round;stroke-linejoin:round;stroke-miterlimit:4;stroke-dasharray:none;stroke-opacity:1" />
      <path
         d="M 517.3461,447.10912 L 507.77063,445.36909"
         id="path9112"
         style="fill:none;fill-rule:evenodd;stroke:#000000;stroke-width:0.3874777;stroke-linecap:round;stroke-linejoin:round;stroke-miterlimit:4;stroke-dasharray:none;stroke-opacity:1" />
      <path
         d="M 525.08137,443.14635 L 522.06236,437.61106"
         id="path9114"
         style="fill:none;fill-rule:evenodd;stroke:#000000;stroke-width:0.3874777;stroke-linecap:round;stroke-linejoin:round;stroke-miterlimit:4;stroke-dasharray:none;stroke-opacity:1" />
      <rect
         width="52.713264"
         height="26.649967"
         rx="13.479209"
         ry="13.324984"
         x="358.28619"
         y="427.55869"
         id="rect9118"
         style="fill:#eac102;fill-opacity:1;fill-rule:nonzero;stroke:#000000;stroke-width:0.77495581;stroke-linecap:butt;stroke-linejoin:miter;marker:none;marker-start:none;marker-mid:none;marker-end:none;stroke-miterlimit:4;stroke-dasharray:none;stroke-dashoffset:0;stroke-opacity:1;visibility:visible;display:inline;overflow:visible;enable-background:accumulate" />
      <rect
         width="47.431377"
         height="23.013342"
         rx="12.128588"
         ry="11.506671"
         x="360.92709"
         y="429.37701"
         id="rect9120"
         style="fill:#ed1c24;fill-opacity:1;fill-rule:nonzero;stroke:#000000;stroke-width:0.77495581;stroke-linecap:butt;stroke-linejoin:miter;marker:none;marker-start:none;marker-mid:none;marker-end:none;stroke-miterlimit:4;stroke-dasharray:none;stroke-dashoffset:0;stroke-opacity:1;visibility:visible;display:inline;overflow:visible;enable-background:accumulate" />
      <path
         d="M 186.98992,421.32734 L 184.28992,426.98929 C 184.94352,427.64796 185.63152,428.29029 186.34372,428.92118 L 188.13092,422.20183 C 187.83382,421.80406 187.38272,421.26314 186.98992,421.32734 z M 582.35013,421.30934 C 581.86143,421.31768 581.83613,421.33195 581.00133,422.36696 L 583.09143,428.80496 C 583.63233,428.33759 584.17873,427.815 584.70853,427.2732 L 582.35013,421.30934 z"
         id="path9122"
         style="fill:#eac102;fill-opacity:1;fill-rule:evenodd;stroke:#000000;stroke-width:0.77495575px;stroke-linecap:butt;stroke-linejoin:miter;stroke-opacity:0" />
      <g
         transform="matrix(-0.4483888,0.1357193,0.1430547,0.4253968,1021.2482,-112.99689)"
         id="g9170">
        <path
           d="M 2069.0625,730.6875 C 2069.2863,730.69541 2069.4934,730.78125 2069.7188,730.78125 C 2082.4774,730.78125 2092.8126,718.0152 2092.8125,702.28125 C 2092.8125,686.5473 2082.4773,673.78126 2069.7188,673.78125 C 2069.4934,673.78125 2069.2863,673.86709 2069.0625,673.875 L 2069.0625,730.6875 z"
           id="path9172"
           style="opacity:1;fill:#ed1c24;fill-opacity:1;fill-rule:nonzero;stroke:#000000;stroke-width:1.69045508;stroke-linecap:butt;stroke-linejoin:miter;marker:none;marker-start:none;marker-mid:none;marker-end:none;stroke-miterlimit:4;stroke-dasharray:none;stroke-dashoffset:0;stroke-opacity:1;visibility:visible;display:inline;overflow:visible;enable-background:accumulate" />
        <path
           d="M 2066.2861,668.73151 L 2073.2364,668.73151 L 2073.2364,735.26088 L 2066.2861,735.26088 C 2063.8276,709.57117 2063.4237,685.13585 2066.2861,668.73151 z"
           id="path9174"
           style="fill:#eac102;fill-opacity:1;fill-rule:nonzero;stroke:#000000;stroke-width:1.69045508;stroke-linecap:butt;stroke-linejoin:miter;marker:none;marker-start:none;marker-mid:none;marker-end:none;stroke-miterlimit:4;stroke-dashoffset:0;stroke-opacity:1;visibility:visible;display:inline;overflow:visible;enable-background:accumulate" />
      </g>
      <g
         transform="matrix(-0.4546188,0.1155684,0.1218147,0.4313073,1048.5404,-82.306701)"
         id="g9176">
        <path
           d="M 2030.1562,670.59375 C 2024.1464,672.34864 2019.4687,685.97673 2019.4688,702.5 C 2019.4688,719.02208 2024.147,732.61853 2030.1562,734.375 L 2030.4062,734.4375 C 2030.7581,734.52049 2031.1088,734.5625 2031.4688,734.5625 L 2042.3125,734.53901 L 2042.3125,716.1875 C 2043.0508,712.02671 2043.4687,707.4081 2043.4688,702.5 C 2043.4688,697.5919 2043.0508,692.94205 2042.3125,688.78125 L 2042.3125,670.60269 L 2030.1562,670.59375 z"
           id="path9178"
           style="opacity:1;fill:#eac102;fill-opacity:1;fill-rule:evenodd;stroke:#000000;stroke-width:1.69045508px;stroke-linecap:round;stroke-linejoin:round;marker:none;marker-start:none;marker-mid:none;marker-end:none;stroke-miterlimit:4;stroke-dasharray:none;stroke-dashoffset:0;stroke-opacity:1;visibility:visible;display:inline;overflow:visible;enable-background:accumulate" />
        <path
           d="M 2048.3786,702.48627 C 2048.3852,713.97377 2047.2299,724.60372 2045.3494,730.35764 C 2043.4689,736.11155 2041.1502,736.11155 2039.2697,730.35764 C 2037.3892,724.60372 2036.2339,713.97377 2036.2405,702.48627 C 2036.2339,690.99877 2037.3892,680.36882 2039.2697,674.6149 C 2041.1502,668.86099 2043.4689,668.86099 2045.3494,674.6149 C 2047.2299,680.36882 2048.3852,690.99877 2048.3786,702.48627 z"
           transform="matrix(1.9787234,0,0,0.9940993,-1999.3727,4.3345166)"
           id="path9180"
           style="opacity:1;fill:#eac102;fill-opacity:1;fill-rule:evenodd;stroke:#000000;stroke-width:1.20530272px;stroke-linecap:round;stroke-linejoin:round;marker:none;marker-start:none;marker-mid:none;marker-end:none;stroke-miterlimit:4;stroke-dasharray:none;stroke-dashoffset:0;stroke-opacity:1;visibility:visible;display:inline;overflow:visible;enable-background:accumulate" />
        <path
           d="M 2042.9551,674.40063 C 2068.1076,682.18138 2066.5129,724.06415 2042.9551,732.3797 C 2026.6088,728.90772 2028.8882,674.66099 2042.9551,674.40063 z"
           id="path9182"
           style="fill:#e3e4e5;fill-opacity:1;fill-rule:evenodd;stroke:#000000;stroke-width:1.69045508px;stroke-linecap:round;stroke-linejoin:round;marker:none;marker-start:none;marker-mid:none;marker-end:none;stroke-miterlimit:4;stroke-dashoffset:0;stroke-opacity:1;visibility:visible;display:inline;overflow:visible;enable-background:accumulate" />
      </g>
      <g
         transform="matrix(0.4483888,0.1357193,-0.1430547,0.4253968,-251.9626,-112.99689)"
         id="g9186">
        <path
           d="M 2069.0625,730.6875 C 2069.2863,730.69541 2069.4934,730.78125 2069.7188,730.78125 C 2082.4774,730.78125 2092.8126,718.0152 2092.8125,702.28125 C 2092.8125,686.5473 2082.4773,673.78126 2069.7188,673.78125 C 2069.4934,673.78125 2069.2863,673.86709 2069.0625,673.875 L 2069.0625,730.6875 z"
           id="path9188"
           style="opacity:1;fill:#ed1c24;fill-opacity:1;fill-rule:nonzero;stroke:#000000;stroke-width:1.69045508;stroke-linecap:butt;stroke-linejoin:miter;marker:none;marker-start:none;marker-mid:none;marker-end:none;stroke-miterlimit:4;stroke-dasharray:none;stroke-dashoffset:0;stroke-opacity:1;visibility:visible;display:inline;overflow:visible;enable-background:accumulate" />
        <path
           d="M 2066.2861,668.73151 L 2073.2364,668.73151 L 2073.2364,735.26088 L 2066.2861,735.26088 C 2063.8276,709.57117 2063.4237,685.13585 2066.2861,668.73151 z"
           id="path9190"
           style="fill:#eac102;fill-opacity:1;fill-rule:nonzero;stroke:#000000;stroke-width:1.69045508;stroke-linecap:butt;stroke-linejoin:miter;marker:none;marker-start:none;marker-mid:none;marker-end:none;stroke-miterlimit:4;stroke-dashoffset:0;stroke-opacity:1;visibility:visible;display:inline;overflow:visible;enable-background:accumulate" />
      </g>
      <g
         transform="matrix(0.4546188,0.1155684,-0.1218147,0.4313073,-279.2548,-82.306701)"
         id="g9192">
        <path
           d="M 2030.1562,670.59375 C 2024.1464,672.34864 2019.4687,685.97673 2019.4688,702.5 C 2019.4688,719.02208 2024.147,732.61853 2030.1562,734.375 L 2030.4062,734.4375 C 2030.7581,734.52049 2031.1088,734.5625 2031.4688,734.5625 L 2042.3125,734.53901 L 2042.3125,716.1875 C 2043.0508,712.02671 2043.4687,707.4081 2043.4688,702.5 C 2043.4688,697.5919 2043.0508,692.94205 2042.3125,688.78125 L 2042.3125,670.60269 L 2030.1562,670.59375 z"
           id="path9194"
           style="opacity:1;fill:#eac102;fill-opacity:1;fill-rule:evenodd;stroke:#000000;stroke-width:1.69045508px;stroke-linecap:round;stroke-linejoin:round;marker:none;marker-start:none;marker-mid:none;marker-end:none;stroke-miterlimit:4;stroke-dasharray:none;stroke-dashoffset:0;stroke-opacity:1;visibility:visible;display:inline;overflow:visible;enable-background:accumulate" />
        <path
           d="M 2048.3786,702.48627 C 2048.3852,713.97377 2047.2299,724.60372 2045.3494,730.35764 C 2043.4689,736.11155 2041.1502,736.11155 2039.2697,730.35764 C 2037.3892,724.60372 2036.2339,713.97377 2036.2405,702.48627 C 2036.2339,690.99877 2037.3892,680.36882 2039.2697,674.6149 C 2041.1502,668.86099 2043.4689,668.86099 2045.3494,674.6149 C 2047.2299,680.36882 2048.3852,690.99877 2048.3786,702.48627 z"
           transform="matrix(1.9787234,0,0,0.9940993,-1999.3727,4.3345166)"
           id="path9196"
           style="opacity:1;fill:#eac102;fill-opacity:1;fill-rule:evenodd;stroke:#000000;stroke-width:1.20530272px;stroke-linecap:round;stroke-linejoin:round;marker:none;marker-start:none;marker-mid:none;marker-end:none;stroke-miterlimit:4;stroke-dasharray:none;stroke-dashoffset:0;stroke-opacity:1;visibility:visible;display:inline;overflow:visible;enable-background:accumulate" />
        <path
           d="M 2042.9551,674.40063 C 2068.1076,682.18138 2066.5129,724.06415 2042.9551,732.3797 C 2026.6088,728.90772 2028.8882,674.66099 2042.9551,674.40063 z"
           id="path9198"
           style="fill:#e3e4e5;fill-opacity:1;fill-rule:evenodd;stroke:#000000;stroke-width:1.69045508px;stroke-linecap:round;stroke-linejoin:round;marker:none;marker-start:none;marker-mid:none;marker-end:none;stroke-miterlimit:4;stroke-dashoffset:0;stroke-opacity:1;visibility:visible;display:inline;overflow:visible;enable-background:accumulate" />
      </g>
      <path
         d="M 213.11794,486.90307 C 213.11794,486.90307 250.1795,469.03524 384.64256,469.03524 C 518.66011,469.03524 556.16709,486.90307 556.16709,486.90307 C 556.16709,486.90307 524.81971,504.77091 384.64256,504.77091 C 244.01962,504.77091 213.11794,486.90307 213.11794,486.90307 z"
         id="path9202"
         style="fill:#eac102;fill-rule:evenodd;stroke:#000000;stroke-width:0.77495563px;stroke-linecap:butt;stroke-linejoin:miter;stroke-opacity:1" />
      <path
         d="M 340.98501,507.62386 L 340.98501,466.28323"
         id="path9206"
         style="font-size:12px;fill:none;stroke:#000000;stroke-width:0.4030402" />
      <path
         d="M 333.10309,507.62386 L 333.10309,466.28323"
         id="path9208"
         style="font-size:12px;fill:none;stroke:#000000;stroke-width:0.59336627" />
      <path
         d="M 325.66264,507.62386 L 325.66264,466.28323"
         id="path9210"
         style="font-size:12px;fill:none;stroke:#000000;stroke-width:0.79488814" />
      <path
         d="M 318.28669,507.62386 L 318.28669,466.28323"
         id="path9212"
         style="font-size:12px;fill:none;stroke:#000000;stroke-width:0.99640977" />
      <path
         d="M 311.71439,507.62386 L 311.71439,466.28323"
         id="path9214"
         style="font-size:12px;fill:none;stroke:#000000;stroke-width:1.19792831" />
      <path
         d="M 299.17981,505.39489 L 299.00618,467.76809 M 305.12219,505.8899 L 305.12219,466.5323"
         id="path9216"
         style="font-size:12px;fill:none;stroke:#000000;stroke-width:1.39944994" />
      <path
         d="M 287.60739,503.70298 L 287.60739,469.03623 M 293.47051,504.69289 L 293.29688,467.80044"
         id="path9218"
         style="font-size:12px;fill:none;stroke:#000000;stroke-width:1.58977628" />
      <path
         d="M 272.08181,501.72316 L 272.08181,471.26519 M 277.17593,502.21812 L 277.17593,470.27522 M 282.42396,503.20803 L 282.42396,470.02614"
         id="path9220"
         style="font-size:12px;fill:none;stroke:#000000;stroke-width:1.79129779" />
      <path
         d="M 266.64033,501.47408 L 266.64033,472.00923"
         id="path9222"
         style="font-size:12px;fill:none;stroke:#000000;stroke-width:1.99281955" />
      <path
         d="M 261.56602,499.98915 L 261.56602,472.50419"
         id="path9224"
         style="font-size:12px;fill:none;stroke:#000000;stroke-width:2.19433808" />
      <path
         d="M 256.12463,499.24506 L 256.12463,473.73997"
         id="path9226"
         style="font-size:12px;fill:none;stroke:#000000;stroke-width:2.39585972" />
      <path
         d="M 244.98383,497.01936 L 244.81013,476.71304 M 250.69301,498.00934 L 250.69301,475.22811"
         id="path9228"
         style="font-size:12px;fill:none;stroke:#000000;stroke-width:2.58618641" />
      <path
         d="M 239.27453,495.28534 L 239.27453,477.4538"
         id="path9230"
         style="font-size:12px;fill:none;stroke:#000000;stroke-width:2.73172951" />
      <path
         d="M 234.04641,493.83932 L 234.04641,478.99041"
         id="path9232"
         style="font-size:12px;fill:none;stroke:#000000;stroke-width:2.93324852" />
      <path
         d="M 228.33711,491.8595 L 228.33711,480.22947"
         id="path9234"
         style="font-size:12px;fill:none;stroke:#000000;stroke-width:3.12357402" />
      <path
         d="M 222.46911,490.86959 L 222.46911,482.20935"
         id="path9236"
         style="font-size:12px;fill:none;stroke:#000000;stroke-width:3.31391311" />
      <path
         d="M 216.25849,488.89165 L 216.25849,484.68312"
         id="path9238"
         style="font-size:12px;fill:none;stroke:#000000;stroke-width:3.90726638" />
      <path
         d="M 372.34381,505.39489 L 372.34381,467.52227 M 358.99083,506.63394 L 359.16437,466.5323 M 349.25869,507.12889 L 349.25869,466.28323"
         id="path9240"
         style="font-size:12px;fill:none;stroke:#000000;stroke-width:0.20152074" />
      <path
         d="M 428.30019,507.62386 L 428.30019,466.28323"
         id="path9242"
         style="font-size:12px;fill:none;stroke:#000000;stroke-width:0.4030402" />
      <path
         d="M 436.18201,507.62386 L 436.18201,466.28323"
         id="path9244"
         style="font-size:12px;fill:none;stroke:#000000;stroke-width:0.59336627" />
      <path
         d="M 443.62246,507.62386 L 443.62246,466.28323"
         id="path9246"
         style="font-size:12px;fill:none;stroke:#000000;stroke-width:0.79488814" />
      <path
         d="M 450.99841,507.62386 L 450.99841,466.28323"
         id="path9248"
         style="font-size:12px;fill:none;stroke:#000000;stroke-width:0.99640977" />
      <path
         d="M 457.57071,507.62386 L 457.57071,466.28323"
         id="path9250"
         style="font-size:12px;fill:none;stroke:#000000;stroke-width:1.19792831" />
      <path
         d="M 470.10538,505.39489 L 470.27901,467.76809 M 464.16291,505.8899 L 464.16291,466.5323"
         id="path9252"
         style="font-size:12px;fill:none;stroke:#000000;stroke-width:1.39944994" />
      <path
         d="M 481.67771,503.70298 L 481.67771,469.03623 M 475.81468,504.69289 L 475.98822,467.80044"
         id="path9254"
         style="font-size:12px;fill:none;stroke:#000000;stroke-width:1.58977628" />
      <path
         d="M 497.20339,501.72316 L 497.20339,471.26519 M 492.10917,502.21812 L 492.10917,470.27522 M 486.86114,503.20803 L 486.86114,470.02614"
         id="path9256"
         style="font-size:12px;fill:none;stroke:#000000;stroke-width:1.79129779" />
      <path
         d="M 502.64486,501.47408 L 502.64486,472.00923"
         id="path9258"
         style="font-size:12px;fill:none;stroke:#000000;stroke-width:1.99281955" />
      <path
         d="M 507.71917,499.98915 L 507.71917,472.50419"
         id="path9260"
         style="font-size:12px;fill:none;stroke:#000000;stroke-width:2.19433808" />
      <path
         d="M 513.16056,499.24506 L 513.16056,473.73997"
         id="path9262"
         style="font-size:12px;fill:none;stroke:#000000;stroke-width:2.39585972" />
      <path
         d="M 524.3013,497.01936 L 524.47502,476.71304 M 518.59209,498.00934 L 518.59209,475.22811"
         id="path9264"
         style="font-size:12px;fill:none;stroke:#000000;stroke-width:2.58618641" />
      <path
         d="M 530.0106,495.28534 L 530.0106,477.4538"
         id="path9266"
         style="font-size:12px;fill:none;stroke:#000000;stroke-width:2.73172951" />
      <path
         d="M 535.23872,493.83932 L 535.23872,478.99041"
         id="path9268"
         style="font-size:12px;fill:none;stroke:#000000;stroke-width:2.93324852" />
      <path
         d="M 540.94802,491.8595 L 540.94802,480.22947"
         id="path9270"
         style="font-size:12px;fill:none;stroke:#000000;stroke-width:3.12357402" />
      <path
         d="M 546.81602,490.86959 L 546.81602,482.20935"
         id="path9272"
         style="font-size:12px;fill:none;stroke:#000000;stroke-width:3.31391311" />
      <path
         d="M 553.02659,488.89165 L 553.02659,484.68312"
         id="path9274"
         style="font-size:12px;fill:none;stroke:#000000;stroke-width:3.90726638" />
      <path
         d="M 396.94129,505.39489 L 396.94129,467.52227 M 410.29436,506.63394 L 410.12082,466.5323 M 420.02641,507.12889 L 420.02641,466.28323"
         id="path9276"
         style="font-size:12px;fill:none;stroke:#000000;stroke-width:0.20152074" />
      <path
         d="M 384.48911,456.76925 C 332.31429,457.28946 279.5455,457.34479 228.30455,467.78066 C 216.86955,471.22641 200.51331,473.14456 196.2209,485.34975 C 194.81268,495.54407 207.72917,499.87123 215.80518,502.67291 C 254.27727,513.69857 294.94648,514.63841 334.80836,516.36204 C 396.82416,517.54971 459.21663,518.01041 520.77263,509.77705 C 537.5894,506.67561 556.10598,504.76081 569.93488,494.31189 C 578.19216,486.58978 569.0693,475.79421 559.94119,473.57327 C 528.62736,462.10213 494.47643,460.88079 461.35744,458.54528 C 435.76121,457.21171 410.12073,456.78619 384.48911,456.76925 z M 384.63316,469.03755 C 518.65062,469.03757 556.16838,486.90719 556.16838,486.90719 C 556.16829,486.90718 524.81022,504.77683 384.63316,504.77683 C 244.01013,504.77683 213.12669,486.90719 213.12669,486.90719 C 213.12669,486.90718 250.17001,469.03755 384.63316,469.03755 z"
         id="path9278"
         style="fill:#eac102;fill-rule:evenodd;stroke:#000000;stroke-width:0.77495563px;stroke-linecap:butt;stroke-linejoin:miter;stroke-opacity:1" />
      <g
         id="g2933">
        <path
           d="M 231.25548,38.547443 C 231.25548,46.920403 224.46785,53.708028 216.0949,53.708028 C 207.72194,53.708028 200.93431,46.920403 200.93431,38.547443 C 200.93431,30.174483 207.72194,23.386858 216.0949,23.386858 C 224.46785,23.386858 231.25548,30.174483 231.25548,38.547443 z"
           transform="matrix(1.2202403,-6.7103587e-2,6.7103587e-2,1.2202403,-58.954035,323.52501)"
           id="path9911"
           style="fill:#e3e4e5;fill-opacity:1;fill-rule:evenodd;stroke:#000000;stroke-width:0.59866548;stroke-linecap:round;stroke-linejoin:miter;marker:none;marker-start:none;marker-mid:none;marker-end:none;stroke-miterlimit:4;stroke-dasharray:none;stroke-dashoffset:0;stroke-opacity:1;visibility:visible;display:inline;overflow:visible;enable-background:accumulate" />
        <path
           d="M 231.25548,38.547443 C 231.25548,46.920403 224.46785,53.708028 216.0949,53.708028 C 207.72194,53.708028 200.93431,46.920403 200.93431,38.547443 C 200.93431,30.174483 207.72194,23.386858 216.0949,23.386858 C 224.46785,23.386858 231.25548,30.174483 231.25548,38.547443 z"
           transform="matrix(1.2844633,-7.0635406e-2,7.0635406e-2,1.2844633,-65.722315,287.9293)"
           id="path9915"
           style="fill:#e3e4e5;fill-opacity:1;fill-rule:evenodd;stroke:#000000;stroke-width:0.59866548;stroke-linecap:round;stroke-linejoin:miter;marker:none;marker-start:none;marker-mid:none;marker-end:none;stroke-miterlimit:4;stroke-dasharray:none;stroke-dashoffset:0;stroke-opacity:1;visibility:visible;display:inline;overflow:visible;enable-background:accumulate" />
        <path
           d="M 231.25548,38.547443 C 231.25548,46.920403 224.46785,53.708028 216.0949,53.708028 C 207.72194,53.708028 200.93431,46.920403 200.93431,38.547443 C 200.93431,30.174483 207.72194,23.386858 216.0949,23.386858 C 224.46785,23.386858 231.25548,30.174483 231.25548,38.547443 z"
           transform="matrix(1.316575,-7.2401248e-2,7.2401248e-2,1.316575,-46.595113,314.87292)"
           id="path9913"
           style="fill:#e3e4e5;fill-opacity:1;fill-rule:evenodd;stroke:#000000;stroke-width:0.59866548;stroke-linecap:round;stroke-linejoin:miter;marker:none;marker-start:none;marker-mid:none;marker-end:none;stroke-miterlimit:4;stroke-dasharray:none;stroke-dashoffset:0;stroke-opacity:1;visibility:visible;display:inline;overflow:visible;enable-background:accumulate" />
      </g>
      <g
         id="g2928">
        <path
           d="M 231.25548,38.547443 C 231.25548,46.920403 224.46785,53.708028 216.0949,53.708028 C 207.72194,53.708028 200.93431,46.920403 200.93431,38.547443 C 200.93431,30.174483 207.72194,23.386858 216.0949,23.386858 C 224.46785,23.386858 231.25548,30.174483 231.25548,38.547443 z"
           transform="matrix(-1.2202402,-6.7103639e-2,-6.7103639e-2,1.2202402,828.23962,323.52501)"
           id="path9919"
           style="fill:#e3e4e5;fill-opacity:1;fill-rule:evenodd;stroke:#000000;stroke-width:0.59866548;stroke-linecap:round;stroke-linejoin:miter;marker:none;marker-start:none;marker-mid:none;marker-end:none;stroke-miterlimit:4;stroke-dasharray:none;stroke-dashoffset:0;stroke-opacity:1;visibility:visible;display:inline;overflow:visible;enable-background:accumulate" />
        <path
           d="M 231.25548,38.547443 C 231.25548,46.920403 224.46785,53.708028 216.0949,53.708028 C 207.72194,53.708028 200.93431,46.920403 200.93431,38.547443 C 200.93431,30.174483 207.72194,23.386858 216.0949,23.386858 C 224.46785,23.386858 231.25548,30.174483 231.25548,38.547443 z"
           transform="matrix(-1.2844634,-7.0635411e-2,-7.0635411e-2,1.2844634,835.00792,287.92929)"
           id="path9923"
           style="fill:#e3e4e5;fill-opacity:1;fill-rule:evenodd;stroke:#000000;stroke-width:0.59866548;stroke-linecap:round;stroke-linejoin:miter;marker:none;marker-start:none;marker-mid:none;marker-end:none;stroke-miterlimit:4;stroke-dasharray:none;stroke-dashoffset:0;stroke-opacity:1;visibility:visible;display:inline;overflow:visible;enable-background:accumulate" />
        <path
           d="M 231.25548,38.547443 C 231.25548,46.920403 224.46785,53.708028 216.0949,53.708028 C 207.72194,53.708028 200.93431,46.920403 200.93431,38.547443 C 200.93431,30.174483 207.72194,23.386858 216.0949,23.386858 C 224.46785,23.386858 231.25548,30.174483 231.25548,38.547443 z"
           transform="matrix(-1.316575,-7.2401297e-2,-7.2401297e-2,1.316575,815.8807,314.87293)"
           id="path9921"
           style="fill:#e3e4e5;fill-opacity:1;fill-rule:evenodd;stroke:#000000;stroke-width:0.5988937;stroke-linecap:round;stroke-linejoin:miter;marker:none;marker-start:none;marker-mid:none;marker-end:none;stroke-miterlimit:4;stroke-dasharray:none;stroke-dashoffset:0;stroke-opacity:1;visibility:visible;display:inline;overflow:visible;enable-background:accumulate" />
      </g>
    </g>
  </g>
  <g
     transform="translate(80.257412,-64.239029)"
     id="layer4" />
  <g
     transform="translate(80.257412,-64.239029)"
     id="layer5" />
  <g
     transform="translate(81.238489,-62.030229)"
     id="layer7"
     style="fill:#0071bc;display:inline">
    <path
       d="M 27.37268,374.32143 C 27.57696,495.06615 26.96156,615.82425 27.68491,736.56052 C 31.53179,844.91709 114.47222,943.88665 220.38477,966.77015 C 318.3676,990.64015 428.05708,947.74305 483.36218,863.14895 C 516.48428,815.83822 528.68228,757.2888 525.95108,700.2965 C 525.95108,591.63814 525.95108,482.97978 525.95108,374.32143 C 359.75828,374.32143 193.56555,374.32143 27.37268,374.32143 z"
       id="path11946"
       style="fill:#0071bc;fill-opacity:1;fill-rule:evenodd;stroke:#000000;stroke-width:3;stroke-linecap:butt;stroke-linejoin:miter;marker:none;marker-start:none;marker-mid:none;marker-end:none;stroke-miterlimit:4;stroke-dasharray:none;stroke-dashoffset:0;stroke-opacity:1;visibility:visible;display:inline;overflow:visible;enable-background:accumulate" />
  </g>
  <path
     d="M 356.00003,345.19401 C 342.5059,345.19401 331.65628,354.94903 331.65628,367.0469 C 331.65628,395.3321 341.35812,835.49408 356.00003,884.48422 C 371.30696,833.2689 380.34379,395.01524 380.34378,367.0469 C 380.34378,354.94902 369.49414,345.19401 356.00003,345.19401 z M 356.00003,366.85079 C 371.75185,366.85078 371.53128,382.58417 371.53128,401.98352 C 371.53131,421.38288 364.57888,437.14426 356.00003,437.14426 C 347.4212,437.14427 340.46878,421.38287 340.46878,401.98352 C 340.46879,382.58418 341.04523,366.85079 356.00003,366.85079 z"
     id="rect3014"
     style="fill:#eac102;fill-opacity:1;fill-rule:nonzero;stroke:#000000;stroke-width:1;stroke-linecap:butt;stroke-linejoin:miter;marker:none;marker-start:none;marker-mid:none;marker-end:none;stroke-miterlimit:4;stroke-dashoffset:0;stroke-opacity:1;visibility:visible;display:inline;overflow:visible;enable-background:accumulate" />
  <path
     d="M -694.18212,438.39734 A 15.54139,43.834694 0 1 1 -694.18212,438.39734 A 15.54139,43.834694 0 1 1 -694.18212,438.39734 z"
     id="path3017"
     style="opacity:1;fill:#e3e4e5;fill-opacity:1;fill-rule:nonzero;stroke:#000000;stroke-width:1;stroke-linecap:butt;stroke-linejoin:miter;marker:none;marker-start:none;marker-mid:none;marker-end:none;stroke-miterlimit:4;stroke-dasharray:none;stroke-dashoffset:0;stroke-opacity:1;visibility:visible;display:inline;overflow:visible;enable-background:accumulate" />
  <path
     d="M 447.94702,345.19401 C 434.45289,345.19401 423.60327,354.94903 423.60327,367.0469 C 423.60327,395.3321 433.30511,795.49408 447.94702,844.48422 C 463.25395,793.2689 472.29078,395.01524 472.29077,367.0469 C 472.29077,354.94902 461.44113,345.19401 447.94702,345.19401 z M 447.94702,366.85079 C 463.69884,366.85078 463.47827,382.58417 463.47827,401.98352 C 463.4783,421.38288 456.52587,437.14426 447.94702,437.14426 C 439.36819,437.14427 432.41577,421.38287 432.41577,401.98352 C 432.41578,382.58418 432.99222,366.85079 447.94702,366.85079 z"
     id="path3023"
     style="fill:#eac102;fill-opacity:1;fill-rule:nonzero;stroke:#000000;stroke-width:1;stroke-linecap:butt;stroke-linejoin:miter;marker:none;marker-start:none;marker-mid:none;marker-end:none;stroke-miterlimit:4;stroke-dashoffset:0;stroke-opacity:1;visibility:visible;display:inline;overflow:visible;enable-background:accumulate" />
  <path
     d="M 264.05302,345.19401 C 250.55889,345.19401 239.70927,354.94903 239.70927,367.0469 C 239.70927,395.3321 249.41111,795.49408 264.05302,844.48422 C 279.35995,793.2689 288.39678,395.01524 288.39677,367.0469 C 288.39677,354.94902 277.54713,345.19401 264.05302,345.19401 z M 264.05302,366.85079 C 279.80484,366.85078 279.58427,382.58417 279.58427,401.98352 C 279.5843,421.38288 272.63187,437.14426 264.05302,437.14426 C 255.47419,437.14427 248.52177,421.38287 248.52177,401.98352 C 248.52178,382.58418 249.09822,366.85079 264.05302,366.85079 z"
     id="path3025"
     style="fill:#eac102;fill-opacity:1;fill-rule:nonzero;stroke:#000000;stroke-width:1;stroke-linecap:butt;stroke-linejoin:miter;marker:none;marker-start:none;marker-mid:none;marker-end:none;stroke-miterlimit:4;stroke-dashoffset:0;stroke-opacity:1;visibility:visible;display:inline;overflow:visible;enable-background:accumulate" />
  <path
     d="M 172.10603,345.19401 C 158.6119,345.19401 147.76228,354.94903 147.76228,367.0469 C 147.76228,395.3321 157.46412,735.49408 172.10603,784.48422 C 187.41296,733.2689 196.44979,395.01524 196.44978,367.0469 C 196.44978,354.94902 185.60014,345.19401 172.10603,345.19401 z M 172.10603,366.85079 C 187.85785,366.85078 187.63728,382.58417 187.63728,401.98352 C 187.63731,421.38288 180.68488,437.14426 172.10603,437.14426 C 163.5272,437.14427 156.57478,421.38287 156.57478,401.98352 C 156.57479,382.58418 157.15123,366.85079 172.10603,366.85079 z"
     id="path3027"
     style="fill:#eac102;fill-opacity:1;fill-rule:nonzero;stroke:#000000;stroke-width:1;stroke-linecap:butt;stroke-linejoin:miter;marker:none;marker-start:none;marker-mid:none;marker-end:none;stroke-miterlimit:4;stroke-dashoffset:0;stroke-opacity:1;visibility:visible;display:inline;overflow:visible;enable-background:accumulate" />
  <path
     d="M 539.89401,345.19401 C 526.39988,345.19401 515.55026,354.94903 515.55026,367.0469 C 515.55026,395.3321 525.2521,735.49408 539.89401,784.48422 C 555.20094,733.2689 564.23777,395.01524 564.23776,367.0469 C 564.23776,354.94902 553.38812,345.19401 539.89401,345.19401 z M 539.89401,366.85079 C 555.64583,366.85078 555.42526,382.58417 555.42526,401.98352 C 555.42529,421.38288 548.47286,437.14426 539.89401,437.14426 C 531.31518,437.14427 524.36276,421.38287 524.36276,401.98352 C 524.36277,382.58418 524.93921,366.85079 539.89401,366.85079 z"
     id="path3029"
     style="fill:#eac102;fill-opacity:1;fill-rule:nonzero;stroke:#000000;stroke-width:1;stroke-linecap:butt;stroke-linejoin:miter;marker:none;marker-start:none;marker-mid:none;marker-end:none;stroke-miterlimit:4;stroke-dashoffset:0;stroke-opacity:1;visibility:visible;display:inline;overflow:visible;enable-background:accumulate" />
</svg>
