<?xml version="1.0" encoding="UTF-8" standalone="no"?>
<!-- Created with Inkscape (http://www.inkscape.org/) -->
<svg
   xmlns:svg="http://www.w3.org/2000/svg"
   xmlns="http://www.w3.org/2000/svg"
   xmlns:xlink="http://www.w3.org/1999/xlink"
   version="1.0"
   width="502"
   height="602"
   id="svg3194">
  <defs
     id="defs3196" />
  <g
     transform="translate(-293.22478,-223.09601)"
     id="layer1"
     style="display:inline">
    <rect
       width="0"
       height="22.382799"
       x="-643.80493"
       y="356.42798"
       transform="matrix(0.9733285,0.2294157,-0.2294157,0.9733285,0,0)"
       id="rect2743"
       style="fill:#008f4c;fill-opacity:1;fill-rule:evenodd;stroke:#0c0909;stroke-width:1.03836799;stroke-miterlimit:4;stroke-dasharray:none;stroke-opacity:1" />
    <g
       transform="matrix(0.8094547,0,0,0.752543,527.30337,17.757617)"
       id="g5579"
       style="fill:#c87137;fill-opacity:1;stroke-width:1.2812624;stroke-miterlimit:4;stroke-dasharray:none;display:inline" />
  </g>
  <g
     transform="translate(-236.79606,-299.73636)"
     id="layer4"
     style="display:inline">
    <g
       transform="translate(873.00016,-55.320157)"
       id="g5818" />
    <g
       transform="translate(873.00016,-55.320157)"
       id="g5820" />
    <g
       transform="translate(873.00016,-55.320157)"
       id="g5822" />
  </g>
  <g
     transform="translate(-236.79606,-299.73636)"
     id="layer5"
     style="display:inline">
    <g
       transform="translate(-582.73933,640.16742)"
       id="g5438"
       style="display:inline" />
    <g
       transform="translate(-526.31061,563.52708)"
       id="g5440"
       style="display:inline" />
    <g
       transform="translate(-526.31061,563.52708)"
       id="g5559" />
    <g
       transform="translate(-526.31061,563.52708)"
       id="g5561"
       style="display:inline" />
  </g>
  <g
     transform="translate(-236.79606,-299.73636)"
     id="layer6"
     style="display:inline" />
  <g
     transform="matrix(0.4678149,0,0,0.4678149,-2.3000664,100.9776)"
     id="g2678"
     style="stroke:#000000;stroke-width:2.13759756;stroke-miterlimit:4;stroke-dasharray:none;stroke-opacity:1;display:inline" />
  <g
     transform="matrix(6.7596519,0,0,6.3498321,-2758.4106,-1835.3053)"
     id="g7278"
     style="fill:#eac102;fill-opacity:1;stroke:#000000;stroke-width:0.15263592;stroke-miterlimit:4;stroke-dasharray:none;stroke-opacity:1" />
  <use
     transform="translate(-2.9653764e-3,102.86887)"
     id="use7283"
     style="fill:#eac102;fill-opacity:1;stroke:#000000;stroke-width:0.26261625;stroke-miterlimit:4;stroke-dasharray:none;stroke-opacity:1"
     x="0"
     y="0"
     width="885.82678"
     height="531.49603"
     xlink:href="#g7278" />
  <use
     transform="matrix(3.9287974,0,0,3.6906016,325.77275,761.97849)"
     id="use6388"
     style="fill:#eac102;fill-opacity:1;stroke:#000000;stroke-width:0.26261625;stroke-miterlimit:4;stroke-dasharray:none;stroke-opacity:1"
     x="0"
     y="0"
     width="885.82678"
     height="531.49603"
     xlink:href="#g7278" />
  <g
     transform="translate(-236.81853,-299.73636)"
     id="g3832" />
  <path
     d="M 500.13346,1.60114 C 335.73666,1.60899 166.24645,2.47563 1.8497836,1.5 C 1.3595436,148.12 1.6233436,352.98718 1.5001436,432.31852 C 1.3769536,511.64987 80.530552,560.97167 126.58784,560.97057 C 172.14645,560.96947 234.99416,554.74067 251.67556,600.50003 C 265.35706,554.79067 323.16466,561.32887 376.76316,560.97057 C 428.86576,560.61227 499.47086,497.65189 499.60686,432.31852 C 499.74206,367.23714 501.15076,128.28392 500.13346,1.60114 z"
     id="path5290"
     style="fill:#eac102;fill-opacity:1;fill-rule:evenodd;stroke:#000000;stroke-width:3;stroke-linecap:butt;stroke-linejoin:miter;marker:none;marker-start:none;marker-mid:none;marker-end:none;stroke-miterlimit:4;stroke-dasharray:none;stroke-dashoffset:0;stroke-opacity:1;visibility:visible;display:inline;overflow:visible;enable-background:accumulate" />
  <g
     transform="matrix(1.121894,0,0,1.0807707,-45.13247,-390.50509)"
     id="g3764">
    <g
       transform="matrix(0.8115887,0,0,0.8115887,45.575848,73.489889)"
       id="g2971">
      <g
         transform="matrix(-0.5335696,-1.4668598,1.3033905,-0.685588,85.954613,2081.663)"
         id="g21321"
         style="fill:#008f4c;fill-opacity:1;stroke:#000000;stroke-width:0.74143493;stroke-miterlimit:4;stroke-dasharray:none;stroke-opacity:1">
        <path
           d="M 801.81831,465.43339 C 808.34645,467.97754 814.98964,476.77881 821.18937,453.53024 C 823.76748,443.86249 820.24386,428.91888 820.24386,428.91888 C 820.24386,428.91888 815.29419,434.86593 815.30744,435.19931 C 815.72081,445.59052 810.56688,452.05788 808.67318,448.97218 C 807.74276,447.78068 808.48886,445.72843 804.39531,446.16088 L 799.4196,451.15273 C 799.4196,451.15273 799.46565,448.35382 798.31388,448.47207 C 797.16209,448.59032 794.81245,451.6258 794.81245,451.6258 L 794.62815,450.04894 L 792.78531,451.46812 C 792.78531,451.46812 793.33818,450.00952 791.67959,450.3643 C 790.02102,450.7191 786.15103,452.8873 786.15103,452.8873 C 786.15103,452.8873 788.17815,447.32883 787.62531,445.94909 C 787.07245,444.56932 783.93961,447.36825 783.93961,447.36825 C 783.93961,447.36825 784.49244,445.39719 783.75531,445.16064 C 783.01817,444.92411 780.99101,446.42213 780.99101,446.42213 C 780.99101,446.42213 781.54387,444.5299 780.80673,444.5299 C 780.06959,444.5299 773.25103,445.00295 773.25103,445.00295 C 773.25103,445.00295 776.1996,441.84921 775.83102,440.58772 C 775.46244,439.32622 771.77674,439.95698 771.77674,439.95698 C 771.77674,439.95698 773.66566,439.01086 773.4353,438.53779 C 773.20496,438.06472 770.85531,438.06472 770.85531,438.06472 C 770.85531,438.06472 776.93673,439.01085 771.22388,436.96093 C 765.51102,434.91099 765.14244,434.75329 765.14244,434.75329 C 765.14244,434.75329 771.22388,433.80718 770.85531,432.38799 C 770.48673,430.96881 763.66815,429.07657 763.66815,429.07657 C 763.66815,429.07657 767.95279,429.1554 767.53816,427.34202 C 767.4115,426.78809 764.22101,426.86895 764.22101,426.86895 C 764.22101,426.86895 766.66282,425.33151 765.14244,424.34595 C 763.62208,423.36041 757.03389,422.92678 758.1396,422.92678 C 759.24532,422.92678 772.14531,421.82296 772.14531,421.82296 C 772.14531,421.82296 769.55779,420.26715 771.77674,420.24611 C 774.1462,420.22364 783.89704,424.51898 785.03989,418.35386 C 786.31892,411.45401 771.55042,415.84353 771.03959,416.14624 C 771.03959,416.14624 774.44888,414.41169 773.06675,413.46554 C 771.6846,412.51944 765.51102,412.36175 765.51102,412.36175 C 765.51102,412.36175 768.18317,411.2185 767.72245,410.4695 C 767.26174,409.72049 763.66815,409.3657 763.66815,409.3657 C 763.66815,409.3657 765.78746,408.18305 765.32674,407.47345 C 764.86602,406.76386 761.8253,406.52734 761.8253,406.52734 C 761.8253,406.52734 763.2996,405.06873 763.1153,404.31971 C 762.93103,403.57071 761.08816,403.53128 761.08816,403.53128 L 761.27246,403.53128 L 760.35102,400.8506 C 760.35102,400.8506 764.74227,402.59637 766.58511,401.96562 C 769.74469,400.44879 765.55851,398.3478 763.66815,397.2238 C 763.66815,397.2238 766.06387,397.53919 765.8796,396.75075 C 765.69531,395.96231 763.85247,394.54313 763.85247,394.54313 C 763.85247,394.54313 765.64925,395.05562 765.69531,393.91238 C 765.74139,392.76914 764.03673,389.9702 764.03673,389.9702 C 764.26642,390.46153 769.50783,393.7894 768.64387,389.65482 C 768.48169,388.87872 767.35388,386.97414 767.35388,386.97414 C 767.35388,386.97414 768.82817,388.31447 769.19673,386.97414 C 769.5653,385.63383 768.82816,381.61279 768.82816,381.61279 C 768.89206,382.05011 773.20831,386.76074 773.80387,381.92818 C 773.97814,380.51409 773.4353,377.51293 773.4353,377.51293 C 773.4353,377.51293 774.86353,378.22254 775.46245,377.51293 C 776.06138,376.80334 774.9096,374.67456 775.83102,374.67456 C 776.75245,374.67456 777.53568,375.463 778.22673,374.51688 C 778.91779,373.57076 777.67388,371.04777 778.59532,370.89008 C 779.51673,370.73239 780.43817,365.37104 780.80673,366.00178 C 781.17531,366.63253 784.03173,372.30928 785.59816,373.57076 C 787.1646,374.83225 787.07245,371.04777 787.07245,371.04777 L 787.99388,375.14762 C 787.99388,375.14762 790.20531,371.99389 790.3896,372.62463 C 790.57388,373.25538 789.83673,380.03592 789.83673,380.03592 L 791.4953,379.72054 L 793.15388,386.97414 L 795.54959,385.39729 L 795.54959,391.07401 L 796.65531,391.07401 L 797.20816,395.96231 C 797.71315,397.71899 797.50562,404.10224 800.70959,402.76526 C 802.92102,404.34749 806.86735,402.14707 806.68308,399.60031 C 806.54592,397.70514 803.47388,394.38543 803.47388,394.38543 L 798.68245,391.38938 L 799.4196,390.60095 L 796.47102,386.02804 L 797.94533,385.87035 L 793.70673,381.61279 L 798.31388,381.61279 L 795.73388,377.986 C 795.73388,377.986 797.23215,379.62891 798.68245,378.30137 C 800.66352,376.48798 798.49816,373.76785 799.2353,371.36313 C 801.63102,372.39292 806.60673,378.57113 807.52816,373.72845 C 807.82513,372.1677 806.60673,370.89008 806.60673,370.89008 L 809.37101,370.57471 L 807.71244,364.10954 C 807.71244,364.10954 810.52281,366.67197 811.21387,366.00178 C 811.90495,365.33162 810.47673,361.42886 810.47673,361.42886 C 810.47673,361.42886 812.27353,363.08456 812.87245,362.37499 C 813.47138,361.66538 812.13529,358.59049 812.87245,358.59049 C 813.60958,358.59049 815.49851,360.12793 816.37388,359.37893 C 817.24924,358.62992 815.45244,355.59445 816.37388,355.59445 C 817.2953,355.59445 818.44708,357.44727 819.50672,356.06751 C 820.56638,354.68774 820.61245,350.07539 820.61245,350.07539 C 820.61245,350.07539 823.10029,353.78104 824.48244,354.64832 C 825.86458,355.51561 825.95672,352.91376 826.14101,353.54451 C 826.32531,354.17526 826.78602,356.10692 828.16817,356.69826 C 829.55029,357.28958 831.66958,355.90983 831.66958,355.90983 C 831.66958,355.90983 830.84031,359.18183 832.03816,359.852 C 833.23601,360.52217 836.46102,358.59049 836.46102,358.59049 C 836.46102,358.59049 836.13851,361.70481 836.82959,362.53266 C 837.52065,363.36053 839.2253,361.90192 839.2253,361.90192 C 839.2253,361.90192 838.53422,365.44988 839.59386,366.31716 C 840.65349,367.18444 843.46386,365.37104 843.46386,365.37104 C 843.46386,365.37104 841.81991,368.4078 842.17388,369.62859 C 843.4178,373.91864 848.43958,368.16304 848.43958,368.05172 C 848.43958,368.05172 847.01137,373.72845 847.14959,375.46301 C 847.2878,377.19757 849.0385,373.8073 848.99243,374.98993 C 848.94635,376.1726 846.85301,379.55059 846.9653,380.19361 C 847.70244,384.41478 857.28529,377.52714 857.28529,377.35524 C 857.28529,377.35524 856.22565,381.65221 856.73243,383.03198 C 857.23921,384.41174 859.31244,382.87429 859.31244,382.87429 C 859.31244,382.87429 857.19314,385.35785 857.46957,386.02804 C 857.746,386.6982 861.15529,385.08192 860.41815,385.55497 C 859.681,386.02804 857.51564,388.15681 857.101,389.02409 C 856.68638,389.89136 860.60243,388.07796 858.75957,389.02409 L 846.9653,395.80462 C 844.48161,398.09951 840.37989,402.03749 842.35816,404.17323 C 847.20697,409.40806 852.49019,403.64011 852.4685,397.86576 L 855.25815,392.49318 L 858.57529,390.44326 C 858.57529,390.44326 858.43708,392.05955 859.49673,391.38938 C 860.55637,390.71921 862.81385,387.76258 862.81385,387.76258 C 862.81385,387.76258 863.551,390.44326 864.28814,389.81252 C 865.02529,389.18177 868.06596,386.26457 869.4481,386.02804 C 870.83022,385.7915 869.07957,389.33947 869.81673,388.8664 C 870.55387,388.39333 874.60816,386.34341 874.60816,386.34341 C 874.60816,386.34341 872.76534,390.1279 875.71386,388.39333 C 878.66245,386.65878 881.42676,386.18571 881.42676,386.18571 C 881.42676,386.18571 879.16923,388.66928 878.8467,390.1279 C 878.5242,391.5865 880.13667,392.02014 880.13667,392.02014 C 880.13667,392.02014 877.69493,393.87295 877.92532,395.0162 C 878.15567,396.15942 881.05814,396.59305 881.05814,396.59305 C 881.05814,396.59305 878.1556,398.52471 878.29385,399.7468 C 878.43209,400.96887 882.71676,400.37755 881.61097,401.48137 C 880.5053,402.58515 877.1421,403.88609 877.37247,405.89658 C 877.60283,407.90709 883.26959,409.52338 882.53244,409.52338 C 881.7953,409.52338 880.78172,410.11471 880.5053,410.78488 C 880.22888,411.45505 882.16383,412.20406 881.42676,412.20406 C 880.68961,412.20406 878.84677,411.57331 878.66245,412.20406 C 878.47816,412.83481 880.68961,414.72706 880.68961,414.72706 C 880.68961,414.72706 876.86568,414.88475 877.37247,416.46161 C 877.87926,418.03848 882.71676,421.03453 882.71676,421.03453 C 882.71676,421.03453 878.93889,421.78356 877.92532,422.7691 C 876.91175,423.75462 879.39962,424.97672 878.66245,424.97672 C 877.92532,424.97672 876.08247,424.97672 876.08247,424.97672 C 876.08247,424.97672 877.37247,427.34202 876.08247,427.18433 C 874.28579,425.25865 860.85285,421.07527 860.73975,425.4656 C 860.6444,429.16645 875.34532,430.42742 875.34532,429.39194 C 875.34532,429.39194 872.58103,429.23425 873.68671,430.18037 C 874.79241,431.12651 882.71676,435.38404 882.71676,435.38404 C 882.71676,435.38404 876.17467,435.22638 874.05534,435.85711 C 871.93607,436.48786 874.9767,437.90704 874.23955,437.90704 C 873.5024,437.90704 870.50782,436.88208 869.81673,437.74936 C 869.12564,438.61664 871.47526,441.37615 871.47526,441.37615 L 866.68387,439.95698 C 866.68387,439.95698 868.89528,444.3722 867.60528,444.3722 C 866.31529,444.3722 862.62958,441.73095 860.97101,441.84921 C 859.31244,441.96749 862.26102,444.84527 860.97101,444.84527 C 859.681,444.84527 856.54815,443.89914 856.54815,443.89914 C 856.54815,443.89914 860.78673,448.62975 859.12815,448.62975 C 857.46957,448.62975 851.75673,447.99901 851.75673,447.99901 C 851.75673,447.99901 853.231,449.2605 852.49385,449.2605 C 851.75673,449.2605 848.80815,448.15669 848.80815,448.15669 L 849.36101,451.6258 C 849.36101,451.6258 846.19458,448.96284 844.20101,449.10282 C 840.00294,449.39757 842.35816,454.93723 842.35816,454.93723 L 838.67244,451.31043 L 836.27673,449.89125 L 835.53959,452.25656 L 833.32815,449.10282 L 830.56387,451.31043 L 832.00112,445.3566 C 832.00112,445.3566 827.96024,451.36838 827.30453,451.03988 C 825.61719,450.19452 825.86951,441.36202 828.16817,435.22638 C 829.78717,430.90486 822.27102,428.60351 822.27102,428.60351 C 822.27102,428.60351 826.18156,444.25108 823.02636,454.82575 C 816.35738,477.17692 810.19328,471.65332 802.61443,468.93457 L 801.81831,465.43339 z"
           id="path21323"
           style="fill:#008f4c;fill-opacity:1;fill-rule:evenodd;stroke:#000000;stroke-width:0.74143493;stroke-linecap:butt;stroke-linejoin:miter;stroke-miterlimit:4;stroke-dasharray:none;stroke-opacity:1;display:inline" />
        <g
           id="g21325"
           style="fill:#008f4c;fill-opacity:1;stroke:#000000;stroke-width:0.74143493;stroke-linecap:round;stroke-miterlimit:4;stroke-dasharray:none;stroke-opacity:1">
          <path
             d="M 823.5,359 L 823.25,358.5 C 827.07306,365.8906 826.78662,374.50852 825.25,382.25 C 822.15465,397.84431 820.61276,412.83719 821.25,428.5 C 838.615,413.22148 852.72951,418.44194 859.75,412.25 C 866.45803,406.33365 871.79082,399.15986 874,393.25"
             id="path21327"
             style="fill:none;fill-opacity:1;fill-rule:evenodd;stroke:#000000;stroke-width:0.74143493;stroke-linecap:round;stroke-linejoin:miter;stroke-miterlimit:4;stroke-dasharray:none;stroke-opacity:1" />
          <path
             d="M 822.25,427.75 C 805.49027,412.69054 785.19769,417.04597 783,396 C 781.79477,389.92287 781.90542,386.4775 782,383"
             id="path21329"
             style="fill:none;fill-opacity:1;fill-rule:evenodd;stroke:#000000;stroke-width:0.74143493;stroke-linecap:round;stroke-linejoin:miter;stroke-miterlimit:4;stroke-dasharray:none;stroke-opacity:1" />
          <path
             d="M 821,427.25 C 809.51138,432.8834 784.66562,433.72244 778.75,430"
             id="path21331"
             style="fill:#008f4c;fill-opacity:1;fill-rule:evenodd;stroke:#000000;stroke-width:0.74143493;stroke-linecap:round;stroke-linejoin:miter;stroke-miterlimit:4;stroke-dasharray:none;stroke-opacity:1" />
          <path
             d="M 822.5,427.5 C 829.4141,426.75171 835.78562,426.36514 838.75,428.25 C 851.29096,433.45934 862.41126,434.72664 864.75,434.75"
             id="path21333"
             style="fill:#008f4c;fill-opacity:1;fill-rule:evenodd;stroke:#000000;stroke-width:0.74143493;stroke-linecap:round;stroke-linejoin:miter;stroke-miterlimit:4;stroke-dasharray:none;stroke-opacity:1" />
        </g>
      </g>
      <path
         d="M 264.46541,573.95949 L 276.11728,506.39936 C 276.11728,506.39936 267.455,513.26592 267.37347,513.78003 C 264.83294,529.80486 255.73078,537.37385 254.02378,531.82823 C 253.08779,529.59836 254.74001,526.80132 248.9208,525.64145 L 240.50868,531.04025 C 240.50868,531.04025 241.41174,526.79385 239.77547,526.4623 C 238.13915,526.13073 233.96345,529.71409 233.96345,529.71409 L 234.18,527.2283 L 231.19322,528.57287 C 231.19322,528.57287 232.39891,526.59496 229.98731,526.39875 C 227.57572,526.20259 221.54689,527.78818 221.54689,527.78818 C 221.54689,527.78818 226.03068,520.21527 225.6759,517.86621 C 225.32111,515.51711 220.12777,518.39181 220.12777,518.39181 C 220.12777,518.39181 221.48702,515.63265 220.53341,514.94447 C 219.57977,514.2563 216.31317,515.63915 216.31317,515.63915 C 216.31317,515.63915 217.64884,513.00019 216.6243,512.67261 C 215.59976,512.34503 205.98093,510.03611 205.98093,510.03611 C 205.98093,510.03611 211.02454,506.53861 210.89042,504.45171 C 210.75631,502.3648 205.44452,501.68849 205.44452,501.68849 C 205.44452,501.68849 208.35352,501.08557 208.17516,500.26202 C 207.99684,499.43847 204.73109,498.39433 204.73109,498.39433 C 204.73109,498.39433 212.89994,502.53918 205.57426,496.87541 C 198.24856,491.21161 197.78355,490.8074 197.78355,490.8074 C 197.78355,490.8074 206.51968,492.06759 206.43286,489.74029 C 206.34601,487.41299 197.43622,481.49824 197.43622,481.49824 C 197.43622,481.49824 203.36775,483.52245 203.33507,480.57374 C 203.32509,479.67301 198.86644,478.37846 198.86644,478.37846 C 198.86644,478.37846 202.72116,477.11978 200.90346,474.94169 C 199.08578,472.76362 190.05894,469.17486 191.59575,469.66622 C 193.13258,470.15759 211.39299,474.20744 211.39299,474.20744 C 211.39299,474.20744 208.26303,470.68578 211.35343,471.63978 C 214.65344,472.65848 226.91835,483.53977 230.35495,474.64907 C 234.20109,464.69881 212.35866,464.82759 211.55793,465.06205 C 211.55793,465.06205 216.81643,463.93283 215.17906,461.87624 C 213.54166,459.81973 205.00836,456.83588 205.00836,456.83588 C 205.00836,456.83588 209.06506,456.28049 208.64925,454.93392 C 208.23346,453.58734 203.34513,451.44953 203.34513,451.44953 C 203.34513,451.44953 206.64527,450.5884 206.21765,449.30189 C 205.79001,448.0154 201.63467,446.30358 201.63467,446.30358 C 201.63467,446.30358 204.12104,444.73512 204.08942,443.51136 C 204.05785,442.28765 201.50828,441.40859 201.50828,441.40859 L 201.76443,441.49049 L 201.28736,436.99438 C 201.28736,436.99438 206.86734,441.60718 209.61777,441.46455 C 214.46394,440.55626 209.27546,435.49307 206.98503,432.93952 C 206.98503,432.93952 210.22026,434.48494 210.2005,433.2011 C 210.18072,431.91725 208.04481,428.93481 208.04481,428.93481 C 208.04481,428.93481 210.38851,430.51455 210.79525,428.79218 C 211.202,427.06983 209.67179,422.04538 209.67179,422.04538 C 209.84374,422.89647 216.13108,430.29894 216.16973,423.61194 C 216.17698,422.35673 215.1804,418.95206 215.1804,418.95206 C 215.1804,418.95206 216.82769,421.65052 217.74176,419.77099 C 218.65583,417.89152 218.83671,411.43397 218.83671,411.43397 C 218.79442,412.12905 223.38137,421.22838 225.65783,414.12592 C 226.32396,412.04762 226.46917,407.23119 226.46917,407.23119 C 226.46917,407.23119 228.24151,408.94767 229.28668,408.13203 C 230.33184,407.31644 229.36916,403.55933 230.64983,403.9688 C 231.93051,404.37827 232.78275,405.92828 234.02686,404.79304 C 235.27099,403.6578 234.29843,399.25879 235.6264,399.42788 C 236.95432,399.59695 239.84225,391.83319 240.16542,392.95852 C 240.48861,394.08387 242.75694,404.00728 244.55593,406.62647 C 246.35493,409.24569 247.36137,403.4354 247.36137,403.4354 L 247.413,410.09499 C 247.413,410.09499 251.43205,406.26994 251.49912,407.31338 C 251.56616,408.35683 248.50894,418.36602 248.50894,418.36602 L 250.9087,418.62227 L 251.03946,430.41725 L 254.84194,429.07801 L 253.14017,437.73202 L 254.677,438.22339 L 253.97999,445.92115 C 254.15525,448.82358 251.95323,458.46246 256.80718,457.84806 C 259.4065,461.24287 265.55109,459.64208 266.05844,455.67772 C 266.43594,452.72763 263.16134,446.30164 263.16134,446.30164 L 257.39994,439.605 L 258.66085,438.73063 L 255.93353,430.44904 L 258.02993,430.86381 L 253.41508,422.48969 L 259.81849,424.53705 L 257.31983,417.86158 C 257.31983,417.86158 258.90974,421.03197 261.32347,419.65267 C 264.62054,417.76855 262.42637,412.65953 264.1718,409.32118 C 267.19287,411.95568 272.25644,423.58536 274.98886,416.61228 C 275.86949,414.36493 274.55907,411.87579 274.55907,411.87579 L 278.49564,412.62342 L 278.12854,402.0304 C 278.12854,402.0304 281.26646,407.18565 282.42787,406.47106 C 283.5893,405.75652 282.7742,399.17218 282.7742,399.17218 C 282.7742,399.17218 284.7752,402.49473 285.82034,401.67917 C 286.86552,400.86354 285.93029,395.58221 286.95486,395.90978 C 287.97939,396.23736 290.14389,399.42056 291.58509,398.66773 C 293.02629,397.91489 291.4389,392.48892 292.7196,392.8984 C 294.00027,393.30786 295.04568,396.64428 296.93207,395.01176 C 298.81852,393.37923 300.26523,386.3683 300.26523,386.3683 C 300.26523,386.3683 302.61217,393.12302 304.2732,395.05938 C 305.93422,396.99574 306.84227,393.07025 306.90933,394.1137 C 306.9764,395.15717 307.03766,398.30667 308.78142,399.82236 C 310.52514,401.338 313.88433,400.1764 313.88433,400.1764 C 313.88433,400.1764 311.75086,404.79596 313.21483,406.34993 C 314.67881,407.90389 319.74028,406.39225 319.74028,406.39225 C 319.74028,406.39225 318.35842,410.99662 319.07077,412.56577 C 319.78309,414.13494 322.58962,412.66885 322.58962,412.66885 C 322.58962,412.66885 320.5655,417.77051 321.77828,419.56355 C 322.99104,421.35658 327.44076,419.84099 327.44076,419.84099 C 327.44076,419.84099 324.2455,423.7399 324.37151,425.75827 C 324.81435,432.85112 333.51946,426.30848 333.55283,426.13877 C 333.55283,426.13877 329.86602,434.15812 329.53814,436.86384 C 329.21025,439.56954 332.65986,435.17915 332.2413,436.96156 C 331.82272,438.74404 327.90056,442.96345 327.86387,443.99362 C 327.62298,450.75625 343.00682,444.51473 343.05836,444.25266 C 343.05836,444.25266 340.29743,450.3324 340.58817,452.66102 C 340.87892,454.98964 344.22137,453.56714 344.22137,453.56714 C 344.22137,453.56714 340.53126,456.41148 340.71456,457.55601 C 340.89786,458.70049 346.12092,457.75156 344.95456,458.14514 C 343.78819,458.53875 340.14043,460.82174 339.30414,461.95963 C 338.46787,463.09751 344.45435,462.07327 341.60936,462.69668 L 323.184,467.79219 C 319.044,470.18698 312.16255,474.36757 314.27187,478.50257 C 319.44187,488.63768 328.51406,482.19239 330.21493,473.3799 L 335.70282,466.42923 L 340.92779,464.77828 C 340.92779,464.77828 340.25117,467.18084 341.92485,466.63009 C 343.59854,466.07931 347.62252,462.57521 347.62252,462.57521 C 347.62252,462.57521 347.84346,466.98942 349.05708,466.35544 C 350.27072,465.72146 355.37142,462.62549 357.36335,462.87912 C 359.35524,463.13272 355.85843,467.76354 357.02482,467.36994 C 358.19118,466.97633 364.4407,465.65295 364.4407,465.65295 C 364.4407,465.65295 360.74488,470.60339 365.36297,469.26937 C 369.98117,467.9354 373.96506,468.44264 373.96506,468.44264 C 373.96506,468.44264 370.08282,471.22557 369.19728,473.30587 C 368.31178,475.38615 370.42293,476.76378 370.42293,476.76378 C 370.42293,476.76378 366.47376,478.50327 366.45125,480.3485 C 366.4287,482.19368 370.3328,484.14456 370.3328,484.14456 C 370.3328,484.14456 365.71953,485.79947 365.54533,487.72395 C 365.37112,489.6484 371.50358,490.65099 369.63575,491.84235 C 367.76811,493.03369 362.70366,493.52237 362.42114,496.68968 C 362.1386,499.85702 369.53023,504.83925 368.50567,504.51166 C 367.48112,504.18409 365.8951,504.63514 365.31001,505.53396 C 364.72491,506.43278 367.18973,508.4345 366.16529,508.10695 C 365.14073,507.77937 362.76848,505.99886 362.32321,506.87852 C 361.87798,507.75818 364.38439,511.62562 364.38439,511.62562 C 364.38439,511.62562 359.02228,510.1667 359.25396,512.7958 C 359.48563,515.4249 365.31105,522.14203 365.31105,522.14203 C 365.31105,522.14203 359.83569,521.60508 358.1315,522.65709 C 356.42732,523.70906 359.51881,526.67771 358.49423,526.35012 C 357.46971,526.02254 354.90835,525.20361 354.90835,525.20361 C 354.90835,525.20361 355.99224,529.3827 354.24655,528.56905 C 352.32666,524.83497 334.9105,512.4881 333.43716,519.13078 C 332.19521,524.73026 352.24979,533.18547 352.5602,531.60692 C 352.5602,531.60692 348.76543,530.1381 350.01857,532.07179 C 351.27173,534.00551 361.00936,544.01749 361.00936,544.01749 C 361.00936,544.01749 351.96386,540.86992 348.82916,540.88965 C 345.69453,540.90943 349.49521,544.42415 348.47066,544.09657 C 347.44611,543.769 343.59125,540.87572 342.37071,541.89075 C 341.15018,542.90578 343.58864,548.15672 343.58864,548.15672 L 337.3546,543.86401 C 337.3546,543.86401 339.10462,551.57762 337.31166,551.00436 C 335.51873,550.43111 331.1878,544.76671 328.84713,544.20994 C 326.50644,543.65321 329.74194,549.35062 327.94897,548.77735 C 326.156,548.20409 322.08533,545.36954 322.08533,545.36954 C 322.08533,545.36954 326.55833,554.4648 324.2531,553.72775 C 321.94785,552.9907 314.19674,549.49044 314.19674,549.49044 C 314.19674,549.49044 315.86763,552.0687 314.84308,551.74112 C 313.81857,551.41355 310.05128,548.42051 310.05128,548.42051 L 309.77973,553.95476 C 309.77973,553.95476 306.17704,548.48803 303.36425,547.8155 C 297.44105,546.39928 299.05386,555.89098 299.05386,555.89098 L 295.01837,548.72413 L 292.11405,545.49601 L 290.38044,548.77428 L 288.25222,542.98375 L 283.74838,545.12078 L 287.53083,536.68302 C 287.53083,536.68302 280.11227,544.05211 279.29939,543.25992 C 277.20759,541.22136 280.20609,527.86858 285.24031,519.53645 C 288.78604,513.66786 279.02934,506.81943 279.02934,506.81943 L 267.39722,575.66336 L 264.46541,573.95949 z"
         id="path21309"
         style="fill:#008f4c;fill-opacity:1;fill-rule:evenodd;stroke:#000000;stroke-width:1.11897743;stroke-linecap:butt;stroke-linejoin:miter;stroke-miterlimit:4;stroke-dasharray:none;stroke-opacity:1;display:inline" />
      <g
         transform="matrix(1.3898859,0.4443872,-0.2997794,1.5244742,-735.34706,-511.98224)"
         id="g21311"
         style="fill:#008f4c;fill-opacity:1;stroke:#000000;stroke-width:0.74564314;stroke-linecap:round;stroke-miterlimit:4;stroke-dasharray:none;stroke-opacity:1">
        <path
           d="M 823.5,359 L 823.25,358.5 C 827.07306,365.8906 826.78662,374.50852 825.25,382.25 C 822.15465,397.84431 820.61276,412.83719 821.25,428.5 C 838.615,413.22148 852.72951,418.44194 859.75,412.25 C 866.45803,406.33365 871.79082,399.15986 874,393.25"
           id="path21313"
           style="fill:none;fill-opacity:1;fill-rule:evenodd;stroke:#000000;stroke-width:0.74564314;stroke-linecap:round;stroke-linejoin:miter;stroke-miterlimit:4;stroke-dasharray:none;stroke-opacity:1" />
        <path
           d="M 822.25,427.75 C 805.49027,412.69054 785.19769,417.04597 783,396 C 781.79477,389.92287 781.90542,386.4775 782,383"
           id="path21315"
           style="fill:none;fill-opacity:1;fill-rule:evenodd;stroke:#000000;stroke-width:0.74564314;stroke-linecap:round;stroke-linejoin:miter;stroke-miterlimit:4;stroke-dasharray:none;stroke-opacity:1" />
        <path
           d="M 821,427.25 C 809.51138,432.8834 784.66562,433.72244 778.75,430"
           id="path21317"
           style="fill:#008f4c;fill-opacity:1;fill-rule:evenodd;stroke:#000000;stroke-width:0.74564314;stroke-linecap:round;stroke-linejoin:miter;stroke-miterlimit:4;stroke-dasharray:none;stroke-opacity:1" />
        <path
           d="M 822.5,427.5 C 829.4141,426.75171 835.78562,426.36514 838.75,428.25 C 851.29096,433.45934 862.41126,434.72664 864.75,434.75"
           id="path21319"
           style="fill:#008f4c;fill-opacity:1;fill-rule:evenodd;stroke:#000000;stroke-width:0.74564314;stroke-linecap:round;stroke-linejoin:miter;stroke-miterlimit:4;stroke-dasharray:none;stroke-opacity:1" />
      </g>
      <g
         transform="matrix(-1.2484981,0.985606,-1.0757923,-1.2560709,1802.1687,360.93878)"
         id="g20384"
         style="fill:#008f4c;fill-opacity:1;stroke:#000000;stroke-width:0.69018668;stroke-miterlimit:4;stroke-dasharray:none;stroke-opacity:1">
        <path
           d="M 821.34959,472.91356 L 820.24386,428.91888 C 820.24386,428.91888 815.29419,434.86593 815.30744,435.19931 C 815.72081,445.59052 810.56688,452.05788 808.67318,448.97218 C 807.74276,447.78068 808.48886,445.72843 804.39531,446.16088 L 799.4196,451.15273 C 799.4196,451.15273 799.46565,448.35382 798.31388,448.47207 C 797.16209,448.59032 794.81245,451.6258 794.81245,451.6258 L 794.62815,450.04894 L 792.78531,451.46812 C 792.78531,451.46812 793.33818,450.00952 791.67959,450.3643 C 790.02102,450.7191 786.15103,452.8873 786.15103,452.8873 C 786.15103,452.8873 788.17815,447.32883 787.62531,445.94909 C 787.07245,444.56932 783.93961,447.36825 783.93961,447.36825 C 783.93961,447.36825 784.49244,445.39719 783.75531,445.16064 C 783.01817,444.92411 780.99101,446.42213 780.99101,446.42213 C 780.99101,446.42213 781.54387,444.5299 780.80673,444.5299 C 780.06959,444.5299 773.25103,445.00295 773.25103,445.00295 C 773.25103,445.00295 776.1996,441.84921 775.83102,440.58772 C 775.46244,439.32622 771.77674,439.95698 771.77674,439.95698 C 771.77674,439.95698 773.66566,439.01086 773.4353,438.53779 C 773.20496,438.06472 770.85531,438.06472 770.85531,438.06472 C 770.85531,438.06472 776.93673,439.01085 771.22388,436.96093 C 765.51102,434.91099 765.14244,434.75329 765.14244,434.75329 C 765.14244,434.75329 771.22388,433.80718 770.85531,432.38799 C 770.48673,430.96881 763.66815,429.07657 763.66815,429.07657 C 763.66815,429.07657 767.95279,429.1554 767.53816,427.34202 C 767.4115,426.78809 764.22101,426.86895 764.22101,426.86895 C 764.22101,426.86895 766.66282,425.33151 765.14244,424.34595 C 763.62208,423.36041 757.03389,422.92678 758.1396,422.92678 C 759.24532,422.92678 772.14531,421.82296 772.14531,421.82296 C 772.14531,421.82296 769.55779,420.26715 771.77674,420.24611 C 774.1462,420.22364 783.89704,424.51898 785.03989,418.35386 C 786.31892,411.45401 771.55042,415.84353 771.03959,416.14624 C 771.03959,416.14624 774.44888,414.41169 773.06675,413.46554 C 771.6846,412.51944 765.51102,412.36175 765.51102,412.36175 C 765.51102,412.36175 768.18317,411.2185 767.72245,410.4695 C 767.26174,409.72049 763.66815,409.3657 763.66815,409.3657 C 763.66815,409.3657 765.78746,408.18305 765.32674,407.47345 C 764.86602,406.76386 761.8253,406.52734 761.8253,406.52734 C 761.8253,406.52734 763.2996,405.06873 763.1153,404.31971 C 762.93103,403.57071 761.08816,403.53128 761.08816,403.53128 L 761.27246,403.53128 L 760.35102,400.8506 C 760.35102,400.8506 764.74227,402.59637 766.58511,401.96562 C 769.74469,400.44879 765.55851,398.3478 763.66815,397.2238 C 763.66815,397.2238 766.06387,397.53919 765.8796,396.75075 C 765.69531,395.96231 763.85247,394.54313 763.85247,394.54313 C 763.85247,394.54313 765.64925,395.05562 765.69531,393.91238 C 765.74139,392.76914 764.03673,389.9702 764.03673,389.9702 C 764.26642,390.46153 769.50783,393.7894 768.64387,389.65482 C 768.48169,388.87872 767.35388,386.97414 767.35388,386.97414 C 767.35388,386.97414 768.82817,388.31447 769.19673,386.97414 C 769.5653,385.63383 768.82816,381.61279 768.82816,381.61279 C 768.89206,382.05011 773.20831,386.76074 773.80387,381.92818 C 773.97814,380.51409 773.4353,377.51293 773.4353,377.51293 C 773.4353,377.51293 774.86353,378.22254 775.46245,377.51293 C 776.06138,376.80334 774.9096,374.67456 775.83102,374.67456 C 776.75245,374.67456 777.53568,375.463 778.22673,374.51688 C 778.91779,373.57076 777.67388,371.04777 778.59532,370.89008 C 779.51673,370.73239 780.43817,365.37104 780.80673,366.00178 C 781.17531,366.63253 784.03173,372.30928 785.59816,373.57076 C 787.1646,374.83225 787.07245,371.04777 787.07245,371.04777 L 787.99388,375.14762 C 787.99388,375.14762 790.20531,371.99389 790.3896,372.62463 C 790.57388,373.25538 789.83673,380.03592 789.83673,380.03592 L 791.4953,379.72054 L 793.15388,386.97414 L 795.54959,385.39729 L 795.54959,391.07401 L 796.65531,391.07401 L 797.20816,395.96231 C 797.71315,397.71899 797.50562,404.10224 800.70959,402.76526 C 802.92102,404.34749 806.86735,402.14707 806.68308,399.60031 C 806.54592,397.70514 803.47388,394.38543 803.47388,394.38543 L 798.68245,391.38938 L 799.4196,390.60095 L 796.47102,386.02804 L 797.94533,385.87035 L 793.70673,381.61279 L 798.31388,381.61279 L 795.73388,377.986 C 795.73388,377.986 797.23215,379.62891 798.68245,378.30137 C 800.66352,376.48798 798.49816,373.76785 799.2353,371.36313 C 801.63102,372.39292 806.60673,378.57113 807.52816,373.72845 C 807.82513,372.1677 806.60673,370.89008 806.60673,370.89008 L 809.37101,370.57471 L 807.71244,364.10954 C 807.71244,364.10954 810.52281,366.67197 811.21387,366.00178 C 811.90495,365.33162 810.47673,361.42886 810.47673,361.42886 C 810.47673,361.42886 812.27353,363.08456 812.87245,362.37499 C 813.47138,361.66538 812.13529,358.59049 812.87245,358.59049 C 813.60958,358.59049 815.49851,360.12793 816.37388,359.37893 C 817.24924,358.62992 815.45244,355.59445 816.37388,355.59445 C 817.2953,355.59445 818.44708,357.44727 819.50672,356.06751 C 820.56638,354.68774 820.61245,350.07539 820.61245,350.07539 C 820.61245,350.07539 823.10029,353.78104 824.48244,354.64832 C 825.86458,355.51561 825.95672,352.91376 826.14101,353.54451 C 826.32531,354.17526 826.78602,356.10692 828.16817,356.69826 C 829.55029,357.28958 831.66958,355.90983 831.66958,355.90983 C 831.66958,355.90983 830.84031,359.18183 832.03816,359.852 C 833.23601,360.52217 836.46102,358.59049 836.46102,358.59049 C 836.46102,358.59049 836.13851,361.70481 836.82959,362.53266 C 837.52065,363.36053 839.2253,361.90192 839.2253,361.90192 C 839.2253,361.90192 838.53422,365.44988 839.59386,366.31716 C 840.65349,367.18444 843.46386,365.37104 843.46386,365.37104 C 843.46386,365.37104 841.81991,368.4078 842.17388,369.62859 C 843.4178,373.91864 848.43958,368.16304 848.43958,368.05172 C 848.43958,368.05172 847.01137,373.72845 847.14959,375.46301 C 847.2878,377.19757 849.0385,373.8073 848.99243,374.98993 C 848.94635,376.1726 846.85301,379.55059 846.9653,380.19361 C 847.70244,384.41478 857.28529,377.52714 857.28529,377.35524 C 857.28529,377.35524 856.22565,381.65221 856.73243,383.03198 C 857.23921,384.41174 859.31244,382.87429 859.31244,382.87429 C 859.31244,382.87429 857.19314,385.35785 857.46957,386.02804 C 857.746,386.6982 861.15529,385.08192 860.41815,385.55497 C 859.681,386.02804 857.51564,388.15681 857.101,389.02409 C 856.68638,389.89136 860.60243,388.07796 858.75957,389.02409 L 846.9653,395.80462 C 844.48161,398.09951 840.37989,402.03749 842.35816,404.17323 C 847.20697,409.40806 852.49019,403.64011 852.4685,397.86576 L 855.25815,392.49318 L 858.57529,390.44326 C 858.57529,390.44326 858.43708,392.05955 859.49673,391.38938 C 860.55637,390.71921 862.81385,387.76258 862.81385,387.76258 C 862.81385,387.76258 863.551,390.44326 864.28814,389.81252 C 865.02529,389.18177 868.06596,386.26457 869.4481,386.02804 C 870.83022,385.7915 869.07957,389.33947 869.81673,388.8664 C 870.55387,388.39333 874.60816,386.34341 874.60816,386.34341 C 874.60816,386.34341 872.76534,390.1279 875.71386,388.39333 C 878.66245,386.65878 881.42676,386.18571 881.42676,386.18571 C 881.42676,386.18571 879.16923,388.66928 878.8467,390.1279 C 878.5242,391.5865 880.13667,392.02014 880.13667,392.02014 C 880.13667,392.02014 877.69493,393.87295 877.92532,395.0162 C 878.15567,396.15942 881.05814,396.59305 881.05814,396.59305 C 881.05814,396.59305 878.1556,398.52471 878.29385,399.7468 C 878.43209,400.96887 882.71676,400.37755 881.61097,401.48137 C 880.5053,402.58515 877.1421,403.88609 877.37247,405.89658 C 877.60283,407.90709 883.26959,409.52338 882.53244,409.52338 C 881.7953,409.52338 880.78172,410.11471 880.5053,410.78488 C 880.22888,411.45505 882.16383,412.20406 881.42676,412.20406 C 880.68961,412.20406 878.84677,411.57331 878.66245,412.20406 C 878.47816,412.83481 880.68961,414.72706 880.68961,414.72706 C 880.68961,414.72706 876.86568,414.88475 877.37247,416.46161 C 877.87926,418.03848 882.71676,421.03453 882.71676,421.03453 C 882.71676,421.03453 878.93889,421.78356 877.92532,422.7691 C 876.91175,423.75462 879.39962,424.97672 878.66245,424.97672 C 877.92532,424.97672 876.08247,424.97672 876.08247,424.97672 C 876.08247,424.97672 877.37247,427.34202 876.08247,427.18433 C 874.28579,425.25865 860.85285,421.07527 860.73975,425.4656 C 860.6444,429.16645 875.34532,430.42742 875.34532,429.39194 C 875.34532,429.39194 872.58103,429.23425 873.68671,430.18037 C 874.79241,431.12651 882.71676,435.38404 882.71676,435.38404 C 882.71676,435.38404 876.17467,435.22638 874.05534,435.85711 C 871.93607,436.48786 874.9767,437.90704 874.23955,437.90704 C 873.5024,437.90704 870.50782,436.88208 869.81673,437.74936 C 869.12564,438.61664 871.47526,441.37615 871.47526,441.37615 L 866.68387,439.95698 C 866.68387,439.95698 868.89528,444.3722 867.60528,444.3722 C 866.31529,444.3722 862.62958,441.73095 860.97101,441.84921 C 859.31244,441.96749 862.26102,444.84527 860.97101,444.84527 C 859.681,444.84527 856.54815,443.89914 856.54815,443.89914 C 856.54815,443.89914 860.78673,448.62975 859.12815,448.62975 C 857.46957,448.62975 851.75673,447.99901 851.75673,447.99901 C 851.75673,447.99901 853.231,449.2605 852.49385,449.2605 C 851.75673,449.2605 848.80815,448.15669 848.80815,448.15669 L 849.36101,451.6258 C 849.36101,451.6258 846.19458,448.96284 844.20101,449.10282 C 840.00294,449.39757 842.35816,454.93723 842.35816,454.93723 L 838.67244,451.31043 L 836.27673,449.89125 L 835.53959,452.25656 L 833.32815,449.10282 L 830.56387,451.31043 L 832.00112,445.3566 C 832.00112,445.3566 827.96024,451.36838 827.30453,451.03988 C 825.61719,450.19452 825.86951,441.36202 828.16817,435.22638 C 829.78717,430.90486 822.27102,428.60351 822.27102,428.60351 L 823.56101,473.38661 L 821.34959,472.91356 z"
           id="path10836"
           style="fill:#008f4c;fill-opacity:1;fill-rule:evenodd;stroke:#000000;stroke-width:0.69018668;stroke-linecap:butt;stroke-linejoin:miter;stroke-miterlimit:4;stroke-dasharray:none;stroke-opacity:1;display:inline" />
        <g
           id="g19493"
           style="fill:#008f4c;fill-opacity:1;stroke:#000000;stroke-width:0.69018668;stroke-linecap:round;stroke-miterlimit:4;stroke-dasharray:none;stroke-opacity:1">
          <path
             d="M 823.5,359 L 823.25,358.5 C 827.07306,365.8906 826.78662,374.50852 825.25,382.25 C 822.15465,397.84431 820.61276,412.83719 821.25,428.5 C 838.615,413.22148 852.72951,418.44194 859.75,412.25 C 866.45803,406.33365 871.79082,399.15986 874,393.25"
             id="path18600"
             style="fill:none;fill-opacity:1;fill-rule:evenodd;stroke:#000000;stroke-width:0.69018668;stroke-linecap:round;stroke-linejoin:miter;stroke-miterlimit:4;stroke-dasharray:none;stroke-opacity:1" />
          <path
             d="M 822.25,427.75 C 805.49027,412.69054 785.19769,417.04597 783,396 C 781.79477,389.92287 781.90542,386.4775 782,383"
             id="path18602"
             style="fill:none;fill-opacity:1;fill-rule:evenodd;stroke:#000000;stroke-width:0.69018668;stroke-linecap:round;stroke-linejoin:miter;stroke-miterlimit:4;stroke-dasharray:none;stroke-opacity:1" />
          <path
             d="M 821,427.25 C 809.51138,432.8834 784.66562,433.72244 778.75,430"
             id="path18604"
             style="fill:#008f4c;fill-opacity:1;fill-rule:evenodd;stroke:#000000;stroke-width:0.69018668;stroke-linecap:round;stroke-linejoin:miter;stroke-miterlimit:4;stroke-dasharray:none;stroke-opacity:1" />
          <path
             d="M 822.5,427.5 C 829.4141,426.75171 835.78562,426.36514 838.75,428.25 C 851.29096,433.45934 862.41126,434.72664 864.75,434.75"
             id="path18606"
             style="fill:#008f4c;fill-opacity:1;fill-rule:evenodd;stroke:#000000;stroke-width:0.69018668;stroke-linecap:round;stroke-linejoin:miter;stroke-miterlimit:4;stroke-dasharray:none;stroke-opacity:1" />
        </g>
      </g>
      <path
         d="M 268.37141,585.44821 C 264.13568,585.44821 261.48835,584.83516 261.48835,584.83516 C 222.16751,614.13899 190.72302,655.03346 162.47811,693.95535 L 156.65397,686.59893 C 277.18896,531.96813 327.54061,539.87261 336.14314,528.43599 L 343.55566,533.95331 C 306.42345,551.97592 298.58629,552.55337 269.43035,578.0918 C 274.72501,580.62686 280.54915,581.76068 285.84381,603.22621 L 287.96168,637.55616 L 282.66701,637.55616 C 280.60629,621.14287 283.65469,593.5339 268.37141,585.44821 z"
         id="path11555"
         style="fill:#008f4c;fill-opacity:1;fill-rule:evenodd;stroke:#000000;stroke-width:1.11897743;stroke-linecap:butt;stroke-linejoin:miter;stroke-miterlimit:4;stroke-dasharray:none;stroke-opacity:1" />
    </g>
    <g
       transform="matrix(1.151006,0.1901249,-0.1901249,1.151006,81.798611,-194.69682)"
       id="g2923">
      <path
         d="M 322.18544,708.10838 C 314.67829,705.18205 310.56679,695.50423 313.00071,686.48901 C 315.43465,677.4738 323.49292,672.53289 331.00215,675.45149 C 338.5114,678.37008 342.62982,688.04366 340.20232,697.06137 C 337.77484,706.0791 329.72011,711.02831 322.20878,708.11745"
         id="path11535"
         style="fill:#630b57;fill-opacity:1;fill-rule:evenodd;stroke:#000000;stroke-width:0.77845639;stroke-linecap:round;stroke-linejoin:round;stroke-miterlimit:4;stroke-dasharray:none;stroke-dashoffset:0;stroke-opacity:1" />
      <path
         d="M 319.02084,691.89007 C 311.5137,688.96374 307.4022,679.28592 309.83612,670.2707 C 312.27006,661.25549 320.32833,656.31458 327.83756,659.23318 C 335.3468,662.15177 339.46522,671.82535 337.03773,680.84307 C 334.61025,689.86079 326.55551,694.81 319.04419,691.89914"
         id="path11505"
         style="fill:#630b57;fill-opacity:1;fill-rule:evenodd;stroke:#000000;stroke-width:0.77845639;stroke-linecap:round;stroke-linejoin:round;stroke-miterlimit:4;stroke-dasharray:none;stroke-dashoffset:0;stroke-opacity:1" />
      <path
         d="M 291.48862,661.23829 C 283.98147,658.31195 279.86997,648.63414 282.30389,639.61892 C 284.73783,630.60371 292.7961,625.6628 300.30533,628.5814 C 307.81457,631.49998 311.933,641.17357 309.5055,650.19128 C 307.07802,659.20901 299.02329,664.15821 291.51196,661.24736"
         id="path11507"
         style="fill:#630b57;fill-opacity:1;fill-rule:evenodd;stroke:#000000;stroke-width:0.77845639;stroke-linecap:round;stroke-linejoin:round;stroke-miterlimit:4;stroke-dasharray:none;stroke-dashoffset:0;stroke-opacity:1" />
      <path
         d="M 248.07235,663.69049 C 240.56521,660.76415 236.45371,651.08634 238.88763,642.07112 C 241.32157,633.05591 249.37984,628.115 256.88907,631.0336 C 264.39831,633.95218 268.51673,643.62577 266.08924,652.64348 C 263.66176,661.66121 255.60702,666.61041 248.0957,663.69956"
         id="path11509"
         style="fill:#630b57;fill-opacity:1;fill-rule:evenodd;stroke:#000000;stroke-width:0.77845639;stroke-linecap:round;stroke-linejoin:round;stroke-miterlimit:4;stroke-dasharray:none;stroke-dashoffset:0;stroke-opacity:1" />
      <path
         d="M 308.43155,647.75157 C 300.9244,644.82523 296.8129,635.14742 299.24682,626.1322 C 301.68076,617.11699 309.73903,612.17608 317.24826,615.09468 C 324.75751,618.01326 328.87593,627.68685 326.44843,636.70456 C 324.02095,645.72229 315.96622,650.67149 308.45489,647.76064"
         id="path11513"
         style="fill:#630b57;fill-opacity:1;fill-rule:evenodd;stroke:#000000;stroke-width:0.77845639;stroke-linecap:round;stroke-linejoin:round;stroke-miterlimit:4;stroke-dasharray:none;stroke-dashoffset:0;stroke-opacity:1" />
      <path
         d="M 322.19769,663.69049 C 314.69055,660.76415 310.57905,651.08634 313.01297,642.07112 C 315.44691,633.05591 323.50518,628.115 331.01441,631.0336 C 338.52365,633.95218 342.64207,643.62577 340.21458,652.64348 C 337.7871,661.66121 329.73236,666.61041 322.22104,663.69956"
         id="path11515"
         style="fill:#630b57;fill-opacity:1;fill-rule:evenodd;stroke:#000000;stroke-width:0.77845639;stroke-linecap:round;stroke-linejoin:round;stroke-miterlimit:4;stroke-dasharray:none;stroke-dashoffset:0;stroke-opacity:1" />
      <path
         d="M 248.45328,746.79287 C 240.94613,743.86654 236.83463,734.18872 239.26855,725.1735 C 241.70249,716.15829 249.76076,711.21739 257.26999,714.13598 C 264.77923,717.05457 268.89766,726.72815 266.47016,735.74587 C 264.04268,744.76359 255.98794,749.7128 248.47662,746.80194"
         id="path2751"
         style="fill:#630b57;fill-opacity:1;fill-rule:evenodd;stroke:#000000;stroke-width:0.77845639;stroke-linecap:round;stroke-linejoin:round;stroke-miterlimit:4;stroke-dasharray:none;stroke-dashoffset:0;stroke-opacity:1" />
      <path
         d="M 231.61231,745.67015 C 224.10517,742.74381 219.99367,733.066 222.42758,724.05078 C 224.86153,715.03557 232.9198,710.09466 240.42903,713.01326 C 247.93827,715.93184 252.05669,725.60543 249.6292,734.62314 C 247.20172,743.64087 239.14698,748.59007 231.63566,745.67922"
         id="path2761"
         style="fill:#630b57;fill-opacity:1;fill-rule:evenodd;stroke:#000000;stroke-width:0.77845639;stroke-linecap:round;stroke-linejoin:round;stroke-miterlimit:4;stroke-dasharray:none;stroke-dashoffset:0;stroke-opacity:1" />
      <path
         d="M 244.71387,693.11612 C 237.20672,690.18978 233.09522,680.51197 235.52914,671.49675 C 237.96308,662.48154 246.02135,657.54063 253.53058,660.45923 C 261.03983,663.37781 265.15825,673.0514 262.73075,682.06911 C 260.30327,691.08684 252.24854,696.03604 244.73721,693.12519"
         id="path11521"
         style="fill:#630b57;fill-opacity:1;fill-rule:evenodd;stroke:#000000;stroke-width:0.77845639;stroke-linecap:round;stroke-linejoin:round;stroke-miterlimit:4;stroke-dasharray:none;stroke-dashoffset:0;stroke-opacity:1" />
      <path
         d="M 219.82364,723.77691 C 212.31649,720.85057 208.20499,711.17276 210.63891,702.15754 C 213.07286,693.14233 221.13113,688.20142 228.64036,691.12002 C 236.1496,694.0386 240.26802,703.71219 237.84052,712.7299 C 235.41304,721.74763 227.35831,726.69683 219.84698,723.78598"
         id="path2759"
         style="fill:#630b57;fill-opacity:1;fill-rule:evenodd;stroke:#000000;stroke-width:0.77845639;stroke-linecap:round;stroke-linejoin:round;stroke-miterlimit:4;stroke-dasharray:none;stroke-dashoffset:0;stroke-opacity:1" />
      <path
         d="M 299.52145,678.40325 C 292.0143,675.47692 287.9028,665.7991 290.33672,656.78388 C 292.77066,647.76867 300.82893,642.82777 308.33816,645.74636 C 315.8474,648.66495 319.96583,658.33853 317.53833,667.35625 C 315.11085,676.37397 307.05612,681.32318 299.54479,678.41232"
         id="path11531"
         style="fill:#630b57;fill-opacity:1;fill-rule:evenodd;stroke:#000000;stroke-width:0.77845639;stroke-linecap:round;stroke-linejoin:round;stroke-miterlimit:4;stroke-dasharray:none;stroke-dashoffset:0;stroke-opacity:1" />
      <path
         d="M 262.097,682.42052 C 254.58986,679.49418 250.47836,669.81637 252.91228,660.80115 C 255.34622,651.78594 263.40449,646.84503 270.91372,649.76363 C 278.42296,652.68221 282.54138,662.3558 280.11389,671.37351 C 277.68641,680.39124 269.63167,685.34044 262.12035,682.42959"
         id="path11533"
         style="fill:#630b57;fill-opacity:1;fill-rule:evenodd;stroke:#000000;stroke-width:0.77845639;stroke-linecap:round;stroke-linejoin:round;stroke-miterlimit:4;stroke-dasharray:none;stroke-dashoffset:0;stroke-opacity:1" />
      <path
         d="M 270.52763,661.54155 C 263.02049,658.61522 258.90899,648.9374 261.3429,639.92218 C 263.77685,630.90697 271.83512,625.96606 279.34435,628.88466 C 286.85359,631.80325 290.97201,641.47683 288.54452,650.49455 C 286.11704,659.51227 278.0623,664.46148 270.55097,661.55062"
         id="path11511"
         style="fill:#630b57;fill-opacity:1;fill-rule:evenodd;stroke:#000000;stroke-width:0.77845639;stroke-linecap:round;stroke-linejoin:round;stroke-miterlimit:4;stroke-dasharray:none;stroke-dashoffset:0;stroke-opacity:1" />
      <path
         d="M 317.96192,759.32383 C 310.45478,756.3975 306.34328,746.71968 308.7772,737.70446 C 311.21114,728.68925 319.26941,723.74834 326.77864,726.66694 C 334.28788,729.58552 338.4063,739.25911 335.97881,748.27682 C 333.55133,757.29455 325.49659,762.24376 317.98527,759.3329"
         id="path11543"
         style="fill:#630b57;fill-opacity:1;fill-rule:evenodd;stroke:#000000;stroke-width:0.77845639;stroke-linecap:round;stroke-linejoin:round;stroke-miterlimit:4;stroke-dasharray:none;stroke-dashoffset:0;stroke-opacity:1" />
      <path
         d="M 310.28235,732.59936 C 302.77521,729.67302 298.66371,719.99521 301.09763,710.97999 C 303.53157,701.96478 311.58984,697.02387 319.09907,699.94247 C 326.60831,702.86105 330.72673,712.53464 328.29924,721.55235 C 325.87176,730.57008 317.81702,735.51928 310.3057,732.60843"
         id="path11537"
         style="fill:#630b57;fill-opacity:1;fill-rule:evenodd;stroke:#000000;stroke-width:0.77845639;stroke-linecap:round;stroke-linejoin:round;stroke-miterlimit:4;stroke-dasharray:none;stroke-dashoffset:0;stroke-opacity:1" />
      <path
         d="M 242.27825,764.75656 C 234.7711,761.83022 230.6596,752.15241 233.09352,743.13719 C 235.52747,734.12198 243.58573,729.18107 251.09496,732.09967 C 258.60421,735.01825 262.72263,744.69184 260.29513,753.70955 C 257.86765,762.72728 249.81292,767.67649 242.30159,764.76563"
         id="path2765"
         style="fill:#630b57;fill-opacity:1;fill-rule:evenodd;stroke:#000000;stroke-width:0.77845639;stroke-linecap:round;stroke-linejoin:round;stroke-miterlimit:4;stroke-dasharray:none;stroke-dashoffset:0;stroke-opacity:1" />
      <path
         d="M 274.83744,833.80448 C 267.33029,830.87814 263.21879,821.20033 265.65271,812.18511 C 268.08665,803.1699 276.14492,798.22899 283.65415,801.14759 C 291.1634,804.06617 295.28182,813.73976 292.85432,822.75747 C 290.42684,831.7752 282.37211,836.72441 274.86078,833.81355"
         id="path2775"
         style="fill:#630b57;fill-opacity:1;fill-rule:evenodd;stroke:#000000;stroke-width:0.77845639;stroke-linecap:round;stroke-linejoin:round;stroke-miterlimit:4;stroke-dasharray:none;stroke-dashoffset:0;stroke-opacity:1" />
      <path
         d="M 271.36888,791.20169 C 263.86174,788.27535 259.75024,778.59754 262.18416,769.58231 C 264.6181,760.56711 272.67637,755.6262 280.1856,758.5448 C 287.69484,761.46338 291.81326,771.13696 289.38577,780.15468 C 286.95829,789.17241 278.90355,794.12161 271.39223,791.21075"
         id="path11553"
         style="fill:#ed1c24;fill-opacity:1;fill-rule:evenodd;stroke:#000000;stroke-width:0.77845639;stroke-linecap:round;stroke-linejoin:round;stroke-miterlimit:4;stroke-dasharray:none;stroke-dashoffset:0;stroke-opacity:1" />
      <path
         d="M 258.55784,778.79069 C 251.0507,775.86436 246.9392,766.18654 249.37312,757.17132 C 251.80706,748.15611 259.86533,743.21521 267.37456,746.1338 C 274.8838,749.05239 279.00222,758.72597 276.57473,767.74369 C 274.14725,776.76141 266.09251,781.71062 258.58119,778.79976"
         id="path2749"
         style="fill:#630b57;fill-opacity:1;fill-rule:evenodd;stroke:#000000;stroke-width:0.77845639;stroke-linecap:round;stroke-linejoin:round;stroke-miterlimit:4;stroke-dasharray:none;stroke-dashoffset:0;stroke-opacity:1" />
      <path
         d="M 245.64645,790.018 C 238.1393,787.09166 234.0278,777.41385 236.46172,768.39863 C 238.89566,759.38342 246.95393,754.44251 254.46316,757.36111 C 261.9724,760.27969 266.09083,769.95328 263.66333,778.97099 C 261.23585,787.98872 253.18112,792.93792 245.66979,790.02707"
         id="path2767"
         style="fill:#630b57;fill-opacity:1;fill-rule:evenodd;stroke:#000000;stroke-width:0.77845639;stroke-linecap:round;stroke-linejoin:round;stroke-miterlimit:4;stroke-dasharray:none;stroke-dashoffset:0;stroke-opacity:1" />
      <path
         d="M 260.24194,810.78852 C 252.73479,807.86218 248.62329,798.18437 251.05721,789.16914 C 253.49115,780.15393 261.54942,775.21303 269.05865,778.13162 C 276.56789,781.05021 280.68632,790.72379 278.25882,799.74151 C 275.83134,808.75924 267.77661,813.70844 260.26528,810.79758"
         id="path2771"
         style="fill:#630b57;fill-opacity:1;fill-rule:evenodd;stroke:#000000;stroke-width:0.77845639;stroke-linecap:round;stroke-linejoin:round;stroke-miterlimit:4;stroke-dasharray:none;stroke-dashoffset:0;stroke-opacity:1" />
      <path
         d="M 271.36888,791.20169 C 263.86174,788.27535 259.75024,778.59754 262.18416,769.58231 C 264.6181,760.56711 272.67637,755.6262 280.1856,758.5448 C 287.69484,761.46338 291.81326,771.13696 289.38577,780.15468 C 286.95829,789.17241 278.90355,794.12161 271.39223,791.21075"
         id="path11503"
         style="fill:#630b57;fill-opacity:1;fill-rule:evenodd;stroke:#000000;stroke-width:0.77845639;stroke-linecap:round;stroke-linejoin:round;stroke-miterlimit:4;stroke-dasharray:none;stroke-dashoffset:0;stroke-opacity:1" />
      <path
         d="M 265.01528,758.09777 C 257.50814,755.17144 253.39664,745.49362 255.83056,736.4784 C 258.2645,727.46319 266.32277,722.52229 273.832,725.44088 C 281.34124,728.35947 285.45966,738.03305 283.03217,747.05077 C 280.60469,756.06849 272.54995,761.0177 265.03863,758.10684"
         id="path11547"
         style="fill:#630b57;fill-opacity:1;fill-rule:evenodd;stroke:#000000;stroke-width:0.77845639;stroke-linecap:round;stroke-linejoin:round;stroke-miterlimit:4;stroke-dasharray:none;stroke-dashoffset:0;stroke-opacity:1" />
      <path
         d="M 278.08584,769.42993 C 270.5787,766.50359 266.4672,756.82577 268.90112,747.81055 C 271.33506,738.79534 279.39333,733.85444 286.90256,736.77303 C 294.4118,739.69162 298.53022,749.3652 296.10273,758.38292 C 293.67525,767.40064 285.62051,772.34985 278.10919,769.43899"
         id="path11545"
         style="fill:#630b57;fill-opacity:1;fill-rule:evenodd;stroke:#000000;stroke-width:0.77845639;stroke-linecap:round;stroke-linejoin:round;stroke-miterlimit:4;stroke-dasharray:none;stroke-dashoffset:0;stroke-opacity:1" />
      <path
         d="M 293.60646,723.76783 C 286.09931,720.84149 281.98781,711.16368 284.42173,702.14846 C 286.85567,693.13325 294.91394,688.19234 302.42317,691.11094 C 309.93242,694.02952 314.05084,703.70311 311.62334,712.72082 C 309.19586,721.73855 301.14113,726.68775 293.6298,723.7769"
         id="path11527"
         style="fill:#630b57;fill-opacity:1;fill-rule:evenodd;stroke:#000000;stroke-width:0.77845639;stroke-linecap:round;stroke-linejoin:round;stroke-miterlimit:4;stroke-dasharray:none;stroke-dashoffset:0;stroke-opacity:1" />
      <path
         d="M 296.78331,705.37679 C 289.27616,702.45046 285.16466,692.77264 287.59858,683.75742 C 290.03252,674.74221 298.09079,669.8013 305.60002,672.7199 C 313.10927,675.63849 317.22769,685.31207 314.80019,694.32978 C 312.37271,703.34751 304.31798,708.29672 296.80665,705.38586"
         id="path11529"
         style="fill:#630b57;fill-opacity:1;fill-rule:evenodd;stroke:#000000;stroke-width:0.77845639;stroke-linecap:round;stroke-linejoin:round;stroke-miterlimit:4;stroke-dasharray:none;stroke-dashoffset:0;stroke-opacity:1" />
      <path
         d="M 266.95148,733.57638 C 259.44433,730.65004 255.33283,720.97223 257.76675,711.957 C 260.20069,702.94179 268.25896,698.00089 275.76819,700.91948 C 283.27744,703.83807 287.39586,713.51165 284.96836,722.52937 C 282.54088,731.5471 274.48615,736.4963 266.97482,733.58544"
         id="path11525"
         style="fill:#630b57;fill-opacity:1;fill-rule:evenodd;stroke:#000000;stroke-width:0.77845639;stroke-linecap:round;stroke-linejoin:round;stroke-miterlimit:4;stroke-dasharray:none;stroke-dashoffset:0;stroke-opacity:1" />
      <path
         d="M 281.95822,685.75969 C 274.45107,682.83335 270.33957,673.15554 272.77349,664.14031 C 275.20743,655.12511 283.2657,650.1842 290.77493,653.10279 C 298.28418,656.02138 302.4026,665.69496 299.9751,674.71268 C 297.54762,683.73041 289.49289,688.67961 281.98156,685.76875"
         id="path11517"
         style="fill:#630b57;fill-opacity:1;fill-rule:evenodd;stroke:#000000;stroke-width:0.77845639;stroke-linecap:round;stroke-linejoin:round;stroke-miterlimit:4;stroke-dasharray:none;stroke-dashoffset:0;stroke-opacity:1" />
      <path
         d="M 227.51326,668.00649 C 220.00611,665.08015 215.89461,655.40234 218.32853,646.38711 C 220.76247,637.37191 228.82074,632.431 236.32997,635.3496 C 243.83921,638.26818 247.95764,647.94176 245.53014,656.95948 C 243.10266,665.97721 235.04793,670.92641 227.5366,668.01555"
         id="path2755"
         style="fill:#630b57;fill-opacity:1;fill-rule:evenodd;stroke:#000000;stroke-width:0.77845639;stroke-linecap:round;stroke-linejoin:round;stroke-miterlimit:4;stroke-dasharray:none;stroke-dashoffset:0;stroke-opacity:1" />
      <path
         d="M 224.87593,694.02455 C 217.36878,691.09821 213.25728,681.4204 215.6912,672.40518 C 218.12515,663.38997 226.18342,658.44906 233.69265,661.36766 C 241.20189,664.28624 245.32031,673.95983 242.89282,682.97754 C 240.46533,691.99527 232.4106,696.94447 224.89927,694.03362"
         id="path2757"
         style="fill:#630b57;fill-opacity:1;fill-rule:evenodd;stroke:#000000;stroke-width:0.77845639;stroke-linecap:round;stroke-linejoin:round;stroke-miterlimit:4;stroke-dasharray:none;stroke-dashoffset:0;stroke-opacity:1" />
      <path
         d="M 240.59416,706.37458 C 233.08701,703.44824 228.97551,693.77043 231.40943,684.7552 C 233.84337,675.74 241.90164,670.79909 249.41087,673.71769 C 256.92011,676.63627 261.03854,686.30985 258.61104,695.32757 C 256.18356,704.3453 248.12883,709.2945 240.6175,706.38364"
         id="path2763"
         style="fill:#630b57;fill-opacity:1;fill-rule:evenodd;stroke:#000000;stroke-width:0.77845639;stroke-linecap:round;stroke-linejoin:round;stroke-miterlimit:4;stroke-dasharray:none;stroke-dashoffset:0;stroke-opacity:1" />
      <path
         d="M 256.54382,705.37679 C 249.03667,702.45046 244.92517,692.77264 247.35909,683.75742 C 249.79304,674.74221 257.8513,669.8013 265.36053,672.7199 C 272.86978,675.63849 276.9882,685.31207 274.5607,694.32978 C 272.13322,703.34751 264.07849,708.29672 256.56716,705.38586"
         id="path11519"
         style="fill:#630b57;fill-opacity:1;fill-rule:evenodd;stroke:#000000;stroke-width:0.77845639;stroke-linecap:round;stroke-linejoin:round;stroke-miterlimit:4;stroke-dasharray:none;stroke-dashoffset:0;stroke-opacity:1" />
      <path
         d="M 276.66355,711.50717 C 269.1564,708.58083 265.0449,698.90302 267.47882,689.88779 C 269.91277,680.87259 277.97104,675.93168 285.48027,678.85028 C 292.98951,681.76886 297.10793,691.44244 294.68044,700.46016 C 292.25295,709.47789 284.19822,714.42709 276.68689,711.51623"
         id="path11501"
         style="fill:#630b57;fill-opacity:1;fill-rule:evenodd;stroke:#000000;stroke-width:0.77845639;stroke-linecap:round;stroke-linejoin:round;stroke-miterlimit:4;stroke-dasharray:none;stroke-dashoffset:0;stroke-opacity:1" />
      <path
         d="M 245.9545,724.99389 C 238.44735,722.06755 234.33585,712.38974 236.76977,703.37451 C 239.20372,694.35931 247.26198,689.4184 254.77121,692.33699 C 262.28046,695.25558 266.39888,704.92916 263.97138,713.94688 C 261.5439,722.96461 253.48917,727.91381 245.97784,725.00295"
         id="path11523"
         style="fill:#630b57;fill-opacity:1;fill-rule:evenodd;stroke:#000000;stroke-width:0.77845639;stroke-linecap:round;stroke-linejoin:round;stroke-miterlimit:4;stroke-dasharray:none;stroke-dashoffset:0;stroke-opacity:1" />
      <path
         d="M 326.48304,807.98169 C 318.97589,805.05535 314.86439,795.37754 317.29831,786.36231 C 319.73226,777.34711 327.79053,772.4062 335.29976,775.3248 C 342.809,778.24338 346.92742,787.91696 344.49993,796.93468 C 342.07244,805.95241 334.01771,810.90161 326.50638,807.99075"
         id="path2783"
         style="fill:#630b57;fill-opacity:1;fill-rule:evenodd;stroke:#000000;stroke-width:0.77845639;stroke-linecap:round;stroke-linejoin:round;stroke-miterlimit:4;stroke-dasharray:none;stroke-dashoffset:0;stroke-opacity:1" />
      <path
         d="M 313.57164,785.52708 C 306.0645,782.60074 301.953,772.92293 304.38691,763.90771 C 306.82086,754.8925 314.87913,749.95159 322.38836,752.87019 C 329.8976,755.78877 334.01602,765.46236 331.58853,774.48007 C 329.16105,783.4978 321.10631,788.447 313.59499,785.53614"
         id="path2769"
         style="fill:#630b57;fill-opacity:1;fill-rule:evenodd;stroke:#000000;stroke-width:0.77845639;stroke-linecap:round;stroke-linejoin:round;stroke-miterlimit:4;stroke-dasharray:none;stroke-dashoffset:0;stroke-opacity:1" />
      <path
         d="M 302.85744,760.80277 C 295.3503,757.87643 291.2388,748.19862 293.67272,739.1834 C 296.10666,730.16819 304.16493,725.22728 311.67416,728.14588 C 319.1834,731.06446 323.30182,740.73805 320.87433,749.75576 C 318.44685,758.77349 310.39211,763.7227 302.88079,760.81184"
         id="path11541"
         style="fill:#630b57;fill-opacity:1;fill-rule:evenodd;stroke:#000000;stroke-width:0.77845639;stroke-linecap:round;stroke-linejoin:round;stroke-miterlimit:4;stroke-dasharray:none;stroke-dashoffset:0;stroke-opacity:1" />
      <path
         d="M 286.19395,749.5153 C 278.6868,746.58896 274.5753,736.91115 277.00922,727.89592 C 279.44317,718.88072 287.50144,713.93981 295.01067,716.85841 C 302.51991,719.77699 306.63833,729.45057 304.21084,738.46829 C 301.78335,747.48602 293.72862,752.43522 286.21729,749.52436"
         id="path11539"
         style="fill:#630b57;fill-opacity:1;fill-rule:evenodd;stroke:#000000;stroke-width:0.77845639;stroke-linecap:round;stroke-linejoin:round;stroke-miterlimit:4;stroke-dasharray:none;stroke-dashoffset:0;stroke-opacity:1" />
      <path
         d="M 317.5012,837.73403 C 309.99405,834.8077 305.88255,825.12988 308.31647,816.11466 C 310.75041,807.09945 318.80868,802.15855 326.31791,805.07714 C 333.82715,807.99573 337.94558,817.66931 335.51808,826.68703 C 333.0906,835.70475 325.03587,840.65396 317.52454,837.7431"
         id="path2781"
         style="fill:#630b57;fill-opacity:1;fill-rule:evenodd;stroke:#000000;stroke-width:0.77845639;stroke-linecap:round;stroke-linejoin:round;stroke-miterlimit:4;stroke-dasharray:none;stroke-dashoffset:0;stroke-opacity:1" />
      <path
         d="M 306.27389,809.66578 C 298.76674,806.73944 294.65524,797.06163 297.08916,788.04641 C 299.52311,779.0312 307.58138,774.09029 315.09061,777.00889 C 322.59985,779.92747 326.71827,789.60106 324.29078,798.61877 C 321.8633,807.6365 313.80856,812.5857 306.29723,809.67485"
         id="path2773"
         style="fill:#630b57;fill-opacity:1;fill-rule:evenodd;stroke:#000000;stroke-width:0.77845639;stroke-linecap:round;stroke-linejoin:round;stroke-miterlimit:4;stroke-dasharray:none;stroke-dashoffset:0;stroke-opacity:1" />
      <path
         d="M 292.54754,787.52343 C 285.04039,784.59709 280.92889,774.91928 283.36281,765.90406 C 285.79675,756.88885 293.85502,751.94794 301.36425,754.86654 C 308.8735,757.78512 312.99192,767.45871 310.56442,776.47642 C 308.13694,785.49415 300.08221,790.44335 292.57088,787.53249"
         id="path11549"
         style="fill:#630b57;fill-opacity:1;fill-rule:evenodd;stroke:#000000;stroke-width:0.77845639;stroke-linecap:round;stroke-linejoin:round;stroke-miterlimit:4;stroke-dasharray:none;stroke-dashoffset:0;stroke-opacity:1" />
      <path
         d="M 301.78297,864.11821 C 294.27582,861.19187 290.16432,851.51406 292.59824,842.49884 C 295.03219,833.48363 303.09046,828.54272 310.59969,831.46132 C 318.10893,834.3799 322.22735,844.05349 319.79985,853.0712 C 317.37237,862.08893 309.31764,867.03813 301.80631,864.12728"
         id="path2785"
         style="fill:#630b57;fill-opacity:1;fill-rule:evenodd;stroke:#000000;stroke-width:0.77845639;stroke-linecap:round;stroke-linejoin:round;stroke-miterlimit:4;stroke-dasharray:none;stroke-dashoffset:0;stroke-opacity:1" />
      <path
         d="M 282.13519,850.64544 C 274.62804,847.71911 270.51654,838.04129 272.95046,829.02607 C 275.38441,820.01086 283.44268,815.06996 290.95191,817.98855 C 298.46115,820.90714 302.57957,830.58072 300.15207,839.59844 C 297.72459,848.61616 289.66986,853.56537 282.15853,850.65451"
         id="path2779"
         style="fill:#630b57;fill-opacity:1;fill-rule:evenodd;stroke:#000000;stroke-width:0.77845639;stroke-linecap:round;stroke-linejoin:round;stroke-miterlimit:4;stroke-dasharray:none;stroke-dashoffset:0;stroke-opacity:1" />
      <path
         d="M 298.97614,832.68176 C 291.46899,829.75542 287.35749,820.07761 289.79141,811.06238 C 292.22536,802.04718 300.28363,797.10627 307.79286,800.02487 C 315.3021,802.94345 319.42052,812.61703 316.99303,821.63475 C 314.56554,830.65248 306.51081,835.60168 298.99948,832.69082"
         id="path2777"
         style="fill:#630b57;fill-opacity:1;fill-rule:evenodd;stroke:#000000;stroke-width:0.77845639;stroke-linecap:round;stroke-linejoin:round;stroke-miterlimit:4;stroke-dasharray:none;stroke-dashoffset:0;stroke-opacity:1" />
      <path
         d="M 285.13502,812.04484 C 277.62787,809.1185 273.51637,799.44069 275.95029,790.42547 C 278.38423,781.41026 286.4425,776.46935 293.95173,779.38795 C 301.46098,782.30653 305.5794,791.98012 303.1519,800.99783 C 300.72442,810.01556 292.66969,814.96476 285.15836,812.05391"
         id="path11551"
         style="fill:#630b57;fill-opacity:1;fill-rule:evenodd;stroke:#000000;stroke-width:0.77845639;stroke-linecap:round;stroke-linejoin:round;stroke-miterlimit:4;stroke-dasharray:none;stroke-dashoffset:0;stroke-opacity:1" />
    </g>
  </g>
</svg>
