<?xml version="1.0" encoding="UTF-8" standalone="no"?>
<!-- Created with Inkscape (http://www.inkscape.org/) -->

<svg
   xmlns:dc="http://purl.org/dc/elements/1.1/"
   xmlns:cc="http://creativecommons.org/ns#"
   xmlns:rdf="http://www.w3.org/1999/02/22-rdf-syntax-ns#"
   xmlns:svg="http://www.w3.org/2000/svg"
   xmlns="http://www.w3.org/2000/svg"
   xmlns:xlink="http://www.w3.org/1999/xlink"
   xmlns:sodipodi="http://sodipodi.sourceforge.net/DTD/sodipodi-0.dtd"
   xmlns:inkscape="http://www.inkscape.org/namespaces/inkscape"
   version="1.0"
   width="502"
   height="602"
   id="svg3194"
   inkscape:version="0.48.0 r9654"
   sodipodi:docname="Borrassà.svg">
  <metadata
     id="metadata30">
    <rdf:RDF>
      <cc:Work
         rdf:about="">
        <dc:format>image/svg+xml</dc:format>
        <dc:type
           rdf:resource="http://purl.org/dc/dcmitype/StillImage" />
      </cc:Work>
    </rdf:RDF>
  </metadata>
  <sodipodi:namedview
     pagecolor="#ffffff"
     bordercolor="#666666"
     borderopacity="1"
     objecttolerance="10"
     gridtolerance="10"
     guidetolerance="10"
     inkscape:pageopacity="0"
     inkscape:pageshadow="2"
     inkscape:window-width="1280"
     inkscape:window-height="954"
     id="namedview28"
     showgrid="false"
     inkscape:zoom="1.2470979"
     inkscape:cx="251"
     inkscape:cy="300.99999"
     inkscape:window-x="-4"
     inkscape:window-y="-4"
     inkscape:window-maximized="1"
     inkscape:current-layer="svg3194" />
  <defs
     id="defs3196" />
  <path
     style="fill:#db54bd;stroke:#000000;stroke-width:3;stroke-miterlimit:4;stroke-dasharray:none;display:inline"
     d="m 0.75000062,1.0000163 0,510.3124937 c 0,30.46356 24.53643038,55 55.00000038,55 l 148.437499,0 c 23.18185,0 40.07396,15.32659 46.8125,34.6875 6.73854,-19.36091 23.63065,-34.6875 46.8125,-34.6875 l 148.4375,0 c 30.46357,0 55,-24.53644 55,-55 l 0,-510.3124937 z"
     id="path11174"
     inkscape:connector-curvature="0"
     sodipodi:nodetypes="cssscssscc" />
  <g
     transform="translate(-293.22478,-223.09601)"
     id="layer1"
     style="display:inline">
    <rect
       width="0"
       height="22.382799"
       x="-643.80493"
       y="356.42798"
       transform="matrix(0.9733285,0.2294157,-0.2294157,0.9733285,0,0)"
       id="rect2743"
       style="fill:#008f4c;fill-opacity:1;fill-rule:evenodd;stroke:#0c0909;stroke-width:1.03836799;stroke-miterlimit:4;stroke-dasharray:none;stroke-opacity:1" />
    <g
       transform="matrix(0.8094547,0,0,0.752543,527.30337,17.757617)"
       id="g5579"
       style="fill:#c87137;fill-opacity:1;stroke-width:1.2812624;stroke-miterlimit:4;stroke-dasharray:none;display:inline" />
  </g>
  <g
     transform="translate(-236.79606,-299.73636)"
     id="layer4"
     style="display:inline">
    <g
       transform="translate(873.00016,-55.320157)"
       id="g5818" />
    <g
       transform="translate(873.00016,-55.320157)"
       id="g5820" />
    <g
       transform="translate(873.00016,-55.320157)"
       id="g5822" />
  </g>
  <g
     transform="translate(-236.79606,-299.73636)"
     id="layer5"
     style="display:inline">
    <g
       transform="translate(-582.73933,640.16742)"
       id="g5438"
       style="display:inline" />
    <g
       transform="translate(-526.31061,563.52708)"
       id="g5440"
       style="display:inline" />
    <g
       transform="translate(-526.31061,563.52708)"
       id="g5559" />
    <g
       transform="translate(-526.31061,563.52708)"
       id="g5561"
       style="display:inline" />
  </g>
  <g
     transform="translate(-236.79606,-299.73636)"
     id="layer6"
     style="display:inline" />
  <g
     transform="matrix(0.4678149,0,0,0.4678149,-2.3000664,100.9776)"
     id="g2678"
     style="stroke:#000000;stroke-width:2.13759756;stroke-miterlimit:4;stroke-dasharray:none;stroke-opacity:1;display:inline" />
  <g
     transform="matrix(6.7596519,0,0,6.3498321,-2758.4106,-1835.3053)"
     id="g7278"
     style="fill:#eac102;fill-opacity:1;stroke:#000000;stroke-width:0.15263592;stroke-miterlimit:4;stroke-dasharray:none;stroke-opacity:1" />
  <use
     transform="translate(-2.9653764e-3,102.86887)"
     id="use7283"
     style="fill:#eac102;fill-opacity:1;stroke:#000000;stroke-width:0.26261625;stroke-miterlimit:4;stroke-dasharray:none;stroke-opacity:1"
     x="0"
     y="0"
     width="885.82678"
     height="531.49603"
     xlink:href="#g7278" />
  <use
     transform="matrix(3.9287974,0,0,3.6906016,325.77275,761.97849)"
     id="use6388"
     style="fill:#eac102;fill-opacity:1;stroke:#000000;stroke-width:0.26261625;stroke-miterlimit:4;stroke-dasharray:none;stroke-opacity:1"
     x="0"
     y="0"
     width="885.82678"
     height="531.49603"
     xlink:href="#g7278" />
  <g
     transform="translate(-236.81853,-299.73636)"
     id="g3832" />
  <g
     id="g3117"
     transform="matrix(1.0334357,0,0,1.0334357,-8.3923635,10.664508)"
     style="stroke-width:1.45146911;stroke-miterlimit:4;stroke-dasharray:none">
    <path
       style="fill:#f5f5f5;fill-rule:evenodd;stroke:#000000;stroke-width:1.45146911;stroke-linecap:butt;stroke-linejoin:miter;stroke-opacity:1;stroke-miterlimit:4;stroke-dasharray:none"
       id="rect2398"
       d="M 26.499996,85.40355 204.10474,263.0083 26.51654,440.5965 73.403531,487.48348 250.99173,309.89529 428.59648,487.50003 475.50001,440.5965 297.89527,262.99175 475.48347,85.40355 428.59648,38.516545 251.00828,216.10476 73.403531,38.500005 26.499996,85.40355 z"
       inkscape:connector-curvature="0" />
    <path
       style="fill:#f5f5f5;fill-opacity:1;stroke:#000000;stroke-width:1.76946993;stroke-linecap:round;stroke-linejoin:round;stroke-miterlimit:4;stroke-opacity:1;stroke-dasharray:none"
       id="path2403"
       transform="matrix(0.8202847,0,0,0.8202847,28.500006,243.99471)"
       d="m 325.49674,-171.88509 a 54.249455,54.249455 0 1 1 -108.49891,0 54.249455,54.249455 0 1 1 108.49891,0 z"
       inkscape:connector-curvature="0" />
    <path
       style="fill:#f5f5f5;fill-opacity:1;stroke:#000000;stroke-width:1.76946993;stroke-linecap:round;stroke-linejoin:round;stroke-miterlimit:4;stroke-opacity:1;stroke-dasharray:none"
       id="path2405"
       transform="matrix(0.8202847,0,0,0.8202847,188.50002,403.99472)"
       d="m 325.49674,-171.88509 a 54.249455,54.249455 0 1 1 -108.49891,0 54.249455,54.249455 0 1 1 108.49891,0 z"
       inkscape:connector-curvature="0" />
    <path
       style="fill:#f5f5f5;fill-opacity:1;stroke:#000000;stroke-width:1.76946993;stroke-linecap:round;stroke-linejoin:round;stroke-miterlimit:4;stroke-opacity:1;stroke-dasharray:none"
       id="path2407"
       transform="matrix(0.8202847,0,0,0.8202847,28.500006,563.99474)"
       d="m 325.49674,-171.88509 a 54.249455,54.249455 0 1 1 -108.49891,0 54.249455,54.249455 0 1 1 108.49891,0 z"
       inkscape:connector-curvature="0" />
    <path
       style="fill:#f5f5f5;fill-opacity:1;stroke:#000000;stroke-width:1.76946993;stroke-linecap:round;stroke-linejoin:round;stroke-miterlimit:4;stroke-opacity:1;stroke-dasharray:none"
       id="path2409"
       transform="matrix(0.8202847,0,0,0.8202847,-131.5,403.99472)"
       d="m 325.49674,-171.88509 a 54.249455,54.249455 0 1 1 -108.49891,0 54.249455,54.249455 0 1 1 108.49891,0 z"
       inkscape:connector-curvature="0" />
  </g>
</svg>
