<?xml version="1.0" encoding="UTF-8" standalone="no"?>
<!-- Created with Inkscape (http://www.inkscape.org/) -->
<svg
   xmlns:dc="http://purl.org/dc/elements/1.1/"
   xmlns:cc="http://creativecommons.org/ns#"
   xmlns:rdf="http://www.w3.org/1999/02/22-rdf-syntax-ns#"
   xmlns:svg="http://www.w3.org/2000/svg"
   xmlns="http://www.w3.org/2000/svg"
   xmlns:sodipodi="http://sodipodi.sourceforge.net/DTD/sodipodi-0.dtd"
   xmlns:inkscape="http://www.inkscape.org/namespaces/inkscape"
   width="590"
   height="750"
   id="svg2"
   sodipodi:version="0.32"
   inkscape:version="0.46"
   version="1.0"
   sodipodi:docname="Emblema Aiguamúrcia.svg"
   inkscape:output_extension="org.inkscape.output.svg.inkscape">
  <defs
     id="defs4">
    <inkscape:perspective
       sodipodi:type="inkscape:persp3d"
       inkscape:vp_x="0 : 526.18109 : 1"
       inkscape:vp_y="0 : 1000 : 0"
       inkscape:vp_z="744.09448 : 526.18109 : 1"
       inkscape:persp3d-origin="372.04724 : 350.78739 : 1"
       id="perspective10" />
    <inkscape:perspective
       id="perspective2390"
       inkscape:persp3d-origin="372.04724 : 350.78739 : 1"
       inkscape:vp_z="744.09448 : 526.18109 : 1"
       inkscape:vp_y="0 : 1000 : 0"
       inkscape:vp_x="0 : 526.18109 : 1"
       sodipodi:type="inkscape:persp3d" />
    <inkscape:perspective
       id="perspective2403"
       inkscape:persp3d-origin="372.04724 : 350.78739 : 1"
       inkscape:vp_z="744.09448 : 526.18109 : 1"
       inkscape:vp_y="0 : 1000 : 0"
       inkscape:vp_x="0 : 526.18109 : 1"
       sodipodi:type="inkscape:persp3d" />
  </defs>
  <sodipodi:namedview
     id="base"
     pagecolor="#ffffff"
     bordercolor="#666666"
     borderopacity="1.0"
     inkscape:pageopacity="0.0"
     inkscape:pageshadow="2"
     inkscape:zoom="0.48417656"
     inkscape:cx="254.55844"
     inkscape:cy="345.79653"
     inkscape:document-units="px"
     inkscape:current-layer="layer1"
     showgrid="false"
     inkscape:window-width="1280"
     inkscape:window-height="744"
     inkscape:window-x="-4"
     inkscape:window-y="-4" />
  <metadata
     id="metadata7">
    <rdf:RDF>
      <cc:Work
         rdf:about="">
        <dc:format>image/svg+xml</dc:format>
        <dc:type
           rdf:resource="http://purl.org/dc/dcmitype/StillImage" />
      </cc:Work>
    </rdf:RDF>
  </metadata>
  <g
     inkscape:label="Capa 1"
     inkscape:groupmode="layer"
     id="layer1"
     transform="translate(624.64286,-215.74437)">
    <g
       id="g3265"
       transform="matrix(0.988117,0,0,0.988117,-2.4226201,8.5143343)">
      <path
         transform="matrix(1.0161993,0,0,1.0126137,-77.105534,-72.805614)"
         d="M 31.428558,653.79077 A 281.42856,361.42856 0 1 1 -531.42856,653.79077 A 281.42856,361.42856 0 1 1 31.428558,653.79077 z"
         sodipodi:ry="361.42856"
         sodipodi:rx="281.42856"
         sodipodi:cy="653.79077"
         sodipodi:cx="-250"
         id="path2409"
         style="opacity:1;fill:#ffffff;fill-opacity:1;fill-rule:nonzero;stroke:#000000;stroke-width:14.78699493;stroke-linecap:butt;stroke-linejoin:miter;marker:none;marker-start:none;marker-mid:none;marker-end:none;stroke-miterlimit:4;stroke-dasharray:none;stroke-dashoffset:0;stroke-opacity:1;visibility:visible;display:inline;overflow:visible;enable-background:accumulate"
         sodipodi:type="arc" />
      <path
         sodipodi:type="arc"
         style="opacity:1;fill:#ffffff;fill-opacity:1;fill-rule:nonzero;stroke:#000000;stroke-width:14.78699493;stroke-linecap:butt;stroke-linejoin:miter;marker:none;marker-start:none;marker-mid:none;marker-end:none;stroke-miterlimit:4;stroke-dasharray:none;stroke-dashoffset:0;stroke-opacity:1;visibility:visible;display:inline;overflow:visible;enable-background:accumulate"
         id="path3181"
         sodipodi:cx="-250"
         sodipodi:cy="653.79077"
         sodipodi:rx="281.42856"
         sodipodi:ry="361.42856"
         d="M 31.428558,653.79077 A 281.42856,361.42856 0 1 1 -531.42856,653.79077 A 281.42856,361.42856 0 1 1 31.428558,653.79077 z"
         transform="matrix(0.4413468,0,0,0.5269785,-220.81866,244.6982)" />
      <path
         transform="matrix(0.490504,0,0,0.490504,-20.183175,336.73875)"
         d="M -539.99999,118.07647 L -634.66543,49.769782 L -730.14582,116.9326 L -694.43553,5.792492 L -787.81623,-64.260299 L -671.08061,-64.641978 L -633.31267,-175.0998 L -596.87639,-64.195585 L -480.15382,-62.409483 L -574.37057,6.5147723 L -539.99999,118.07647 z"
         inkscape:randomized="0"
         inkscape:rounded="0"
         inkscape:flatsided="false"
         sodipodi:arg2="1.576812"
         sodipodi:arg1="0.94849346"
         sodipodi:r2="63.123028"
         sodipodi:r1="161.75063"
         sodipodi:cy="-13.352103"
         sodipodi:cx="-634.28571"
         sodipodi:sides="5"
         id="path3183"
         style="opacity:1;fill:#000000;fill-opacity:1;fill-rule:nonzero;stroke:#000000;stroke-width:15;stroke-linecap:butt;stroke-linejoin:miter;marker:none;marker-start:none;marker-mid:none;marker-end:none;stroke-miterlimit:4;stroke-dasharray:none;stroke-dashoffset:0;stroke-opacity:1;visibility:visible;display:inline;overflow:visible;enable-background:accumulate"
         sodipodi:type="star" />
      <path
         id="path3225"
         d="M -264.687,367.23896 C -269.32748,370.00541 -274.07989,372.95017 -278.94977,376.10048 C -277.32587,378.64269 -275.61027,381.31603 -273.82486,384.11108 C -272.03948,386.90612 -270.2164,389.73279 -268.37715,392.61213 C -265.71028,396.78715 -263.07935,400.92287 -260.47973,404.99256 C -257.88014,409.06222 -255.49877,412.79878 -253.31633,416.21537 C -250.8946,414.78209 -248.49021,413.31213 -246.08771,411.80226 C -243.6853,410.29231 -241.33726,408.8175 -239.05356,407.35385 L -244.47072,397.74352 C -242.41762,396.95609 -240.14289,396.18624 -237.63912,395.40767 C -235.13542,394.62906 -232.80359,393.79809 -230.66614,392.95687 L -210.29495,424.10219 C -210.12875,424.34698 -210.06002,424.59542 -210.06046,424.85783 C -210.06103,425.12014 -210.17141,425.44547 -210.396,425.82138 C -211.48796,427.16153 -212.86608,428.82595 -214.53965,430.83445 C -216.21336,432.84286 -217.58703,434.5382 -218.67887,435.87846 C -218.88241,436.11714 -219.13657,436.22704 -219.39029,436.20133 C -219.64413,436.17549 -219.8871,436.04073 -220.1373,435.83478 L -225.73952,427.79783 C -230.52048,430.65393 -235.33286,433.64631 -240.17461,436.77873 C -237.63561,440.75353 -234.82838,445.15006 -231.75099,449.96773 C -228.67368,454.78526 -225.70305,459.42728 -222.84097,463.90787 C -220.73488,467.20495 -218.53433,470.69761 -216.19934,474.35304 C -213.86446,478.00829 -211.77064,481.28161 -209.93358,484.15753 C -207.51189,482.72418 -205.07656,481.24979 -202.67403,479.73999 C -200.27165,478.22996 -197.95899,476.72867 -195.67524,475.26508 L -200.6458,466.34844 C -189.53788,452.49918 -177.08434,437.04467 -163.27821,419.98889 C -149.4723,402.93305 -136.8248,387.25388 -125.31868,372.91319 C -133.28586,360.44082 -138.39166,352.76938 -140.66653,349.95086 C -158.31967,353.73188 -177.84272,357.93439 -199.25033,362.57118 C -220.65809,367.208 -240.14611,371.41571 -257.71481,375.14285 C -258.35622,375.31524 -258.85327,375.14935 -259.20432,374.66165 L -264.687,367.23896 z M -167.95199,375.23067 L -167.30198,376.24249 C -172.72543,382.57437 -178.10551,388.81538 -183.43512,394.9688 C -188.76492,401.12219 -193.69993,406.85283 -198.24298,412.14786 L -213.33473,388.54904 C -213.56805,388.18383 -213.29471,387.84016 -212.53075,387.54997 C -205.55756,385.71106 -198.26037,383.72859 -190.65673,381.57608 C -183.05326,379.42356 -175.48483,377.30829 -167.95199,375.23067 z"
         style="font-size:200px;font-style:normal;font-variant:normal;font-weight:bold;font-stretch:normal;text-align:start;line-height:125%;writing-mode:lr-tb;text-anchor:start;fill:#112988;fill-opacity:1;stroke:none;stroke-width:1px;stroke-linecap:butt;stroke-linejoin:miter;stroke-opacity:1;font-family:Chaparral Pro;-inkscape-font-specification:Chaparral Pro Bold" />
      <path
         id="path3221"
         d="M -192.74586,486.35438 C -195.51704,486.86911 -198.33424,487.40701 -201.19747,487.96807 C -204.06074,488.52908 -206.867,489.11576 -209.61626,489.72813 C -208.51758,494.58874 -207.35074,499.63907 -206.11572,504.87912 C -204.88072,510.11907 -203.73577,515.07183 -202.68084,519.73738 C -201.50725,525.00818 -200.3471,530.33329 -199.20039,535.71274 C -198.0537,541.09204 -197.00297,545.92928 -196.04819,550.22448 C -193.27707,549.70963 -190.45987,549.17173 -187.59658,548.61078 C -184.73336,548.04966 -181.9271,547.46298 -179.1778,546.85073 L -181.83118,532.27837 L -151.53924,525.68948 C -140.99171,529.57526 -128.97116,533.74565 -115.47755,538.20066 C -101.98414,542.65551 -90.582775,546.34987 -81.273405,549.28375 L -78.762165,557.73903 C -75.980775,557.21331 -73.146475,556.63741 -70.259255,556.01135 C -67.372325,555.38509 -64.597755,554.77135 -61.935535,554.17014 C -62.497305,551.70404 -63.140755,548.98738 -63.865895,546.02013 C -64.591335,543.05272 -65.311385,539.99454 -66.026035,536.8456 C -67.089375,532.10502 -68.158045,527.34012 -69.232035,522.55089 C -70.306325,517.76154 -71.309335,513.28937 -72.241085,509.13436 C -75.010555,509.6572 -77.820465,510.22762 -80.670805,510.84563 C -83.521425,511.46353 -86.320395,512.08274 -89.067705,512.70326 L -87.094535,523.32887 C -87.149805,523.55894 -87.249735,523.7607 -87.394345,523.93414 C -87.539205,524.10745 -87.720755,524.17379 -87.938985,524.13316 C -96.110435,522.78878 -104.03405,521.23519 -111.70987,519.47238 C -119.3859,517.70946 -126.93608,515.76467 -134.36046,513.63801 L -134.5793,512.66226 C -128.79878,508.24002 -122.53874,503.55658 -115.79916,498.61192 C -109.05978,493.66718 -102.40944,488.8962 -95.848125,484.29896 L -92.441455,495.83286 C -89.753555,495.32817 -86.976175,494.76505 -84.109295,494.14348 C -81.242685,493.52184 -78.476245,492.90993 -75.809975,492.30774 C -76.916095,487.41453 -78.177765,481.94138 -79.594995,475.88827 C -81.012505,469.83513 -82.383595,463.87411 -83.708285,458.00519 C -84.613865,453.96804 -85.571285,449.69915 -86.580555,445.1985 C -87.590085,440.69788 -88.470915,436.7705 -89.223045,433.41635 C -91.817675,433.90005 -94.538135,434.45042 -97.384445,435.06743 C -100.23098,435.6845 -102.98929,436.29459 -105.65937,436.89771 L -104.4941,444.83499 C -104.46306,445.05006 -104.52948,445.28701 -104.69337,445.54582 C -104.85747,445.80466 -105.04335,445.96591 -105.25101,446.02958 C -113.04495,452.59428 -122.2762,460.40369 -132.94479,469.45784 C -143.61354,478.51196 -152.35692,486.21196 -159.17494,492.55783 L -188.25221,499.07926 C -188.86292,499.25034 -189.24652,499.06309 -189.40303,498.5175 L -192.74586,486.35438 z"
         style="font-size:200px;font-style:normal;font-variant:normal;font-weight:bold;font-stretch:normal;text-align:start;line-height:125%;writing-mode:lr-tb;text-anchor:start;fill:#112988;fill-opacity:1;stroke:none;stroke-width:1px;stroke-linecap:butt;stroke-linejoin:miter;stroke-opacity:1;font-family:Chaparral Pro;-inkscape-font-specification:Chaparral Pro Bold" />
      <path
         id="path3219"
         d="M -84.213852,584.41742 C -98.47266,582.23136 -113.74042,579.86141 -130.01715,577.30753 C -146.29401,574.7536 -161.66789,572.4188 -176.13884,570.30313 C -176.34564,570.2774 -176.51871,570.1934 -176.65809,570.05116 C -176.7975,569.90887 -176.85013,569.69075 -176.81597,569.39679 L -175.9486,559.21618 C -178.54514,558.74349 -181.28312,558.28823 -184.16256,557.8504 C -187.04199,557.41255 -189.83662,556.99962 -192.54645,556.61159 C -193.01739,559.86513 -193.49371,563.15578 -193.9754,566.48358 C -194.45708,569.81133 -194.95489,573.25044 -195.46881,576.80092 C -196.0848,581.05649 -196.72228,585.46052 -197.38124,590.01306 C -198.0402,594.56551 -198.63469,598.67264 -199.16474,602.33448 C -196.46924,602.82143 -193.68177,603.28386 -190.80233,603.72175 C -187.92289,604.15954 -185.17775,604.56531 -182.56689,604.93908 L -179.96754,591.1696 C -168.56078,593.01854 -157.11867,594.88526 -145.6412,596.76977 C -134.16382,598.65419 -122.38249,600.62054 -110.29718,602.66881 L -110.55504,604.45022 C -128.78897,607.70912 -144.58656,610.80287 -157.94786,613.7315 C -171.30922,616.65999 -183.59932,619.60468 -194.8182,622.56557 C -195.27966,625.78252 -195.71115,629.05441 -196.1127,632.38123 C -196.51425,635.7079 -196.78165,638.19521 -196.91494,639.84318 C -188.30776,645.24005 -178.1181,651.39654 -166.34592,658.31266 C -154.57378,665.22856 -140.56869,672.94774 -124.33059,681.4702 L -124.55979,683.05367 C -136.4516,681.53011 -147.92973,680.02865 -158.99423,678.5493 C -170.05878,677.0697 -180.7875,675.62621 -191.18041,674.21881 C -191.3866,674.18884 -191.56087,674.11309 -191.70325,673.99157 C -191.84562,673.86979 -191.9066,673.7094 -191.88619,673.5104 L -190.84691,662.14218 C -193.44345,661.66939 -196.18143,661.21413 -199.06088,660.7764 C -201.94031,660.33845 -204.73494,659.92551 -207.44477,659.53759 C -208.05955,663.78482 -208.73522,668.45278 -209.47181,673.54147 C -210.20834,678.62991 -210.927,683.59476 -211.62776,688.43604 C -212.18822,692.308 -212.77913,696.39039 -213.40052,700.68325 C -214.02186,704.97581 -214.57697,708.81079 -215.06583,712.1882 C -212.37031,712.67503 -209.58284,713.13745 -206.70342,713.57546 C -203.82397,714.01313 -201.07883,714.41891 -198.46798,714.79278 L -196.29839,703.99234 C -181.22396,706.06892 -165.70597,708.22249 -149.74437,710.45307 C -133.78285,712.68331 -118.66789,714.82907 -104.39944,716.89035 C -103.77273,716.98091 -103.4715,717.2266 -103.49572,717.62741 L -104.3058,727.41215 C -101.41364,727.93586 -98.433019,728.45993 -95.363904,728.98433 C -92.294985,729.50838 -89.35668,729.9758 -86.54898,730.38659 C -85.557662,723.53704 -84.460575,715.95781 -83.257747,707.64884 C -82.055127,699.33956 -80.936555,691.61187 -79.902039,684.46575 C -90.865921,678.53808 -103.15614,672.00177 -116.77274,664.85677 C -130.38948,657.71154 -143.63356,650.78455 -156.50502,644.07578 L -156.27581,642.4923 C -146.77681,640.69998 -136.57251,638.7666 -125.66288,636.69213 C -114.75337,634.61749 -104.45049,632.62353 -94.75419,630.71024 C -85.058087,628.79679 -77.280519,627.18574 -71.421455,625.87711 C -70.297042,618.1081 -69.086553,609.74537 -67.789989,600.78889 C -66.493678,591.83231 -65.326159,583.76648 -64.287452,576.59138 C -67.093224,576.07999 -70.049109,575.55951 -73.155114,575.02994 C -76.261357,574.50032 -79.224403,574.02932 -82.044262,573.61696 L -84.213852,584.41742 z"
         style="font-size:200px;font-style:normal;font-variant:normal;font-weight:bold;font-stretch:normal;text-align:start;line-height:125%;writing-mode:lr-tb;text-anchor:start;fill:#112988;fill-opacity:1;stroke:none;stroke-width:1px;stroke-linecap:butt;stroke-linejoin:miter;stroke-opacity:1;font-family:Chaparral Pro;-inkscape-font-specification:Chaparral Pro Bold" />
      <path
         id="path3217"
         d="M -167.01046,849.37697 C -164.6066,850.85577 -162.15157,852.3207 -159.64534,853.77178 C -157.1392,855.2225 -154.70288,856.61925 -152.33636,857.96202 C -150.83869,855.3145 -149.27612,852.50271 -147.64863,849.52665 C -146.02125,846.55025 -144.4092,843.65156 -142.81249,840.83059 C -140.20259,836.24644 -137.605,831.68417 -135.01971,827.14378 C -132.43456,822.60309 -130.08436,818.47532 -127.96911,814.76047 C -130.21738,813.37002 -132.63621,811.9257 -135.2256,810.42751 C -137.81513,808.92906 -140.3456,807.47871 -142.81702,806.07647 L -149.00302,816.1328 C -149.22995,816.46377 -149.61857,816.47265 -150.16889,816.15943 C -154.48753,812.40109 -160.08479,806.92238 -166.96069,799.72327 C -173.83666,792.52391 -179.478,786.61735 -183.88473,782.00358 C -187.25927,778.49032 -190.83415,774.74802 -194.60939,770.77666 C -198.38465,766.80512 -202.46285,762.43104 -206.84402,757.6544 L -206.15133,756.4378 C -198.07886,758.41122 -190.38159,760.38685 -183.0595,762.36472 C -175.73744,764.34241 -168.68527,766.23843 -161.90297,768.05279 C -158.00362,769.10297 -152.43204,770.70259 -145.18821,772.85164 C -137.94448,775.00051 -132.0253,776.79804 -127.43065,778.24423 L -133.46444,790.45851 C -131.09335,791.81803 -128.64767,793.24887 -126.12738,794.75103 C -123.60724,796.25296 -121.16156,797.6838 -118.79033,799.04356 C -116.11554,794.32859 -113.19645,789.13429 -110.03305,783.46063 C -106.86982,777.78676 -103.77756,772.28831 -100.75625,766.96526 C -98.566963,763.11983 -96.266233,759.07896 -93.854083,754.84265 C -91.442143,750.60618 -89.289863,746.82602 -87.397223,743.50215 C -89.674343,742.19605 -92.047603,740.80644 -94.517023,739.33332 C -96.986643,737.86008 -99.446813,736.42099 -101.89753,735.01606 L -107.09396,743.33439 C -107.55225,743.80223 -107.94891,743.95995 -108.28395,743.80757 C -116.1138,742.0393 -124.23971,740.26072 -132.6617,738.4718 C -141.08382,736.68277 -149.27792,734.9229 -157.24402,733.19218 C -168.02364,730.828 -179.38751,728.60587 -191.33565,726.52579 C -203.28381,724.44561 -214.8643,722.5029 -226.07715,720.69764 C -229.89004,727.37756 -233.00091,732.87501 -235.40976,737.19001 C -237.81855,741.50489 -239.20975,744.18411 -239.58336,745.22766 C -232.70059,754.13279 -225.43768,763.25445 -217.79459,772.59267 C -210.15146,781.9307 -203.00684,790.75487 -196.3607,799.06519 C -190.84069,806.04367 -185.07869,813.10251 -179.07468,820.24175 C -173.0707,827.3807 -167.50788,833.98093 -162.38616,840.04247 L -167.01046,849.37697 z"
         style="font-size:200px;font-style:normal;font-variant:normal;font-weight:bold;font-stretch:normal;text-align:start;line-height:125%;writing-mode:lr-tb;text-anchor:start;fill:#112988;fill-opacity:1;stroke:none;stroke-width:1px;stroke-linecap:butt;stroke-linejoin:miter;stroke-opacity:1;font-family:Chaparral Pro;-inkscape-font-specification:Chaparral Pro Bold" />
      <path
         id="path3215"
         d="M -238.9909,758.27901 C -242.35284,759.96816 -245.97843,761.8108 -249.89886,763.78059 C -253.81925,765.75038 -257.70948,767.6974 -261.51822,769.61106 C -266.05664,771.89134 -270.55108,774.14462 -275.02255,776.39126 C -279.49393,778.63785 -283.51866,780.66398 -287.07427,782.45046 C -285.82834,784.94866 -284.61243,787.42417 -283.43374,789.90019 C -282.25492,792.37615 -281.03831,794.88291 -279.79248,797.38116 L -269.85775,793.05846 L -255.59828,821.92657 C -256.02961,822.40436 -257.38998,823.23037 -259.69826,824.42749 C -261.65465,825.44305 -263.73469,825.75558 -265.9287,825.35186 C -268.12264,824.94801 -270.47456,823.67176 -273.01858,821.51342 C -277.36561,817.78019 -283.17539,812.86783 -290.42271,806.8149 C -297.66991,800.76183 -303.68445,796.13868 -308.43304,792.94299 C -310.52158,794.00171 -314.12809,795.85327 -319.27708,798.50562 C -324.42591,801.15789 -328.23087,803.12395 -330.67703,804.36232 C -332.58129,805.31444 -334.77913,806.43424 -337.32021,807.73429 C -339.86106,809.03421 -342.03551,810.16849 -343.80574,811.16516 C -341.27654,816.19872 -338.77785,821.14286 -336.33865,825.99783 L -327.22236,822.78795 C -326.22617,822.37601 -325.0695,822.44942 -323.74735,823.02082 C -322.42501,823.59206 -320.76092,824.70086 -318.73233,826.3442 C -310.73505,832.84098 -304.01082,837.89038 -298.53478,841.5413 C -293.05861,845.19207 -287.90361,847.00944 -283.09446,846.93866 L -282.63629,847.83464 C -287.80495,853.70494 -291.15488,860.30412 -292.65371,867.63205 C -294.15241,874.95974 -293.0453,882.43805 -289.35581,890.12484 C -286.25281,896.06841 -281.01481,900.71918 -273.65737,904.04977 C -266.29984,907.37993 -258.21141,908.03853 -249.35499,906.05553 C -243.69295,904.71204 -238.91904,903.25178 -235.0464,901.63251 C -231.17375,900.013 -226.75593,897.9079 -221.81178,895.35863 C -214.76586,891.81362 -207.69498,888.23388 -200.61568,884.5885 C -193.53643,880.94288 -186.91859,877.51585 -180.7217,874.28585 C -183.25069,869.32664 -185.72831,864.21131 -188.16829,858.98384 L -198.00501,863.49184 L -240.30017,778.87695 C -240.34693,778.77452 -240.34973,778.6299 -240.34072,778.47152 C -240.33172,778.31308 -240.27913,778.21343 -240.19168,778.15552 L -231.52381,773.11169 C -232.77714,770.6172 -234.02648,768.14513 -235.25736,765.69535 C -236.48824,763.24554 -237.73757,760.77348 -238.9909,758.27901 z M -247.9671,837.09932 L -227.2129,879.29075 C -227.65178,879.73496 -228.32478,880.21731 -229.21066,880.77445 C -230.09654,881.33135 -231.24523,881.98327 -232.66746,882.69798 C -237.60645,885.01618 -242.7798,884.92853 -248.20896,882.42928 C -253.63808,879.9298 -258.10702,875.37881 -261.58762,868.79498 C -264.54345,862.77266 -265.22819,857.10225 -263.66593,851.77567 C -262.1036,846.44888 -258.3231,842.2076 -252.32919,839.07487 C -251.18059,838.49301 -250.26871,838.0538 -249.57805,837.73018 C -248.88735,837.40641 -248.35634,837.18757 -247.9671,837.09932 z"
         style="font-size:200px;font-style:normal;font-variant:normal;font-weight:bold;font-stretch:normal;text-align:start;line-height:125%;writing-mode:lr-tb;text-anchor:start;fill:#112988;fill-opacity:1;stroke:none;stroke-width:1px;stroke-linecap:butt;stroke-linejoin:miter;stroke-opacity:1;font-family:Chaparral Pro;-inkscape-font-specification:Chaparral Pro Bold" />
      <path
         id="path3211"
         d="M -344.65521,815.5168 C -343.4551,812.96649 -342.24692,810.36529 -341.03067,807.71318 C -339.81437,805.06108 -338.65219,802.44028 -337.54414,799.85075 C -342.13172,797.90477 -346.91311,795.90336 -351.88833,793.84653 C -356.86346,791.78973 -361.55286,789.82753 -365.95653,787.95991 C -370.92085,785.83526 -375.92141,783.66798 -380.95825,781.45807 C -385.99494,779.24822 -390.53554,777.27696 -394.58007,775.54428 C -395.78005,778.09462 -396.98822,780.69583 -398.20459,783.3479 C -399.42078,786.00003 -400.58295,788.62084 -401.69113,791.21033 L -388.31132,797.56449 L -400.64855,826.00403 C -409.96156,832.29828 -420.36566,839.62223 -431.86092,847.97591 C -443.35592,856.3295 -453.01205,863.4287 -460.82935,869.27354 L -469.15999,866.37555 C -470.35714,868.94057 -471.54445,871.57784 -472.72192,874.28737 C -473.89908,876.99678 -475.02079,879.60766 -476.08706,882.11999 C -473.75696,883.10376 -471.17575,884.16755 -468.34341,885.31135 C -465.51076,886.45501 -462.60756,887.656 -459.63383,888.91434 C -455.16433,890.81888 -450.67199,892.73337 -446.15679,894.65772 C -441.64132,896.58191 -437.42496,898.37873 -433.5077,900.04831 C -432.31517,897.49456 -431.13767,894.88036 -429.97517,892.20542 C -428.81243,889.5304 -427.68091,886.89651 -426.58062,884.3038 L -436.3591,879.7018 C -436.51362,879.5226 -436.61906,879.32367 -436.67544,879.10501 C -436.73156,878.88621 -436.67943,878.70008 -436.51902,878.54664 C -430.65656,872.69758 -424.76895,867.17187 -418.85618,861.96949 C -412.94318,856.76701 -406.95601,851.77288 -400.89465,846.98708 L -399.97471,847.37912 C -399.75956,854.65403 -399.61231,862.47075 -399.53299,870.8293 C -399.4535,879.18772 -399.46308,887.37242 -399.56173,895.38335 L -410.91457,891.41482 C -412.0742,893.89166 -413.23865,896.47534 -414.4079,899.16567 C -415.57694,901.85592 -416.69539,904.45915 -417.76324,906.97534 C -413.14485,908.93426 -407.96483,911.10558 -402.22313,913.48921 C -396.48127,915.87265 -390.84126,918.23991 -385.30315,920.59119 C -381.49684,922.21311 -377.47214,923.92831 -373.22901,925.73668 C -368.98575,927.54487 -365.28301,929.12276 -362.1208,930.47055 C -360.99859,928.08168 -359.857,925.55173 -358.69607,922.8807 C -357.53505,920.20947 -356.41988,917.61395 -355.35053,915.09403 L -362.4748,911.40578 C -362.66752,911.30539 -362.8211,911.11314 -362.93554,910.82903 C -363.04986,910.54463 -363.07225,910.29962 -363.00269,910.09378 C -363.78164,899.93342 -364.7319,887.87935 -365.8535,873.93166 C -366.97499,859.98384 -368.12128,848.38976 -369.29237,839.14941 L -357.60959,811.73536 C -357.39192,811.13967 -357.01592,810.93757 -356.4816,811.12906 L -344.65521,815.5168 z"
         style="font-size:200px;font-style:normal;font-variant:normal;font-weight:bold;font-stretch:normal;text-align:start;line-height:125%;writing-mode:lr-tb;text-anchor:start;fill:#112988;fill-opacity:1;stroke:none;stroke-width:1px;stroke-linecap:butt;stroke-linejoin:miter;stroke-opacity:1;font-family:Chaparral Pro;-inkscape-font-specification:Chaparral Pro Bold" />
      <path
         id="path3209"
         d="M -433.09225,730.79175 C -435.28319,732.42181 -437.50672,734.11887 -439.7485,735.8855 C -441.99018,737.65223 -444.13553,739.33365 -446.186,740.97925 L -435.27975,755.573 L -457.1235,772.79175 C -457.57438,772.07468 -458.39553,770.9225 -459.6235,769.35425 C -460.85133,767.78604 -461.93835,766.44616 -462.84225,765.323 C -464.50083,763.20297 -467.42308,760.27821 -471.6235,756.54175 C -475.82374,752.80534 -480.32572,749.72421 -485.15475,747.323 C -492.19345,744.1872 -499.66705,742.98036 -507.561,743.698 C -515.45473,744.41576 -522.59983,747.22854 -528.96725,752.1355 C -535.71178,757.6646 -540.34919,764.50226 -542.90475,772.66675 C -545.46003,780.83125 -545.29565,788.99829 -542.3735,797.16675 C -540.17074,802.52797 -537.71246,807.20711 -534.9985,811.16675 C -532.28422,815.12632 -529.49756,818.82012 -526.65475,822.2605 C -521.41185,828.80737 -516.12784,835.31119 -510.84225,841.79175 C -505.55641,848.27218 -500.60084,854.32246 -495.96725,859.948 C -493.77293,858.31532 -491.52069,856.60781 -489.21725,854.79175 C -486.9136,852.97552 -484.72392,851.22116 -482.59225,849.5105 L -488.9985,840.823 L -415.311,781.85425 C -414.8893,781.47426 -414.51393,781.51595 -414.186,781.97925 L -407.84225,788.948 C -405.72414,787.38694 -403.52665,785.73163 -401.2485,784.0105 C -398.97033,782.28939 -396.7572,780.58712 -394.6235,778.8855 C -397.08577,775.80761 -399.6926,772.53355 -402.436,769.10425 C -405.17938,765.675 -407.91132,762.27577 -410.6235,758.8855 C -414.50429,754.03444 -418.41455,749.14676 -422.3735,744.198 C -426.3324,739.24932 -429.89853,734.78396 -433.09225,730.79175 z M -489.436,770.35425 C -488.66386,770.33481 -487.90028,770.36812 -487.15475,770.448 C -484.68126,770.81179 -482.37427,771.62768 -480.21725,772.91675 C -478.06004,774.20582 -476.20659,775.85068 -474.6235,777.823 C -473.47944,779.18627 -472.52539,780.47141 -471.811,781.698 C -471.09643,782.92463 -471.11204,783.88129 -471.811,784.54175 L -510.77975,815.198 C -511.20388,814.9878 -511.8243,814.47425 -512.6235,813.6355 C -513.42243,812.79668 -514.29313,811.76705 -515.2485,810.573 C -518.74526,805.895 -519.70987,800.51197 -518.15475,794.3855 C -516.59936,788.25904 -512.90303,782.7665 -507.061,777.91675 C -503.59451,775.15968 -500.15619,773.12379 -496.7485,771.85425 C -494.19257,770.90214 -491.75243,770.41257 -489.436,770.35425 z"
         style="font-size:200px;font-style:normal;font-variant:normal;font-weight:bold;font-stretch:normal;text-align:start;line-height:125%;writing-mode:lr-tb;text-anchor:start;fill:#112988;fill-opacity:1;stroke:none;stroke-width:1px;stroke-linecap:butt;stroke-linejoin:miter;stroke-opacity:1;font-family:Chaparral Pro;-inkscape-font-specification:Chaparral Pro Bold" />
      <path
         id="path3205"
         d="M -519.89302,608.96304 C -527.3117,608.87906 -534.61364,609.77435 -541.79927,611.61929 C -553.27838,614.66068 -563.07002,619.53148 -571.17427,626.27554 C -579.27827,633.01982 -584.81875,640.8077 -587.79927,649.61929 C -591.57787,661.32397 -591.88452,673.38487 -588.67427,685.77554 C -586.81411,693.18314 -584.23825,699.82358 -580.98677,705.71304 C -577.73499,711.60256 -573.50202,717.03934 -568.23677,722.02554 C -561.18046,728.89697 -552.13407,733.80035 -541.11177,736.71304 C -530.0893,739.62573 -518.1344,739.54589 -505.26802,736.46304 C -494.94351,733.81668 -486.22118,730.00727 -479.11177,725.08804 C -472.00226,720.16882 -466.27179,714.06057 -461.89302,706.74429 C -458.31833,700.67082 -456.03545,693.63597 -455.04927,685.61929 C -454.06304,677.60271 -454.62787,669.25409 -456.76802,660.61929 L -456.83052,660.43179 C -461.62333,641.59906 -471.07659,627.59099 -485.17427,618.36929 C -493.36843,613.35105 -502.46022,610.33881 -512.45552,609.36929 C -514.95431,609.12698 -517.42013,608.99103 -519.89302,608.96304 z M -502.42427,643.08804 C -496.41257,643.06677 -491.0711,644.01891 -486.36177,645.93179 C -482.40605,647.68798 -479.57291,649.77044 -477.89302,652.21304 C -476.21308,654.6558 -475.05765,657.388 -474.39302,660.40054 L -474.33052,660.58804 C -473.50616,663.60282 -473.38002,666.77425 -473.92427,670.08804 C -474.46845,673.40194 -476.01202,676.80419 -478.58052,680.27554 C -481.79967,684.78267 -486.52663,688.62902 -492.73677,691.83804 C -498.94681,695.04713 -506.97101,697.88458 -516.79927,700.36929 C -526.0615,702.6789 -534.23744,703.77298 -541.36177,703.65054 C -548.48587,703.52815 -554.18823,702.49004 -558.45552,700.52554 C -561.73854,699.02719 -564.46241,697.03721 -566.61177,694.52554 C -568.7609,692.01392 -570.34385,688.77528 -571.36177,684.83804 C -572.2947,681.21468 -572.20466,677.68483 -571.11177,674.21304 C -570.01859,670.74134 -567.84083,667.56124 -564.54927,664.71304 C -560.6349,661.18928 -555.51785,657.86297 -549.23677,654.71304 C -542.95549,651.56327 -535.82778,648.93101 -527.83052,646.83804 C -519.73322,644.71535 -512.13228,643.49081 -505.04927,643.15054 C -504.16388,643.10803 -503.28308,643.09108 -502.42427,643.08804 z"
         style="font-size:200px;font-style:normal;font-variant:normal;font-weight:bold;font-stretch:normal;text-align:start;line-height:125%;writing-mode:lr-tb;text-anchor:start;fill:#112988;fill-opacity:1;stroke:none;stroke-width:1px;stroke-linecap:butt;stroke-linejoin:miter;stroke-opacity:1;font-family:Chaparral Pro;-inkscape-font-specification:Chaparral Pro Bold" />
      <path
         id="path3201"
         d="M -552.60335,504.04056 C -560.07859,504.20951 -567.03725,506.19512 -573.47835,510.00931 C -580.83938,514.36861 -586.15476,520.57666 -589.4471,528.60306 C -591.39624,534.06164 -592.69054,539.15684 -593.3221,543.91556 C -593.95343,548.67447 -594.38369,553.26911 -594.5721,557.72806 C -595.05463,566.10162 -595.47814,574.46897 -595.8846,582.82181 C -596.2908,591.17472 -596.65923,599.00943 -596.97835,606.29056 C -594.25511,606.54491 -591.43661,606.75577 -588.5096,606.94681 C -585.58237,607.13786 -582.73842,607.32359 -580.0096,607.47806 L -579.0096,596.69681 L -484.7596,602.19681 C -484.19193,602.19647 -483.94342,602.47681 -484.0096,603.04056 L -483.9471,612.44681 C -481.32842,612.70339 -478.60431,612.95214 -475.7596,613.19681 C -472.91486,613.44153 -470.14014,613.65926 -467.41585,613.82181 C -467.18705,609.88685 -466.92075,605.73728 -466.66585,601.35306 C -466.41095,596.96887 -466.16785,592.59363 -465.91585,588.25931 C -465.55524,582.05741 -465.18993,575.80484 -464.8221,569.47806 C -464.45427,563.15139 -464.11884,557.42569 -463.8221,552.32181 C -466.5411,552.0678 -469.31774,551.85208 -472.16585,551.66556 C -475.01395,551.4792 -477.75964,551.31407 -480.3846,551.16556 L -482.04085,569.29056 L -509.79085,567.47806 C -509.64628,566.64345 -509.4897,565.24645 -509.35335,563.25931 C -509.21692,561.27229 -509.12033,559.54258 -509.04085,558.10306 C -508.85545,555.41775 -509.07448,551.28404 -509.6971,545.69681 C -510.31966,540.10975 -511.62025,534.80581 -513.60335,529.79056 C -516.73743,522.75113 -521.47447,516.85037 -527.8221,512.10306 C -534.1696,507.35598 -541.36915,504.68403 -549.3846,504.07181 C -550.4736,504.02155 -551.53546,504.01642 -552.60335,504.04056 z M -553.1346,537.85306 C -552.22271,537.83133 -551.27043,537.8464 -550.3221,537.88431 C -545.90107,538.15392 -542.0168,538.95459 -538.6346,540.29056 C -535.25227,541.62668 -532.54373,543.4019 -530.54085,545.63431 C -528.9457,547.55938 -527.78183,549.73319 -527.04085,552.13431 C -526.29977,554.53559 -526.02315,556.98427 -526.16585,559.50931 C -526.22746,561.28794 -526.37631,562.86968 -526.66585,564.25931 C -526.95526,565.64907 -527.57949,566.36096 -528.54085,566.38431 L -578.04085,563.10306 C -578.21553,562.66308 -578.3204,561.88614 -578.35335,560.72806 C -578.3861,559.57013 -578.34825,558.22344 -578.2596,556.69681 C -577.72935,550.88043 -574.85763,546.21029 -569.60335,542.69681 C -565.00569,539.62269 -559.51785,538.00514 -553.1346,537.85306 z"
         style="font-size:200px;font-style:normal;font-variant:normal;font-weight:bold;font-stretch:normal;text-align:start;line-height:125%;writing-mode:lr-tb;text-anchor:start;fill:#112988;fill-opacity:1;stroke:none;stroke-width:1px;stroke-linecap:butt;stroke-linejoin:miter;stroke-opacity:1;font-family:Chaparral Pro;-inkscape-font-specification:Chaparral Pro Bold" />
      <path
         id="path3197"
         d="M -509.15463,481.63716 C -507.36271,478.48223 -505.46649,475.14355 -503.46596,471.6211 C -501.46537,468.09876 -499.65988,464.91983 -498.04947,462.08427 C -501.95464,459.70516 -506.03977,457.301 -510.30492,454.87176 C -514.56998,452.4427 -518.64369,450.17033 -522.52605,448.05467 C -524.04306,451.04235 -525.69452,454.22863 -527.48046,457.61352 C -529.26628,460.99856 -531.09248,464.34058 -532.95908,467.63958 C -534.60651,470.83159 -536.29886,473.98858 -538.03615,477.11054 C -539.7733,480.23264 -541.54967,483.38562 -543.36527,486.56951 C -539.5646,488.72773 -535.68167,490.93083 -531.71644,493.17886 C -527.75111,495.42695 -523.80231,497.66602 -519.87002,499.89606 C -518.23798,497.04796 -516.4279,493.96221 -514.43975,490.63881 C -512.45151,487.31549 -510.714,484.35754 -509.22722,481.76495 L -509.15463,481.63716 z"
         style="font-size:200px;font-style:normal;font-variant:normal;font-weight:bold;font-stretch:normal;text-align:start;line-height:125%;writing-mode:lr-tb;text-anchor:start;fill:#112988;fill-opacity:1;stroke:none;stroke-width:1px;stroke-linecap:butt;stroke-linejoin:miter;stroke-opacity:1;font-family:Chaparral Pro;-inkscape-font-specification:Chaparral Pro Bold" />
      <path
         id="text3185"
         d="M -480.5449,437.88412 C -482.48391,440.76732 -484.40295,443.79966 -486.30203,446.98114 C -488.20108,450.1627 -489.94121,453.21715 -491.52243,456.14453 C -481.38698,463.07109 -471.03477,470.05239 -460.46576,477.08843 C -456.51431,474.76742 -452.413,471.60209 -448.16186,467.59245 C -443.91074,463.58283 -440.34506,459.89016 -437.46479,456.5144 C -431.11533,449.14299 -426.42378,442.24071 -423.39011,435.80752 C -420.35651,429.37442 -418.70344,423.08843 -418.43088,416.9495 C -418.22025,410.77396 -419.39463,404.92309 -421.95402,399.39688 C -424.51351,393.87083 -428.20126,389.02257 -433.0173,384.85209 C -440.09255,378.79084 -447.76129,375.94674 -456.02352,376.31975 C -464.28579,376.69298 -473.4225,379.84338 -483.43367,385.77093 C -491.59317,390.7365 -497.57305,393.66949 -501.37331,394.56991 C -505.17352,395.47051 -508.80059,394.29301 -512.25454,391.03739 C -514.33516,389.16278 -515.74041,387.19345 -516.47029,385.12941 C -517.20007,383.06556 -517.49922,381.19112 -517.36774,379.50608 C -517.23813,377.51709 -516.76705,375.59119 -515.95453,373.72837 C -515.1419,371.86578 -513.95518,370.02839 -512.39436,368.21619 C -511.06644,366.68747 -509.61178,365.43282 -508.03039,364.45223 C -506.44891,363.47188 -504.87647,362.84661 -503.31306,362.57641 C -502.79592,362.53802 -502.26831,362.64054 -501.73023,362.88396 L -484.6356,371.53751 C -482.6921,368.67483 -480.73361,365.77545 -478.76013,362.83939 C -476.78663,359.90358 -474.96391,357.08523 -473.29198,354.38434 C -478.1062,350.7546 -482.97462,347.11104 -487.89727,343.45365 C -492.81987,339.79654 -497.75354,336.22875 -502.69832,332.75026 C -505.18178,333.91625 -508.24663,336.0826 -511.89289,339.24934 C -515.53904,342.41637 -519.26401,346.19182 -523.06779,350.57569 C -529.26143,357.81749 -533.84672,364.87731 -536.82366,371.75517 C -539.80045,378.63326 -541.20622,385.06629 -541.04097,391.05426 C -540.96387,396.37244 -539.82782,401.62938 -537.63281,406.8251 C -535.43766,412.02096 -532.00614,416.6815 -527.33826,420.80671 C -519.80773,426.99078 -511.44979,429.64766 -502.26443,428.77733 C -493.07899,427.90713 -483.6983,424.77993 -474.12232,419.39573 C -467.15957,415.37919 -461.83438,412.93812 -458.14676,412.07252 C -454.45914,411.20705 -450.85101,412.36824 -447.32235,415.55609 C -445.51213,417.13193 -444.19841,418.82445 -443.38116,420.63365 C -442.56397,422.44298 -442.1943,424.31217 -442.27217,426.24123 C -442.31093,428.41861 -442.91115,430.67321 -444.07283,433.00502 C -445.23456,435.33694 -446.62619,437.43777 -448.24773,439.3075 C -449.89247,441.22336 -451.69238,442.84053 -453.64747,444.159 C -455.60258,445.47756 -457.63393,446.36745 -459.7415,446.8287 C -460.09831,446.91735 -460.46982,446.92729 -460.85605,446.85853 C -461.24229,446.78984 -461.58642,446.69138 -461.88844,446.56316 L -480.5449,437.88412 z"
         style="font-size:200px;font-style:normal;font-variant:normal;font-weight:bold;font-stretch:normal;text-align:start;line-height:125%;writing-mode:lr-tb;text-anchor:start;fill:#112988;fill-opacity:1;stroke:none;stroke-width:1px;stroke-linecap:butt;stroke-linejoin:miter;stroke-opacity:1;font-family:Chaparral Pro;-inkscape-font-specification:Chaparral Pro Bold" />
      <path
         id="text3232"
         d="M -435.46705,589.98837 C -435.61063,589.13167 -435.78347,588.25134 -435.98557,587.34736 C -436.18769,586.44338 -436.39682,585.58978 -436.61294,584.78657 C -439.64347,585.27129 -442.72275,585.78334 -445.8508,586.32271 C -446.16918,587.42326 -446.36964,588.70283 -446.45217,590.16144 C -446.5347,591.62004 -446.54728,592.90328 -446.48991,594.01118 C -446.37552,596.44073 -446.0408,598.50016 -445.48574,600.18946 C -444.93069,601.87872 -444.1503,603.304 -443.14459,604.46528 C -442.12133,605.62256 -440.90246,606.48285 -439.48796,607.04613 C -438.07347,607.60936 -436.57066,607.85562 -434.97953,607.7849 C -432.65328,607.6691 -430.77227,606.86725 -429.33649,605.37938 C -427.90075,603.89145 -426.78362,601.74907 -425.9851,598.95223 C -425.35737,596.6483 -424.77595,595.088 -424.24084,594.27132 C -423.70577,593.45463 -422.84493,593.04495 -421.65832,593.04227 C -420.95839,593.02495 -420.36479,593.14091 -419.87751,593.39015 C -419.39028,593.63937 -419.01378,593.92823 -418.74802,594.25673 C -418.42967,594.64008 -418.18415,595.07067 -418.01146,595.5485 C -417.83883,596.02631 -417.73844,596.56384 -417.71029,597.1611 C -417.68859,597.66687 -417.737,598.14467 -417.85553,598.5945 C -417.97412,599.0443 -418.1521,599.42809 -418.38947,599.74587 C -418.47675,599.84173 -418.59015,599.91381 -418.72967,599.96211 L -423.32038,601.3295 C -423.18114,602.18325 -423.03831,603.04622 -422.8919,603.91843 C -422.74554,604.79061 -422.59199,605.61554 -422.43126,606.39323 C -420.93341,606.22466 -419.42334,606.04928 -417.90105,605.86709 C -416.37882,605.68486 -414.86992,605.48451 -413.37437,605.26604 C -413.12395,604.6275 -412.93993,603.70743 -412.82233,602.50581 C -412.70479,601.30416 -412.67752,599.97851 -412.74053,598.52887 C -412.86092,596.14962 -413.24201,594.07986 -413.8838,592.31959 C -414.52566,590.5593 -415.37621,589.14985 -416.43546,588.09122 C -417.36357,587.13904 -418.4734,586.37999 -419.76494,585.81407 C -421.05654,585.24815 -422.48056,584.99193 -424.03702,585.0454 C -426.46703,585.21716 -428.44097,586.17146 -429.95885,587.90829 C -431.47676,589.64511 -432.64217,591.82522 -433.45508,594.44862 C -434.02868,596.37456 -434.5758,597.73303 -435.09645,598.52402 C -435.61713,599.31498 -436.47172,599.72437 -437.66025,599.75219 C -438.25973,599.77727 -438.78914,599.69583 -439.24847,599.50787 C -439.70782,599.31988 -440.09622,599.04409 -440.41366,598.68051 C -440.78088,598.27858 -441.05946,597.76612 -441.24938,597.14314 C -441.43931,596.52012 -441.54778,595.89955 -441.57479,595.28141 C -441.60552,594.6509 -441.55674,594.04795 -441.42845,593.47255 C -441.30017,592.89712 -441.08437,592.38642 -440.78105,591.94042 C -440.73152,591.863 -440.66578,591.79734 -440.58385,591.74343 C -440.50193,591.68951 -440.42253,591.64823 -440.34566,591.61959 L -435.46705,589.98837 z M -441.28594,609.46509 C -442.62792,609.61773 -444.01578,609.8023 -445.44953,610.01878 C -445.34122,610.76512 -445.22753,611.54857 -445.10845,612.36913 C -444.98937,613.18969 -444.8685,614.02262 -444.74583,614.86792 C -444.56796,616.0936 -444.39233,617.30383 -444.21895,618.49859 C -444.04557,619.69335 -443.8861,620.79224 -443.74054,621.79527 C -443.04127,621.71799 -442.34026,621.631 -441.63749,621.53429 C -440.93474,621.43755 -440.24789,621.33998 -439.57695,621.24158 L -439.82344,618.49858 C -439.27464,618.5305 -438.67495,618.58662 -438.02438,618.66694 C -437.37383,618.74725 -436.76177,618.80158 -436.18822,618.82993 L -434.75365,628.01904 C -434.74098,628.09192 -434.7482,628.15822 -434.77531,628.21796 C -434.80244,628.27767 -434.86093,628.33878 -434.95079,628.40131 C -435.33751,628.59425 -435.82488,628.83338 -436.4129,629.11872 C -437.00093,629.40403 -437.4883,629.64316 -437.875,629.83613 C -437.94594,629.86956 -438.00899,629.87029 -438.06415,629.83832 C -438.11932,629.80631 -438.16481,629.75397 -438.20061,629.68129 L -438.65143,627.27108 C -440.03464,627.42969 -441.43899,627.61665 -442.8645,627.83196 C -442.69516,628.99887 -442.50786,630.2895 -442.30261,631.70385 C -442.09737,633.11816 -441.8993,634.48301 -441.70841,635.79841 C -441.56794,636.76635 -441.41984,637.7869 -441.26411,638.86005 C -441.10838,639.93314 -440.96926,640.89183 -440.84673,641.73613 C -440.14747,641.65883 -439.44646,641.57184 -438.74369,641.47515 C -438.04094,641.37839 -437.35409,641.28083 -436.68314,641.18244 L -436.90091,638.63736 C -432.94474,636.62541 -428.5162,634.38706 -423.61525,631.92229 C -418.71436,629.45748 -414.21518,627.18362 -410.1177,625.10069 C -410.64911,621.43908 -411.0289,619.17014 -411.25708,618.29385 C -415.66814,617.33828 -420.55092,616.28698 -425.90545,615.13994 C -431.26001,613.9929 -436.13042,612.93981 -440.5167,611.98066 C -440.68058,611.95391 -440.77741,611.86692 -440.80719,611.71967 L -441.28594,609.46509 z M -420.03206,621.53767 C -421.91941,622.42203 -423.78687,623.29089 -425.63447,624.14426 C -427.4821,624.99759 -429.19594,625.79363 -430.77598,626.53239 L -431.78127,619.60504 C -431.79684,619.49782 -431.70266,619.45048 -431.49874,619.463 C -429.72077,619.76177 -427.85485,620.05727 -425.90097,620.34949 C -423.94713,620.64169 -422.00519,620.93879 -420.07515,621.24078 L -420.03206,621.53767 z M -436.31806,642.92016 C -437.00244,643.0876 -437.69631,643.26746 -438.39968,643.45972 C -439.10306,643.65198 -439.79355,643.84387 -440.47116,644.03539 C -440.27752,644.71673 -440.06433,645.44452 -439.83159,646.21875 C -439.59886,646.99298 -439.37214,647.7689 -439.15144,648.54652 C -438.82427,649.71835 -438.49974,650.90391 -438.17785,652.10321 C -437.85595,653.30249 -437.55172,654.41585 -437.26513,655.44329 C -436.57719,655.27699 -435.87504,655.10347 -435.15869,654.92272 C -434.44235,654.74195 -433.75562,654.55977 -433.0985,654.37619 L -433.95513,650.77365 C -431.57531,650.12863 -429.20619,649.48013 -426.84777,648.82816 C -424.48938,648.17618 -422.08416,647.51754 -419.6321,646.85223 L -419.53741,647.18918 C -422.90253,651.16991 -425.87923,654.86946 -428.46752,658.28783 C -431.05583,661.70617 -433.09115,664.50494 -434.57348,666.68414 C -434.21825,667.91731 -433.80246,669.0426 -433.3261,670.06001 C -432.84975,671.07737 -432.41508,671.80783 -432.02208,672.2514 L -405.62481,665.0925 C -405.53059,665.06599 -405.46302,665.05998 -405.42213,665.07449 C -405.3813,665.08895 -405.35511,665.12055 -405.34356,665.16927 L -404.60394,667.24661 C -403.91212,667.10192 -403.2163,666.93666 -402.5165,666.75085 C -401.81677,666.56498 -401.13975,666.37905 -400.48544,666.19303 C -400.69576,665.4525 -400.93657,664.62644 -401.20787,663.71485 C -401.47926,662.80321 -401.73697,661.91698 -401.98103,661.05616 C -402.28177,659.98615 -402.58332,658.91315 -402.88568,657.83716 C -403.18812,656.76113 -403.47276,655.7483 -403.73961,654.79866 C -404.38291,654.95454 -405.06274,655.13045 -405.77912,655.32639 C -406.49556,655.5223 -407.18405,655.71363 -407.84458,655.90037 L -406.96686,659.39311 C -409.72596,660.21718 -412.50129,661.02961 -415.29285,661.8304 C -418.08447,662.63115 -420.86318,663.43154 -423.62899,664.23158 L -423.69663,663.99091 C -420.95979,660.89325 -417.99763,657.51157 -414.81014,653.84586 C -411.62271,650.18012 -408.91554,646.99994 -406.68862,644.30531 C -407.09279,642.86729 -407.52905,641.31495 -407.99741,639.64829 C -408.46583,637.98163 -408.89533,636.45336 -409.28591,635.06347 C -409.94725,635.22444 -410.62709,635.40035 -411.32542,635.5912 C -412.0238,635.78206 -412.71229,635.97338 -413.39088,636.16518 L -412.70255,638.98404 L -435.31229,645.39013 C -435.39829,645.42295 -435.4805,645.3768 -435.55894,645.2517 L -436.31806,642.92016 z M -424.18174,681.75473 C -425.48255,682.29603 -426.79585,682.87039 -428.12166,683.47784 C -427.59704,684.63531 -427.04616,685.83579 -426.46901,687.07928 C -425.89187,688.32275 -425.35127,689.50045 -424.84722,690.61236 C -424.30241,691.82471 -423.75301,693.06243 -423.19901,694.32552 C -422.64503,695.58858 -422.14705,696.71236 -421.70505,697.69687 C -420.35869,697.13499 -419.04539,696.56062 -417.76514,695.97377 L -419.10917,692.63075 L -397.69392,683.07643 C -397.24673,684.06998 -396.94542,684.79339 -396.78998,685.24668 C -396.6346,685.69994 -396.532,686.07419 -396.48216,686.36943 C -396.41608,686.68814 -396.42142,686.93968 -396.49818,687.12405 C -396.57501,687.3084 -396.72805,687.47575 -396.95731,687.62608 L -401.00334,690.32961 C -400.57134,691.10716 -400.13004,691.89768 -399.67942,692.70117 C -399.22888,693.50463 -398.7916,694.25583 -398.3676,694.95477 C -396.85058,694.2393 -395.3394,693.49564 -393.83406,692.72379 C -392.32879,691.95191 -390.83303,691.17407 -389.34678,690.39027 C -389.55711,689.92174 -389.83579,689.30925 -390.18283,688.55279 C -390.52996,687.79631 -390.91773,686.97249 -391.34613,686.08132 C -391.55666,685.61488 -391.92405,684.80074 -392.44832,683.6389 C -392.97266,682.47704 -393.50154,681.30506 -394.03495,680.12296 C -394.56843,678.94085 -394.95411,678.08621 -395.19198,677.55901 C -395.47143,676.93983 -395.89291,676.00585 -396.45641,674.75707 C -397.01998,673.50829 -397.57095,672.28736 -398.10931,671.09428 C -398.64774,669.90121 -399.01895,669.07863 -399.22292,668.62654 C -399.59039,667.80727 -399.94441,667.0025 -400.285,666.21224 C -400.62564,665.422 -400.90768,664.77674 -401.13112,664.27646 C -404.27446,665.47553 -407.44055,666.68487 -410.6294,667.90448 C -410.36359,668.67592 -410.07718,669.49291 -409.77019,670.35548 C -409.46324,671.21805 -409.16656,672.05784 -408.88013,672.87483 L -404.06872,671.74583 C -403.84548,671.68851 -403.63271,671.68391 -403.43039,671.73205 C -403.22814,671.78019 -403.02203,671.94316 -402.81206,672.22098 C -402.62647,672.50062 -402.40228,672.86572 -402.13951,673.31627 C -401.87679,673.76682 -401.552,674.41564 -401.16513,675.26274 L -422.40254,684.84651 C -422.45002,684.86793 -422.49694,684.87539 -422.54329,684.86889 C -422.58966,684.86238 -422.62407,684.83676 -422.64653,684.79206 L -424.18174,681.75473 z M -413.66731,704.4805 C -414.23826,704.85213 -414.82832,705.22881 -415.43749,705.61054 C -416.04666,705.99226 -416.63672,706.36894 -417.20767,706.74057 C -416.63848,707.60922 -416.02989,708.53799 -415.38191,709.52689 C -414.73394,710.51577 -414.0911,711.49682 -413.4534,712.47003 C -411.4989,715.45094 -409.70115,718.19831 -408.06015,720.71218 C -406.41918,723.22601 -405.23476,725.06018 -404.5069,726.2147 C -401.68084,725.13001 -398.88937,724.03813 -396.13249,722.93907 C -396.39948,722.21234 -396.69745,721.46112 -397.0264,720.68539 C -397.3554,719.90964 -397.70168,719.13029 -398.06525,718.34736 L -402.20562,719.32683 C -402.46727,719.38367 -402.70078,719.39222 -402.90615,719.35246 C -403.11155,719.31268 -403.30253,719.20369 -403.47906,719.02549 C -403.73571,718.78017 -404.07193,718.4077 -404.48774,717.90806 C -404.90357,717.40839 -405.38655,716.74353 -405.93668,715.91346 C -406.5469,715.00691 -406.88452,714.37383 -406.94955,714.0142 C -407.0146,713.65456 -406.84528,713.36179 -406.4416,713.1359 L -399.0393,708.28549 C -398.25616,709.49589 -397.50761,710.69909 -396.79365,711.89508 C -396.66831,712.08068 -396.63922,712.27333 -396.70636,712.47302 C -396.77355,712.67269 -396.94924,712.89491 -397.23343,713.13969 L -398.79666,714.40311 C -398.35275,715.07487 -397.89747,715.73547 -397.43082,716.38491 C -396.9642,717.03432 -396.51902,717.6567 -396.09527,718.25206 C -395.54348,717.88922 -394.91154,717.47763 -394.19945,717.01728 C -393.48741,716.55691 -392.74406,716.08727 -391.96942,715.60835 C -391.21376,715.11192 -390.46681,714.62497 -389.72857,714.14749 C -388.9904,713.67 -388.27842,713.2209 -387.59264,712.80021 C -387.97022,712.1746 -388.37184,711.52367 -388.7975,710.84742 C -389.22321,710.17116 -389.66629,709.50257 -390.12674,708.84164 L -391.83854,709.60464 C -392.10779,709.74494 -392.3452,709.80834 -392.55077,709.79487 C -392.75639,709.78139 -392.9026,709.71031 -392.98938,709.58164 C -393.3905,709.01131 -393.79152,708.42973 -394.19242,707.83688 C -394.59337,707.24402 -395.01493,706.63107 -395.45712,705.99803 L -387.55296,700.81878 C -387.50904,700.88587 -387.45994,700.9608 -387.40567,701.04357 C -387.35147,701.12634 -387.30922,701.19082 -387.27893,701.23699 C -386.44496,702.52118 -385.83235,703.52452 -385.44109,704.24702 C -385.04989,704.96952 -384.78703,705.48471 -384.6525,705.79261 C -384.50797,706.10635 -384.45742,706.36215 -384.50085,706.56 C -384.54434,706.75785 -384.64919,706.93614 -384.81538,707.09488 L -387.55532,709.84668 C -387.03415,710.50144 -386.50773,711.15278 -385.97604,711.8007 C -385.44442,712.44861 -384.9454,713.05814 -384.47898,713.62927 C -383.27096,712.7779 -382.06453,711.91265 -380.85968,711.03354 C -379.65491,710.15441 -378.46218,709.26825 -377.28149,708.37507 C -377.60184,707.89004 -377.9993,707.29866 -378.47389,706.60093 C -378.94856,705.90319 -379.46935,705.12362 -380.03625,704.26221 C -380.2978,703.8631 -380.88004,702.97454 -381.78296,701.59651 C -382.68596,700.21849 -383.60109,698.82188 -384.52838,697.40667 C -385.45573,695.99148 -386.08668,695.02857 -386.42124,694.51794 C -387.02415,693.59789 -387.64758,692.64646 -388.29153,691.66366 C -388.93553,690.68088 -389.51786,689.79219 -390.03849,688.99757 C -390.61972,689.34978 -391.21669,689.72351 -391.8294,690.11878 C -392.44217,690.51407 -393.0532,690.91196 -393.66249,691.31245 L -392.18414,693.75105 L -411.83997,706.63065 C -411.88468,706.65745 -411.93443,706.66515 -411.98923,706.65373 C -412.04404,706.64232 -412.08659,706.6154 -412.11687,706.57298 L -413.66731,704.4805 z M -390.03724,726.824 C -390.69641,726.2583 -391.3932,725.69319 -392.1276,725.12867 C -392.86202,724.56417 -393.56953,724.04283 -394.25013,723.56467 C -396.26617,725.87867 -398.30213,728.2449 -400.35803,730.66336 C -399.89726,731.71229 -399.23125,732.82311 -398.35998,733.99581 C -397.48872,735.16851 -396.67611,736.16176 -395.92216,736.97557 C -394.27755,738.76752 -392.70095,740.13413 -391.19237,741.0754 C -389.6838,742.01664 -388.17141,742.61082 -386.65517,742.85794 C -385.12803,743.09076 -383.64102,742.97021 -382.19413,742.49629 C -380.74727,742.02234 -379.43572,741.24845 -378.25947,740.17461 C -376.54774,738.59511 -375.61742,736.77422 -375.46851,734.71192 C -375.31966,732.64961 -375.83478,730.28901 -377.01386,727.63011 C -378.00822,725.45908 -378.56164,723.88863 -378.67411,722.91876 C -378.78663,721.9489 -378.38825,721.08277 -377.47897,720.32038 C -376.95271,719.85859 -376.42268,719.56725 -375.88887,719.44636 C -375.35511,719.3255 -374.88097,719.30602 -374.46645,719.38792 C -373.9764,719.47824 -373.512,719.6515 -373.07324,719.90769 C -372.63454,720.1639 -372.21303,720.51226 -371.80871,720.95276 C -371.46797,721.32715 -371.19899,721.72499 -371.00175,722.14629 C -370.80457,722.56761 -370.69529,722.9763 -370.6739,723.37237 C -370.67949,723.50189 -370.72036,723.62989 -370.79653,723.75637 L -373.44478,727.74776 C -372.79083,728.31398 -372.12821,728.885 -371.45692,729.46081 C -370.78568,730.03662 -370.13921,730.57156 -369.51749,731.06562 C -368.47556,729.97643 -367.4286,728.87418 -366.37663,727.75887 C -365.32473,726.64356 -364.29468,725.5229 -363.28648,724.39686 C -363.50338,723.74617 -363.95167,722.92189 -364.63133,721.92401 C -365.31108,720.92615 -366.13958,719.89093 -367.11684,718.81836 C -368.73382,717.06888 -370.35263,715.72406 -371.97328,714.78388 C -373.594,713.84372 -375.15013,713.30665 -376.64168,713.17264 C -377.96436,713.03632 -379.30279,713.16472 -380.65697,713.55783 C -382.0112,713.95097 -383.26865,714.66673 -384.42933,715.70511 C -386.18487,717.39406 -387.08885,719.39154 -387.14126,721.69757 C -387.19371,724.00362 -386.69148,726.42412 -385.63458,728.95908 C -384.84087,730.80524 -384.39045,732.19876 -384.28333,733.13965 C -384.17624,734.08052 -384.57002,734.94243 -385.46466,735.72535 C -385.90884,736.12874 -386.36747,736.40544 -386.84055,736.55547 C -387.31367,736.70548 -387.78857,736.74262 -388.26525,736.66689 C -388.80473,736.59362 -389.34696,736.37869 -389.89196,736.0221 C -390.43698,735.66549 -390.91791,735.25856 -391.33473,734.8013 C -391.76234,734.33694 -392.11124,733.84277 -392.38145,733.31881 C -392.65168,732.79484 -392.81324,732.26448 -392.86616,731.72772 C -392.87774,731.63654 -392.86935,731.544 -392.84098,731.45012 C -392.81264,731.35623 -392.77813,731.27366 -392.73747,731.20242 L -390.03724,726.824 z"
         style="font-size:50px;font-style:normal;font-variant:normal;font-weight:bold;font-stretch:normal;text-align:start;line-height:100%;writing-mode:lr-tb;text-anchor:start;fill:#112988;fill-opacity:1;stroke:none;stroke-width:1px;stroke-linecap:butt;stroke-linejoin:miter;stroke-opacity:1;font-family:Chaparral Pro;-inkscape-font-specification:Chaparral Pro Bold" />
      <path
         id="text3236"
         d="M -285.46335,727.21005 C -283.59247,729.07983 -281.57193,730.37275 -279.40172,731.0888 C -277.2315,731.80487 -275.16021,732.02008 -273.18784,731.73443 C -271.40711,731.45637 -269.69229,730.84146 -268.04336,729.88969 C -266.39445,728.93794 -264.86623,727.77231 -263.4587,726.39279 C -262.50446,725.44218 -261.47669,724.14122 -260.3754,722.48993 C -259.27414,720.83867 -258.33892,719.20933 -257.56974,717.6019 C -258.14023,717.1599 -258.76559,716.69278 -259.44583,716.20055 C -260.1261,715.70836 -260.79577,715.24945 -261.45486,714.82382 C -261.86592,715.7012 -262.52515,716.78053 -263.43255,718.06182 C -264.33998,719.34315 -265.22003,720.41049 -266.07271,721.26384 C -266.80631,721.97971 -267.66648,722.58325 -268.65321,723.07448 C -269.63996,723.56573 -270.65441,723.83117 -271.69657,723.87078 C -273.03069,723.92688 -274.37256,723.59833 -275.72221,722.88514 C -277.07185,722.17197 -278.49075,721.04676 -279.9789,719.5095 C -281.44236,717.99767 -282.54285,716.44681 -283.28036,714.85691 C -284.01786,713.26706 -284.39289,711.67352 -284.40544,710.07629 C -284.39613,709.06358 -284.2048,708.14846 -283.83145,707.33094 C -283.45808,706.51348 -282.97825,705.82348 -282.39197,705.26093 C -282.03045,704.91254 -281.67008,704.64365 -281.31085,704.45428 C -280.95161,704.26497 -280.61119,704.15492 -280.28958,704.12412 C -280.18159,704.09328 -280.06969,704.09783 -279.95387,704.13775 C -279.83805,704.17774 -279.7269,704.23532 -279.62043,704.31046 L -275.17171,707.23803 C -274.59305,706.53915 -274.02322,705.84012 -273.46223,705.14093 C -272.90125,704.4418 -272.36678,703.74227 -271.85881,703.04232 C -274.36583,700.73772 -276.92662,698.48536 -279.54119,696.28522 C -280.13493,696.54418 -280.87977,697.0153 -281.7757,697.69859 C -282.67163,698.38196 -283.67869,699.2648 -284.79689,700.34711 C -286.39468,701.89705 -287.72352,703.64747 -288.78341,705.59838 C -289.84328,707.54936 -290.51345,709.60089 -290.79391,711.75299 C -291.17481,714.13059 -290.99423,716.65098 -290.25217,719.31418 C -289.51009,721.97742 -287.92544,724.59742 -285.4982,727.17419 L -285.46335,727.21005 z M -276.28965,697.95024 L -256.26091,710.52642 C -256.23761,710.54221 -256.21663,710.56761 -256.19797,710.6026 C -256.17931,710.63761 -256.17555,710.66698 -256.1867,710.69072 L -257.38443,712.89021 C -256.79259,713.26009 -256.20606,713.62666 -255.62482,713.9899 C -255.04359,714.35315 -254.45706,714.71972 -253.86522,715.08959 C -253.36672,714.29194 -252.82681,713.42804 -252.2455,712.49788 C -251.66419,711.56774 -251.09116,710.65084 -250.52641,709.74718 C -249.85347,708.6704 -249.18549,707.60157 -248.52247,706.54067 C -247.85946,705.4798 -247.26435,704.52756 -246.73713,703.68397 C -247.32787,703.31234 -247.90999,702.93871 -248.48349,702.56308 C -249.057,702.18748 -249.63912,701.81385 -250.22984,701.44219 L -251.78796,703.6523 L -258.58787,699.34365 C -258.55784,699.18555 -258.37412,698.82869 -258.03671,698.27305 C -257.75085,697.80192 -257.34741,697.46691 -256.82637,697.26802 C -256.30532,697.06917 -255.6329,697.03492 -254.80909,697.16528 C -253.39555,697.39768 -251.52158,697.68935 -249.18717,698.04028 C -246.85278,698.39124 -244.97086,698.59944 -243.54141,698.66486 C -243.23294,698.16734 -242.7012,697.30079 -241.94621,696.0652 C -241.19124,694.82966 -240.633,693.92071 -240.2715,693.33835 C -239.98854,692.88754 -239.66018,692.3582 -239.28643,691.75033 C -238.9127,691.14251 -238.60157,690.61715 -238.35302,690.17424 C -239.5473,689.4279 -240.72037,688.69477 -241.87223,687.97487 L -243.39855,689.85108 C -243.55778,690.06852 -243.8157,690.20213 -244.17233,690.25191 C -244.52898,690.30174 -245.03071,690.28299 -245.67751,690.19564 C -248.22977,689.84737 -250.32788,689.63919 -251.97185,689.57108 C -253.61582,689.50302 -254.94675,689.78904 -255.96465,690.42911 L -256.17665,690.29662 C -255.83563,688.37122 -255.98121,686.52862 -256.61338,684.76881 C -257.24555,683.00907 -258.45507,681.54809 -260.24196,680.38588 C -261.67704,679.51975 -263.39665,679.20908 -265.40079,679.45389 C -267.40492,679.69877 -269.22387,680.60842 -270.85765,682.18283 C -271.89231,683.20556 -272.71796,684.14146 -273.33463,684.99053 C -273.95125,685.83967 -274.62188,686.85772 -275.34653,688.04467 C -276.39065,689.7174 -277.43182,691.40302 -278.47003,693.10154 C -279.50819,694.8001 -280.47914,696.39695 -281.38287,697.89208 C -280.19829,698.62257 -279.00579,699.3875 -277.80536,700.18685 L -276.28965,697.95024 z M -272.1029,690.77934 C -272.06689,690.62743 -271.99049,690.43443 -271.8737,690.20032 C -271.75687,689.96626 -271.59302,689.6805 -271.38215,689.34304 C -270.62858,688.20611 -269.50965,687.55176 -268.02536,687.37999 C -266.54105,687.20829 -264.99943,687.59934 -263.40049,688.55314 C -261.98659,689.45522 -261.10037,690.57657 -260.74183,691.91719 C -260.38327,693.25787 -260.6405,694.65219 -261.51351,696.10018 C -261.68321,696.3737 -261.82078,696.58989 -261.92623,696.74876 C -262.03167,696.90768 -262.12022,697.02185 -262.19188,697.09128 L -272.1029,690.77934 z M -241.56099,686.25856 C -240.92996,686.51527 -240.28388,686.78478 -239.62275,687.0671 C -238.96162,687.34943 -238.31554,687.61894 -237.68451,687.87564 C -237.29612,686.91247 -236.88085,685.88265 -236.4387,684.78616 C -235.99655,683.68968 -235.55791,682.60189 -235.12276,681.52278 C -233.79066,678.21653 -232.56084,675.17227 -231.43329,672.39 C -230.30576,669.60776 -229.47572,667.58834 -228.94316,666.33173 C -231.44683,664.63031 -233.93665,662.9614 -236.41264,661.325 C -236.85698,661.95901 -237.30375,662.63245 -237.75295,663.34531 C -238.20216,664.05823 -238.64444,664.78739 -239.07981,665.53279 L -235.91238,668.37347 C -235.71637,668.55586 -235.57607,668.74272 -235.49149,668.93405 C -235.40692,669.12541 -235.38741,669.34443 -235.43298,669.5911 C -235.48793,669.94185 -235.60187,670.43053 -235.7748,671.05713 C -235.94774,671.68376 -236.218,672.45983 -236.58559,673.38532 C -236.98168,674.4038 -237.30881,675.04237 -237.56699,675.30102 C -237.82517,675.55971 -238.16221,675.58778 -238.5781,675.38524 L -246.7858,672.07554 C -246.23891,670.74164 -245.6782,669.44026 -245.10365,668.17139 C -245.02279,667.96254 -244.88121,667.8287 -244.67892,667.76985 C -244.47661,667.71106 -244.19386,667.72848 -243.83067,667.82213 L -241.90103,668.3846 C -241.6028,667.63668 -241.32023,666.8858 -241.05332,666.13195 C -240.7864,665.37814 -240.52945,664.65736 -240.28245,663.96961 C -240.89532,663.72362 -241.59398,663.43965 -242.37841,663.11769 C -243.16284,662.79578 -243.97274,662.45347 -244.80813,662.09075 C -245.64706,661.7536 -246.47323,661.41821 -247.28665,661.08456 C -248.10006,660.75097 -248.87518,660.42268 -249.61204,660.09969 C -249.91022,660.76681 -250.21548,661.46811 -250.52781,662.2036 C -250.84012,662.93915 -251.13621,663.68457 -251.4161,664.43989 L -249.81256,665.40997 C -249.54369,665.55099 -249.35611,665.70974 -249.24984,665.88622 C -249.14355,666.06276 -249.11847,666.22338 -249.17459,666.36808 C -249.41394,667.02297 -249.66261,667.68419 -249.92058,668.35176 C -250.17854,669.01936 -250.44123,669.71536 -250.70865,670.43977 L -259.47281,666.90568 C -259.44279,666.83132 -259.40929,666.74824 -259.3723,666.65644 C -259.33527,666.56469 -259.30644,666.4932 -259.28582,666.44197 C -258.70735,665.02422 -258.23315,663.94852 -257.86321,663.21487 C -257.49324,662.48128 -257.22024,661.97139 -257.04421,661.68519 C -256.86908,661.38744 -256.68789,661.19993 -256.50065,661.12266 C -256.31336,661.04546 -256.10712,661.02978 -255.88192,661.07565 L -252.05853,661.75482 C -251.81836,660.95317 -251.584,660.14915 -251.35544,659.34277 C -251.12686,658.53644 -250.9112,657.7788 -250.70845,657.06983 C -252.09702,656.56383 -253.49607,656.06707 -254.90561,655.57952 C -256.31511,655.09204 -257.72351,654.61846 -259.13081,654.15877 C -259.34624,654.69865 -259.60497,655.36255 -259.90701,656.15049 C -260.209,656.93849 -260.55188,657.81106 -260.93563,658.76821 C -261.11406,659.21078 -261.51135,660.19602 -262.12751,661.72395 C -262.74363,663.25194 -263.36808,664.80051 -264.00086,666.36966 C -264.63359,667.93886 -265.06413,669.00654 -265.29247,669.5727 C -265.70382,670.59289 -266.12921,671.64783 -266.56867,672.73754 C -267.00806,673.82728 -267.40541,674.81267 -267.76072,675.6937 C -267.13977,675.96993 -266.49217,676.2468 -265.8179,676.5243 C -265.14357,676.80184 -264.4681,677.07646 -263.79149,677.34818 L -262.63292,674.74242 L -240.83845,683.53088 C -240.79093,683.5523 -240.75621,683.58876 -240.73431,683.64027 C -240.7124,683.69179 -240.71022,683.74209 -240.72776,683.79116 L -241.56099,686.25856 z M -252.14875,644.46206 L -251.47963,641.1271 C -252.13454,640.92638 -252.81805,640.73827 -253.53017,640.56276 C -254.24223,640.38731 -254.93138,640.22355 -255.59761,640.0715 C -255.85858,641.2086 -256.13322,642.43234 -256.42153,643.74271 C -256.70977,645.05313 -257.00132,646.34993 -257.29617,647.63313 C -257.55321,648.73479 -257.82906,649.88982 -258.1237,651.09823 C -258.41829,652.30667 -258.67723,653.38863 -258.90051,654.34412 C -258.2432,654.52083 -257.56249,654.69332 -256.85838,654.86161 C -256.15422,655.02991 -255.45851,655.19304 -254.77126,655.35101 L -254.17784,653.23023 C -254.15574,653.13484 -254.11635,653.07553 -254.05968,653.05229 C -254.00296,653.02907 -253.92613,653.02974 -253.8292,653.05431 L -239.26431,656.42484 C -237.43426,656.87935 -235.57478,657.06803 -233.68587,656.99087 C -231.79694,656.91373 -230.04474,656.34626 -228.42927,655.28847 C -227.07058,654.35623 -225.97288,653.15189 -225.13618,651.67545 C -224.29948,650.19902 -223.64271,648.4051 -223.16585,646.29368 C -222.66331,644.03428 -222.55894,642.15101 -222.85274,640.64388 C -223.14656,639.13679 -223.67495,637.82559 -224.43791,636.71026 C -225.11545,635.56771 -226.30384,634.4288 -228.00307,633.29353 C -229.70231,632.15832 -232.00292,631.22391 -234.90492,630.4903 L -248.13205,627.3267 L -247.73709,624.95471 C -248.42365,624.79372 -249.11794,624.6245 -249.81999,624.44703 C -250.52199,624.26965 -251.2041,624.10324 -251.86634,623.94782 C -252.06814,624.8292 -252.27514,625.76067 -252.48735,626.74222 C -252.69951,627.72384 -252.92342,628.72837 -253.15908,629.75582 C -253.41449,630.85039 -253.68235,631.97091 -253.96267,633.1174 C -254.24293,634.26395 -254.49106,635.29923 -254.70707,636.22325 C -254.04482,636.37866 -253.3627,636.54506 -252.66071,636.72247 C -251.95866,636.89992 -251.26437,637.06914 -250.57782,637.23014 L -249.6913,633.84284 C -249.6562,633.79753 -249.61948,633.75898 -249.58115,633.7272 C -249.54277,633.69548 -249.49951,633.68411 -249.45136,633.69308 C -247.36419,634.12693 -245.0438,634.63397 -242.49017,635.2142 C -239.93652,635.79449 -237.62176,636.32588 -235.54589,636.80838 C -233.91989,637.18362 -232.51435,637.65215 -231.32929,638.21398 C -230.14421,638.77586 -229.29061,639.41176 -228.76849,640.12168 C -228.36469,640.64068 -228.07337,641.22986 -227.89451,641.88921 C -227.71565,642.54861 -227.72425,643.32498 -227.9203,644.21834 C -228.11507,645.06926 -228.41376,645.78705 -228.81636,646.37173 C -229.21896,646.95643 -229.74047,647.41738 -230.3809,647.75457 C -231.13404,648.1769 -232.04939,648.42696 -233.12695,648.50475 C -234.20451,648.58257 -235.64895,648.40227 -237.46026,647.96384 L -252.14875,644.46206 z M -230.30323,622.39092 C -230.26938,623.2589 -230.2095,624.15404 -230.12359,625.07635 C -230.03767,625.99866 -229.93841,626.87188 -229.82583,627.696 C -226.75831,627.59926 -223.63896,627.4816 -220.46777,627.34301 C -220.01248,626.29169 -219.65147,625.04783 -219.38475,623.61145 C -219.11803,622.17508 -218.94292,620.90377 -218.85942,619.79754 C -218.66497,617.37308 -218.736,615.28784 -219.07248,613.54181 C -219.40897,611.79582 -220.00243,610.28314 -220.85286,609.00376 C -221.72119,607.72612 -222.82121,606.7183 -224.15292,605.9803 C -225.48462,605.24234 -226.9441,604.80761 -228.53136,604.6761 C -230.85353,604.49616 -232.821,605.05314 -234.43376,606.34706 C -236.0465,607.64103 -237.42614,609.62455 -238.57268,612.29764 C -239.48733,614.50344 -240.26181,615.97747 -240.89611,616.71974 C -241.53037,617.46204 -242.43619,617.75932 -243.61357,617.61158 C -244.31005,617.54006 -244.88417,617.34981 -245.33594,617.04082 C -245.78765,616.73186 -246.1245,616.39761 -246.34649,616.03808 C -246.61369,615.61748 -246.80266,615.15924 -246.9134,614.66338 C -247.02408,614.16755 -247.05554,613.62163 -247.00777,613.02561 C -246.96519,612.52118 -246.85661,612.05337 -246.68203,611.62218 C -246.50739,611.19104 -246.28221,610.8329 -246.00648,610.54776 C -245.90775,610.46374 -245.78613,610.40661 -245.64162,610.37639 L -240.91463,609.60182 C -240.94454,608.73732 -240.97685,607.8632 -241.01154,606.97946 C -241.04619,606.09577 -241.09395,605.25803 -241.15482,604.46625 C -242.66196,604.44363 -244.18208,604.42621 -245.71519,604.414 C -247.24824,604.40184 -248.77036,604.40934 -250.28154,604.43651 C -250.61087,605.03816 -250.91,605.9275 -251.17895,607.10452 C -251.44783,608.28159 -251.64289,609.59309 -251.76411,611.03903 C -251.94622,613.41435 -251.83051,615.51572 -251.41699,617.34313 C -251.0034,619.17057 -250.33834,620.67646 -249.42179,621.86079 C -248.62184,622.92293 -247.61716,623.81651 -246.40775,624.54155 C -245.19829,625.26659 -243.81822,625.70122 -242.26754,625.84544 C -239.83535,625.98303 -237.75638,625.2866 -236.03063,623.75614 C -234.30485,622.2257 -232.87254,620.21087 -231.7337,617.71165 C -230.92064,615.87393 -230.20576,614.59576 -229.58906,613.87713 C -228.97235,613.15853 -228.07276,612.86075 -226.89029,612.98378 C -226.29246,613.03488 -225.77764,613.18276 -225.34583,613.42742 C -224.91401,613.67211 -224.5637,613.9949 -224.2949,614.39578 C -223.98157,614.84101 -223.7702,615.38464 -223.66076,616.02667 C -223.55132,616.66873 -223.52237,617.29805 -223.57392,617.91463 C -223.62334,618.54395 -223.74814,619.13586 -223.94832,619.69036 C -224.1485,620.24489 -224.42728,620.72412 -224.78468,621.12808 C -224.84363,621.1986 -224.91715,621.25541 -225.00526,621.29849 C -225.09335,621.34159 -225.17734,621.37248 -225.25722,621.39114 L -230.30323,622.39092 z"
         style="font-size:50px;font-style:normal;font-variant:normal;font-weight:bold;font-stretch:normal;text-align:start;line-height:100%;writing-mode:lr-tb;text-anchor:start;fill:#112988;fill-opacity:1;stroke:none;stroke-width:1px;stroke-linecap:butt;stroke-linejoin:miter;stroke-opacity:1;font-family:Chaparral Pro;-inkscape-font-specification:Chaparral Pro Bold" />
      <path
         id="path3240"
         d="M -373.61189,419.55373 L -373.73028,429.52783 C -346.84894,432.58836 -348.51462,443.57913 -345.93893,457.28958 L -345.93893,462.85377 L -360.38214,462.85377 C -371.26522,460.80933 -380.00231,462.17153 -382.43172,440.83379 L -390.33405,440.89298 L -390.33405,468.74352 L -390.33405,480.49343 L -390.33405,508.34397 L -382.43172,508.40316 C -380.00231,487.06544 -371.26521,488.39811 -360.38214,486.35359 L -345.93893,486.35359 L -345.93893,514.88485 L -345.96853,514.88485 L -345.96853,530.27516 L -346.2349,530.27516 L -346.2349,530.24556 L -394.15203,530.24556 C -405.03509,528.20111 -413.7722,529.56331 -416.20161,508.22558 L -424.13354,508.31437 L -424.13354,536.13532 L -424.13354,547.91482 L -424.13354,575.73576 L -416.20161,575.82455 C -413.77219,554.48682 -405.0351,555.8195 -394.15203,553.77498 L -348.45465,553.77498 L -345.96853,553.77498 L -345.96853,721.17418 C -348.54413,734.8846 -346.84894,745.90499 -373.73028,748.96553 L -373.61189,758.91003 L -338.53974,758.91003 L -323.74137,758.91003 L -288.66922,758.91003 L -288.58043,748.96553 C -315.46176,745.90499 -313.76658,734.88461 -316.34218,721.17418 L -316.34218,610.95589 L -316.31259,610.95589 L -316.31259,553.77498 L -268.12908,553.77498 C -257.24607,555.81942 -248.50888,554.48681 -246.0795,575.82455 L -238.17717,575.73576 L -238.17717,547.91482 L -238.17717,536.13532 L -238.17717,508.31437 L -246.0795,508.22558 C -248.50888,529.56328 -257.24608,528.23071 -268.12908,530.27516 L -316.31259,530.27516 L -316.31259,486.38318 L -301.89897,486.38318 C -291.01597,488.42762 -282.30837,487.06543 -279.87899,508.40316 L -271.94706,508.34397 L -271.94706,480.49343 L -271.94706,468.74352 L -271.94706,440.89298 L -279.87899,440.83379 C -282.30838,462.1715 -291.01596,460.80932 -301.89897,462.85377 L -316.31259,462.85377 L -316.31259,457.28958 C -313.73699,443.57913 -315.46177,432.58836 -288.58043,429.52783 L -288.66922,419.55373 L -323.74137,419.55373 L -338.53974,419.55373 L -373.61189,419.55373 z"
         style="fill:#000000;fill-rule:evenodd;stroke:#000000;stroke-width:0.53314936px;stroke-linecap:butt;stroke-linejoin:miter;stroke-opacity:1" />
    </g>
  </g>
</svg>
