<?xml version="1.0" encoding="UTF-8" standalone="no"?>
<!-- Created with Inkscape (http://www.inkscape.org/) -->
<svg
   xmlns:svg="http://www.w3.org/2000/svg"
   xmlns="http://www.w3.org/2000/svg"
   version="1.0"
   width="455"
   height="605"
   id="svg2">
  <defs
     id="defs4" />
  <g
     transform="translate(301.66335,-136.59483)"
     id="layer1">
    <g
       transform="matrix(1.0244543,0,0,1.0181971,9.8770836,-10.903818)"
       id="g3245">
      <path
         d="M 298.6191,418.81091 A 46.253502,63.0914 0 1 1 206.1121,418.81091 A 46.253502,63.0914 0 1 1 298.6191,418.81091 z"
         transform="matrix(4.7160471,0,0,4.6461777,-1272.2024,-1503.9136)"
         id="path2416"
         style="fill:#ed1c24;fill-opacity:1;fill-rule:nonzero;stroke:#000000;stroke-width:0.64089113;stroke-linecap:round;stroke-linejoin:round;marker:none;marker-start:none;marker-mid:none;marker-end:none;stroke-miterlimit:4;stroke-dasharray:none;stroke-dashoffset:0;stroke-opacity:1;visibility:visible;display:inline;overflow:visible;enable-background:accumulate" />
      <path
         d="M -92.232252,176.23924 L -92.232252,202.16876 L -123.97487,202.16876 L -123.97487,222.3995 L -92.232252,222.3995 L -92.232252,296.48387 L -71.69291,296.48387 L -71.69291,222.3995 L -40.09389,222.3995 L -40.09389,202.16876 L -71.69291,202.16876 L -71.69291,176.23924 L -92.232252,176.23924 z"
         id="rect2418"
         style="fill:#eac102;fill-opacity:1;fill-rule:nonzero;stroke:#43290c;stroke-width:1;stroke-linecap:butt;stroke-linejoin:miter;marker:none;marker-start:none;marker-mid:none;marker-end:none;stroke-miterlimit:4;stroke-dasharray:none;stroke-dashoffset:0;stroke-opacity:1;visibility:visible;display:inline;overflow:visible;enable-background:accumulate" />
      <path
         d="M -180.00163,316.7146 C -202.45672,317.22726 -219.58002,324.36393 -231.4218,337.94262 C -243.26377,351.52176 -249.13773,368.59303 -249.23214,389.08933 C -248.84734,407.25605 -243.76783,422.37559 -233.86354,434.53724 C -223.95934,446.69916 -211.61238,457.50084 -196.80654,467.02038 C -195.45029,467.92763 -194.20807,468.81209 -192.92849,469.72731 L -192.92849,558.34362 C -206.84188,556.75046 -217.83639,549.12693 -225.96379,535.54843 C -234.403,521.44914 -240.18848,507.98535 -243.1996,495.08696 L -254.11562,499.36106 C -252.94082,511.0265 -251.67383,522.74168 -250.09393,534.55114 C -248.51416,546.36069 -246.85295,555.05701 -245.35408,560.76561 C -242.95747,561.91854 -240.25242,563.2672 -237.16707,564.61229 C -234.08172,565.9573 -230.43012,567.34913 -226.25106,568.88639 C -221.8761,570.25556 -217.32341,571.32251 -212.46241,572.1632 C -207.60145,573.00393 -202.44095,573.4214 -197.09381,573.44543 C -174.16627,572.94102 -156.27568,565.79331 -143.2319,551.79 C -130.18834,537.78682 -123.51022,519.95556 -123.26708,498.50624 C -123.5372,479.81118 -128.53697,464.41344 -138.20479,452.20351 C -147.87288,439.99381 -160.58574,429.09931 -176.41083,419.43542 C -179.75003,417.24795 -182.73481,415.02424 -185.60327,412.88181 L -185.60327,331.389 C -185.32768,331.375 -185.02028,331.3947 -184.74148,331.389 C -172.67687,332.01373 -163.70515,337.44495 -157.59507,347.77304 C -151.48514,358.10159 -146.8158,369.57035 -143.66279,382.1083 L -143.08827,381.96583 C -140.03656,393.65867 -137.05835,405.01546 -132.89041,421.28753 C -127.07679,443.98571 -120.88592,468.34606 -114.36191,494.37461 C -107.83804,520.40335 -101.74971,545.24915 -95.977047,569.02886 L -83.19382,569.02886 C -76.599629,542.75111 -69.823794,516.59236 -63.085373,490.67039 C -56.347136,464.74862 -50.265639,441.47286 -44.700494,420.71765 C -39.135625,399.96277 -34.847907,384.19506 -31.773635,373.41763 C -31.576917,372.68942 -31.394677,372.12971 -31.199108,371.42305 L -31.199108,523.42904 C -30.892495,538.55333 -32.073309,548.08464 -34.789902,552.20797 C -37.50645,556.33135 -43.610685,558.76136 -53.031136,559.47394 L -53.031136,572.15376 L 69.199494,572.15376 C 70.371391,565.69256 71.888326,556.17557 73.652078,543.51731 C 75.415555,530.85909 76.620774,520.50702 77.530136,512.31639 L 68.624967,509.18205 C 66.516176,517.21248 64.368732,524.06763 62.161537,529.84019 C 59.954112,535.61294 57.794488,540.51946 55.554476,544.51459 C 52.881546,549.06237 49.319387,552.34511 45.069357,554.20255 C 40.819006,556.06009 35.287092,556.83106 28.408073,556.76701 C 23.659446,556.80699 19.522622,556.63913 16.055741,556.05466 C 12.588724,555.47015 9.8568704,554.32473 7.868731,552.63538 C 5.7985032,551.18625 4.3812599,548.04261 3.5597781,543.37484 C 2.7381585,538.70711 2.3778151,531.94487 2.410724,523.00163 L 2.410724,446.0773 L 17.348427,446.0773 C 27.431561,445.549 34.098097,446.84796 37.313242,450.06646 C 40.528158,453.28523 42.955695,461.54963 44.49483,474.85623 L 53.4,474.85623 L 53.4,399.48963 L 44.49483,399.48963 C 42.939195,412.44418 40.433843,420.60154 37.169611,423.85199 C 33.905148,427.10272 27.316564,428.48015 17.348427,427.98362 L 2.410724,427.98362 L 2.410724,347.34563 C 2.2791803,341.22093 2.8075613,337.32063 3.9906734,335.6631 C 5.1735557,334.00598 7.8154149,333.16762 11.89042,333.38358 L 21.370117,333.38358 C 29.136527,333.38385 35.016605,334.36131 39.036823,336.09051 C 43.056904,337.82021 45.934825,340.32531 47.654729,343.78389 C 49.599021,347.05878 51.230356,351.31574 52.681841,356.46371 C 54.133096,361.6121 55.559946,367.63199 56.847162,374.55739 L 65.752331,372.70528 C 65.199039,361.40037 64.692628,350.38109 64.172382,339.65226 C 63.651998,328.92384 63.325621,321.75849 63.16696,318.1393 L 5.7142546,318.1393 L -0.60554299,318.1393 L -50.158501,318.1393 L -75.8686,318.1393 C -76.027262,321.75849 -76.353685,328.92384 -76.874023,339.65226 C -77.394268,350.38109 -78.044357,361.40037 -78.597604,372.70528 L -69.548803,374.55739 C -68.261586,367.63199 -66.978369,361.6121 -65.527113,356.46371 C -64.075628,351.31574 -62.30057,347.05878 -60.35637,343.78389 C -58.636466,340.32531 -55.758453,337.82021 -51.73845,336.09051 C -50.409822,335.51903 -48.880018,335.04845 -47.142234,334.66581 C -44.966155,336.00972 -43.406843,337.59075 -42.689649,339.50979 C -40.993508,344.04963 -41.781483,352.63891 -44.844126,365.29685 C -48.943307,384.88083 -53.876486,406.82654 -59.781843,431.11796 C -65.687521,455.40965 -71.232489,477.541 -76.443127,497.50895 L -77.017654,497.50895 C -80.58772,483.01919 -84.760165,466.29044 -89.513618,447.35953 C -94.267255,428.4289 -98.786392,410.55802 -103.015,393.5059 C -107.24366,376.45418 -110.35603,363.46516 -112.35107,354.6116 C -114.41229,346.07699 -114.61627,340.28897 -112.9256,337.23027 C -112.77346,336.95504 -112.55836,336.63591 -112.35107,336.37545 C -108.65383,338.10041 -105.93806,340.50534 -104.30769,343.78389 C -102.36344,347.05878 -100.73206,351.31574 -99.280578,356.46371 C -97.82923,361.6121 -96.402473,367.63199 -95.115257,374.55739 L -86.210087,372.70528 C -86.76338,361.40037 -87.269791,350.38109 -87.790037,339.65226 C -88.310466,328.92384 -88.636798,321.75849 -88.795459,318.1393 L -97.556996,318.1393 L -164.92029,318.1393 C -169.67269,317.34876 -174.71327,316.81672 -180.00163,316.7146 z M -193.07212,332.95617 C -193.02919,332.93985 -192.97151,332.97222 -192.92849,332.95617 L -192.92849,407.18301 C -197.36572,403.36463 -200.96111,399.59755 -203.8445,395.92788 C -209.75193,388.41003 -212.79701,379.35692 -212.74967,368.71613 C -212.54054,357.41122 -209.6919,348.34046 -204.41903,341.64684 C -201.12354,337.46365 -197.36453,334.58753 -193.07212,332.95617 z M -185.60327,475.42611 C -179.4601,480.5202 -174.37172,485.76555 -170.52193,491.0978 C -164.53352,499.39261 -161.50696,508.94165 -161.47313,519.73426 C -161.58123,531.43982 -164.22351,540.80326 -169.51651,547.80084 C -173.66634,553.28705 -179.06326,556.62294 -185.60327,557.91621 L -185.60327,475.42611 z"
         id="path3207"
         style="font-size:71.39350128px;font-style:normal;font-variant:normal;font-weight:bold;font-stretch:normal;text-align:start;line-height:100%;writing-mode:lr-tb;text-anchor:start;fill:#eac102;fill-opacity:1;stroke:#43290c;stroke-width:1;stroke-linecap:butt;stroke-linejoin:miter;stroke-miterlimit:4;stroke-dasharray:none;stroke-opacity:1;font-family:Minion Pro Cond" />
      <path
         d="M -217.61741,642.22175 C -217.61741,642.22175 -217.61741,607.01658 -192.1973,608.91957 C -166.77719,610.82256 -161.50133,615.10427 -143.75525,631.2796 C -126.00912,647.45493 -113.05923,659.82429 -104.90563,662.67874 C -96.751992,665.53325 -77.567017,669.81496 -66.056023,664.106 C -54.545029,658.39708 -26.247191,600.83193 -1.3066958,596.07448 C 23.633753,591.31703 39.461376,601.30766 43.778005,613.67702 C 48.094633,626.04642 47.135357,643.649 40.420606,643.649 C 33.705856,643.649 34.747313,636.28871 26.031875,631.75538 C 14.694342,625.85817 4.9283935,627.94936 -0.82708063,628.42514 C -6.5826007,628.90088 -27.206467,643.17322 -41.115583,663.15453 C -55.02469,683.13579 -67.97453,676.47535 -67.97453,676.47535 C -67.97453,676.47535 -55.98392,682.66005 -42.074814,684.0873 C -28.165698,685.51451 -16.175088,684.56304 -15.215812,686.94176 C -14.256581,689.32049 -18.57321,702.64136 -23.369454,704.06856 C -28.165698,705.49582 -36.798955,709.30179 -43.513705,705.97155 C -50.22841,702.64136 -75.648511,679.80559 -75.648511,679.80559 L -76.607787,695.02941 C -76.607787,695.02941 -76.128172,701.21411 -71.331928,705.49582 C -66.535638,709.77753 -60.300549,718.34095 -60.300549,718.34095 L -74.68928,716.43796 L -81.883646,726.42859 L -87.639166,716.43796 C -87.639166,716.43796 -91.476133,717.86517 -96.751992,717.86517 C -102.0279,717.86517 -105.86486,715.01071 -105.86486,715.01071 C -105.86486,715.01071 -95.792762,709.77753 -92.43541,704.06856 C -89.078011,698.35965 -89.078011,678.85407 -89.078011,678.85407 C -89.078011,678.85407 -93.874255,676.95113 -99.629775,683.13579 C -105.38525,689.32049 -114.97774,702.64136 -124.57022,705.02008 C -134.16271,707.39881 -142.31635,703.59283 -147.1126,700.73837 C -151.90884,697.88391 -152.86812,690.27196 -150.46995,689.79622 C -148.07183,689.32049 -136.08122,694.07793 -129.36647,688.36902 C -122.65176,682.66005 -119.77398,678.85407 -113.53889,677.9026 C -107.30376,676.95113 -105.86486,675.04814 -105.86486,675.04814 C -105.86486,675.04814 -122.1721,675.52388 -136.56088,664.106 C -150.94961,652.68811 -168.21608,645.55194 -177.80857,645.07621 C -187.40105,644.60047 -197.15078,648.0327 -202.74906,649.35792 C -208.79299,650.78864 -217.57623,646.29912 -217.61741,642.22175 z"
         id="path3225"
         style="fill:#008f4c;fill-opacity:1;fill-rule:nonzero;stroke:#0a1e11;stroke-width:1;stroke-linecap:butt;stroke-linejoin:miter;marker:none;marker-start:none;marker-mid:none;marker-end:none;stroke-miterlimit:4;stroke-dasharray:none;stroke-dashoffset:0;stroke-opacity:1;visibility:visible;display:inline;overflow:visible;enable-background:accumulate" />
      <path
         d="M -84.410509,578.71673 C -88.49958,580.19187 -91.439099,585.07452 -90.150311,589.6968 C -88.747507,596.516 -92.053283,603.67035 -89.522234,610.28605 C -86.806582,613.57493 -83.538658,616.61835 -83.750511,621.52638 C -82.961499,627.62108 -77.095598,625.64154 -73.614921,623.57664 C -71.148969,621.92738 -64.16368,620.03208 -66.616222,625.54641 C -68.269535,629.58249 -75.216397,629.20162 -74.159809,634.87144 C -74.706513,643.22817 -78.427649,651.18142 -77.831122,659.64155 C -80.566033,664.12246 -73.260513,660.77055 -72.112554,658.9358 C -65.396137,653.41153 -67.002294,642.78621 -61.121851,636.69282 C -57.690899,634.32846 -54.155698,632.02373 -51.333885,628.79424 C -48.634505,625.81595 -44.775388,621.60716 -47.023423,617.17236 C -48.61135,612.98935 -53.449403,614.31362 -56.747616,614.36283 C -61.049321,614.55914 -65.090207,612.68353 -68.118906,609.60363 C -72.127733,606.32535 -76.834113,603.16856 -78.915054,598.08457 C -79.40415,591.96184 -80.142503,585.61276 -82.803966,580.07101 C -83.177514,579.48723 -83.656162,578.74221 -84.410509,578.71673 z M -106.12255,595.68077 C -110.9381,597.88327 -110.99395,604.06357 -112.48789,608.59151 C -114.33643,612.84188 -118.28503,615.53375 -121.17554,618.95206 C -124.74384,621.36607 -126.03697,625.61961 -122.05248,628.4479 C -118.19709,632.63121 -113.01867,634.91487 -108.10221,637.28424 C -103.10993,640.91411 -98.804253,645.88085 -93.040143,648.14696 C -89.194634,647.69829 -92.007497,641.51506 -91.739093,638.69022 C -92.275257,635.00976 -92.680482,631.27668 -92.954165,627.58792 C -96.029748,623.96062 -101.32841,621.66037 -102.1086,616.34856 C -101.38741,612.64209 -100.69659,608.65989 -102.31519,605.04452 C -103.4687,601.87091 -105.09458,598.90915 -106.12255,595.68077 z"
         id="path3227"
         style="fill:#eac102;fill-opacity:1;fill-rule:nonzero;stroke:#43290c;stroke-width:1.03264928;stroke-linecap:butt;stroke-linejoin:miter;marker:none;marker-start:none;marker-mid:none;marker-end:none;stroke-miterlimit:4;stroke-dasharray:none;stroke-dashoffset:0;stroke-opacity:1;visibility:visible;display:inline;overflow:visible;enable-background:accumulate" />
    </g>
  </g>
</svg>
