<?xml version="1.0" encoding="UTF-8" standalone="no"?>
<!-- Created with Inkscape (http://www.inkscape.org/) -->

<svg
   xmlns:dc="http://purl.org/dc/elements/1.1/"
   xmlns:cc="http://creativecommons.org/ns#"
   xmlns:rdf="http://www.w3.org/1999/02/22-rdf-syntax-ns#"
   xmlns:svg="http://www.w3.org/2000/svg"
   xmlns="http://www.w3.org/2000/svg"
   xmlns:sodipodi="http://sodipodi.sourceforge.net/DTD/sodipodi-0.dtd"
   xmlns:inkscape="http://www.inkscape.org/namespaces/inkscape"
   width="210mm"
   height="210mm"
   viewBox="0 0 744.09449 744.09448"
   id="svg2"
   version="1.1"
   inkscape:version="0.91 r13725"
   sodipodi:docname="logoacmsvg.svg">
  <defs
     id="defs4">
    <pattern
       y="0"
       x="0"
       height="6"
       width="6"
       patternUnits="userSpaceOnUse"
       id="EMFhbasepattern" />
  </defs>
  <sodipodi:namedview
     id="base"
     pagecolor="#ffffff"
     bordercolor="#666666"
     borderopacity="1.0"
     inkscape:pageopacity="0.0"
     inkscape:pageshadow="2"
     inkscape:zoom="0.58378906"
     inkscape:cx="133.83734"
     inkscape:cy="565.38168"
     inkscape:document-units="px"
     inkscape:current-layer="layer1"
     showgrid="false"
     inkscape:window-width="1680"
     inkscape:window-height="997"
     inkscape:window-x="-8"
     inkscape:window-y="-8"
     inkscape:window-maximized="1" />
  <metadata
     id="metadata7">
    <rdf:RDF>
      <cc:Work
         rdf:about="">
        <dc:format>image/svg+xml</dc:format>
        <dc:type
           rdf:resource="http://purl.org/dc/dcmitype/StillImage" />
        <dc:title></dc:title>
      </cc:Work>
    </rdf:RDF>
  </metadata>
  <g
     inkscape:label="Capa 1"
     inkscape:groupmode="layer"
     id="layer1"
     transform="translate(0,-308.26772)">
    <path
       inkscape:connector-curvature="0"
       id="path3341"
       d="m 11.227471,684.07903 0,-9.39479 355.172999,-349.37493 5.30967,0 18.87985,0.58718 8.8498,0.58719 9.43966,0.58718 8.8498,1.17439 8.85035,1.17435 8.84981,1.76155 8.84979,1.17436 8.8498,2.34876 8.84982,1.76154 8.25943,2.34877 8.84978,2.34874 16.51995,5.87185 8.25995,2.9359 8.25998,3.52311 8.25941,3.52309 7.67012,3.52316 7.66958,4.11024 7.67012,4.11031 7.66957,4.1103 7.67014,4.1103 7.66957,4.69757 7.08138,4.69739 7.07589,5.28443 7.08138,4.69795 6.48991,5.28443 7.08137,5.87202 12.97979,11.15644 6.48989,5.87148 5.8984,5.87201 6.48991,5.87202 5.8984,6.45907 11.21082,12.91809 10.61933,13.50515 5.31239,7.0461 4.72093,7.0461 9.43636,14.67976 8.85035,15.26682 7.67285,15.2668 7.07591,15.85385 6.4899,16.44144 2.95195,8.2207 2.95193,8.22018 2.36047,8.80829 2.35499,8.22017 2.36044,8.80775 1.77445,8.80777 2.94648,17.6155 2.36046,18.20308 0.59149,8.80775 0.59148,9.3948 0.58602,18.20254 -0.58602,18.20308 -0.59148,9.39481 -0.59149,9.39479 -1.1775,8.80775 -1.18296,8.8083 -1.17749,8.80775 -1.76899,8.80775 -1.77445,8.80776 -2.36044,8.80774 -2.35499,8.22018 -2.36047,8.80775 -5.90388,16.44143 -2.94647,8.2207 -3.54343,8.22073 -3.53794,8.22016 -3.53797,7.63368 -4.12941,7.63312 -3.54344,7.63365 -4.72092,7.63314 -4.12943,7.63371 -4.71543,7.04441 -4.72093,7.6364 -4.72093,7.04231 -5.31239,7.04779 -5.30692,6.45895 -5.31241,7.0478 -11.21082,12.91813 -5.8984,6.45907 -6.48991,5.87034 -5.8984,5.87034 -6.48989,5.87582 -12.97979,11.74079 -13.57128,10.5688 -7.08138,4.6986 -7.07589,5.2871 -14.75095,9.3915 -15.33971,8.2251 -15.3397,8.21974 -15.92953,7.0423 -16.51993,6.4589 -8.25997,2.9381 -8.25998,2.9379 -8.84978,2.349 -8.25943,2.344 -8.84982,1.7659 -8.8498,2.3493 -17.6996,2.9324 -17.70015,2.3492 -9.43966,0.5888 -8.8498,0.5887 -18.87985,0.5832 -18.28945,-0.5832 -9.43963,-0.5887 -8.84981,-0.5888 -9.44021,-1.1718 -8.84981,-1.1774 -8.84981,-1.1719 -8.84978,-1.7605 -8.84981,-2.3493 -8.84981,-1.7659 -8.25943,-2.344 -8.85035,-2.349 -16.51938,-5.876 -8.25996,-2.9325 -8.25997,-3.5264 -7.66957,-3.5213 -8.25996,-3.521 -7.66957,-4.1099 -7.67012,-4.10984 -7.66959,-4.1152 -7.67014,-4.1099 -7.07973,-4.693 -7.07974,-4.6985 -7.67011,-5.2871 -6.4899,-4.6986 -7.07973,-5.2816 -7.07974,-5.2872 -12.97979,-11.74079 -5.90005,-5.87582 -6.48989,-5.87034 -5.90005,-5.87034 -5.89952,-6.45907 -11.209707,-12.91813 -10.619877,-13.50675 -5.310212,-7.04779 -5.309664,-7.04231 -8.849806,-14.68081 -8.849861,-15.26685 -8.2598,-15.26677 -7.079905,-15.85384 -6.48984,-16.44143 -2.949973,-8.22072 -2.359956,-8.22071 -2.949917,-8.80775 -2.359967,-8.22018 -1.769961,-8.80774 -1.769962,-8.80776 -3.539934,-17.6155 -2.359956,-17.61605 -0.589983,-9.39479 -0.589994,-9.39481 -0.589984,-18.20308 z"
       style="fill:#0084c8;fill-opacity:1;fill-rule:nonzero;stroke:none" />
    <path
       inkscape:connector-curvature="0"
       id="path3343"
       d="m 313.30164,719.89763 -26.54942,0 -10.61987,-29.94658 -48.96885,0 -10.03004,29.94658 -26.54942,0 47.78917,-133.29092 25.95903,0 48.9694,133.29092 z m -44.83942,-52.84652 -17.10921,-49.32375 -16.51992,49.32375 33.62913,0 z"
       style="fill:#ffffff;fill-opacity:1;fill-rule:evenodd;stroke:none" />
    <path
       inkscape:connector-curvature="0"
       id="path3345"
       d="m 393.53973,671.16147 24.18952,7.63313 -1.76953,5.28443 -1.77008,5.28498 -1.77006,4.6974 -2.3599,4.11036 -2.35992,4.11034 -2.35993,3.52279 -2.95029,2.93628 -2.94975,2.93574 -3.53959,2.34869 -3.54014,2.3487 -3.54015,1.76165 -4.12997,1.76167 -4.12944,1.17408 -4.72037,0.58757 -4.12999,0.58704 -5.30967,0 -5.90006,0 -5.30965,-1.17461 -5.90005,-1.17408 -2.35993,-1.17463 -2.3599,-0.58704 -5.30967,-2.93574 -1.77006,-1.17461 -2.3599,-1.76167 -4.71982,-3.52276 -4.12999,-4.69739 -3.54015,-4.69796 -2.94976,-5.28442 -1.77007,-2.34871 -1.18023,-2.93574 -1.17967,-2.93628 -1.18023,-2.93573 -1.17969,-6.45906 -1.77006,-7.0461 -0.58984,-7.04608 0,-8.22071 0,-7.63369 0.58984,-7.63312 1.77006,-7.63367 0.58984,-2.93574 1.18023,-3.52333 0.58985,-3.52277 1.17967,-2.93628 2.9503,-5.87147 2.94976,-5.28497 1.77008,-2.34871 2.3599,-2.34869 4.12998,-4.11036 4.13,-4.11036 4.71982,-2.93574 5.30965,-2.93573 5.31022,-1.76166 5.30965,-1.76165 5.90006,-0.58706 6.4899,0 5.30967,0 5.31021,0.58706 5.30966,1.17461 4.71982,1.76112 4.12998,1.76166 4.12999,2.34868 4.12999,2.93631 3.54014,3.52276 4.12944,4.69739 2.95029,5.87202 1.77007,3.52332 1.17969,2.93573 2.3599,7.63313 -24.18951,6.45907 -0.58983,-2.34871 -1.18023,-2.3487 -1.76953,-4.6974 -2.36045,-3.52277 -1.76953,-1.76165 -1.77006,-1.76166 -1.77008,-1.17461 -1.77008,-1.1741 -4.12997,-1.76165 -4.12999,-1.17462 -4.71982,-0.58703 -3.53959,0 -2.95032,0.58703 -1.76951,0.58759 -1.18021,0.58703 -2.94977,1.17463 -2.95029,1.17406 -2.35992,1.76167 -2.35993,2.34869 -2.3599,2.3487 -1.77006,2.93575 -1.77008,3.52331 -1.17967,3.52332 -1.18023,4.11035 -1.17969,4.69739 -0.58984,4.69742 -0.59039,5.28441 0,5.87203 0,5.87202 0.59039,5.87147 0.58984,5.28496 1.17969,4.69742 1.18023,4.11034 1.17967,4.11036 0.59039,1.76112 1.17969,1.76165 1.77006,2.93628 2.3599,2.3487 2.35993,2.34871 2.35992,1.76166 2.3599,1.17406 2.95029,1.17463 2.94977,1.17408 3.54014,0.58703 2.94974,0 4.71985,-0.58703 4.71981,-1.17408 1.77007,-1.17463 2.3599,-1.17406 3.54016,-2.93627 1.77006,-1.76168 1.17969,-1.76112 2.95029,-5.28497 2.3599,-5.87147 1.17969,-2.93628 0.58984,-3.52277 z"
       style="fill:#ffffff;fill-opacity:1;fill-rule:evenodd;stroke:none" />
    <path
       inkscape:connector-curvature="0"
       id="path3347"
       d="m 432.47909,719.89763 0,-133.29092 37.16931,0 22.41943,91.01381 21.23975,-91.01381 37.1693,0 0,133.29092 -22.41944,0 -0.58983,-105.106 -24.1895,105.106 -23.59967,0 -24.18951,-105.106 0,105.106 -23.00984,0 z"
       style="fill:#ffffff;fill-opacity:1;fill-rule:evenodd;stroke:none" />
  </g>
</svg>
