<?xml version="1.0" encoding="UTF-8" standalone="no"?>
<!-- Generator: Adobe Illustrator 19.0.0, SVG Export Plug-In . SVG Version: 6.00 Build 0)  -->
<svg id="Layer_1" style="enable-background:new 0 0 512 512" xmlns="http://www.w3.org/2000/svg" xml:space="preserve" viewBox="0 0 512 512" version="1.1" y="0px" x="0px" xmlns:xlink="http://www.w3.org/1999/xlink">
		<path d="m266.03 90.235v-80.209c0-5.536-4.49-10.026-10.03-10.026s-10.026 4.49-10.026 10.026v80.209c-60.156 0.011-110.29 49.441-110.29 110.19v200.7c0.01 60.77 50.53 110.88 111.35 110.88h20.013c60.822 0 109.27-50.108 109.27-110.87v-200.7c0-60.75-47.62-110.18-110.28-110.2zm90.23 310.9c0 49.704-39.448 90.814-89.216 90.814h-20.013c-49.768 0-91.292-41.11-91.292-90.814v-200.7c0-49.705 41.524-89.469 91.292-89.469h20.013c49.768 0 89.216 39.764 89.216 89.469v200.7z"/>
		<path d="m257.04 200.52c-11.054 0-20.052 8.994-20.052 20.052 0 11.059 8.998 20.052 20.052 20.052s20.052-8.993 20.052-20.052c0-11.05-9-20.05-20.05-20.05z"/>
</svg>
